<svg xmlns="http://www.w3.org/2000/svg" version="1" width="933.333" height="933.333" viewBox="0 0 700 700">
  <path d="M275 133c-50 15-96 44-127 86-20 24-48 44-52 78-5 26-22 51-14 78 1 28-14 56-6 85-2 26 10 49 28 68 18 17 1 39-4 50 17 11 16-30 20-42l10-79c17-23 28-46 34-73 3-24-11-63 28-61 25 0 51-9 74 3 29 9 32-35 56-42 26-24 42 17 66 15 23-5 46 22 67 10 18-4 47 4 56 18-8 25 36 30 35 57-6 30 17 56 19 86 6 33 9 68 15 101 6-20 9-42 30-50 13-20 10-44 13-67 3-36 3-74-13-107-11-25-11-54-25-79-10-17-21-50-42-48-3-4-31-8-15-23-11-13-23-21-40-34-22-20-55-13-81-25-18-4-35-13-53-15-18 1-36-1-54 1l-26 9z"/>
</svg>
