<svg xmlns="http://www.w3.org/2000/svg" version="1" viewBox="0 0 300 386" class="" style=""><path stroke="#333333" d="M136 28c-10 4-19 8-27 14-8 8-16 17-22 26-3 7-4 14-6 22-1 2 0 9 2 3l5-13c5-2-4-3 1-4 5-3 8-2 8-2-3-2 1-9-5-6-3-1 4-9 1-3 3 1 3-10 6-3 1-3 3 0 3-5 4-6-5 5-3 0 5-7 12-11 19-15 2-2 10-3 4-4 4-1 8 0 10-3 6-2 12-3 17-2 4 2 8-2 3-1-4-1-7-5-1-3 5 3 10 4 16 4 0 3 11 6 5 1 6 0 15 2 16 9 0 6 12-3 7 5-2 5 5 8 4 3-3-1 4-6-1-7-6-3-10-8-16-10l-21-6h-25zm10 2c-2 3-11-2-3-1l3 1zm19 1c-1 3-4-4 0 0zm-51 12c-2 3-2-3 0 0zm78 0c0 5-3-3 0 0zm-83 3c-3 4-4 1-1-1 2-2 2 0 1 1zM93 70c4 4-9 7-4 1 1-5 0-2 4-1zm-8 14c-2 4-1-3 0 0z" class="QJQoqbli_0"></path><path stroke="#333333" d="M151 36c-6 1-13-2-19 3-5 3-13 4-15 9 5-2 10-5 16-6 6-3 12-4 18-4 6-1 11-2 17 1 2-2-6-4-9-4-2 0-6-1-8 1z" class="QJQoqbli_1"></path><path stroke="#333333" d="M154 41c6 3 12 5 17 10 4 5 11 11 8 17 6-3 9 6 14 2 2 1 9 4 3 0-4-1-10-2-11-6-5-3-7-9-11-14-1-3-1-5-5-5 1-3-5 0-7-3-3-1-5-2-8-1zm29 24c-4 2-1-5 0 0zM176 42c7 5-11-4-4 2 3 0 10 7 10 3-1-2-9-9-6-5zM181 44c5 2 4 12 9 12-2-3-3-6-5-7 2-1 9-2 3-2-2 1-11-10-7-3z" class="QJQoqbli_2"></path><path stroke="#333333" d="M145 44c-6 2-12 1-16 6-1 3 8-1 4 4-1 5-4 1-5 6-4 3 8-4 3 0-4 1 0 8 1 2 3-5 1 4 1 7 2 3-5 11 1 6 2-5 8-6 11-9 2 2 5-1 8 3 5 3 0-6-2-7-3-1 4 5-1 3-3-2-10-6-11-2 6-1-5 12-4 5-1-3 6-12-1-9-2-5 10-8 7-9-2 1-9 5-4 1 5-3-9 1-3-3 6 0 12-4 18-3 2 2 12 6 7 0-4-3-10-3-15-1z" class="QJQoqbli_3"></path><path stroke="#333333" d="M145 48c-1 5 11 0 9 4-3 2-15-2-12 4 4 0 13-5 15 1-3 2-1 4 0 1 3 4 3-2 0-4 0-4-9-8-12-6zM164 50c3 2 6 13 8 6 0-5-2 5-2-1 1-5-3-1-5-4zM204 51v1l2 1h-2c-2-1-6 1-6 2 0 2 5 3 7 2 1-1 1-1-1-1l-2-1h2c2 0 3 1 3 2l1 2c1 1 1 1-1 1-3-1-2 0 1 1 3 2 3 2 3 0-1-1-1-1 0 0l3 4c0 1 0 2-1 1l-2-1-1-1-3-1c-2-1-5-2-4 0h2v1 1c1-1 2 0 2 1v1l2 3 4 5-3-4-2-4 2 1 2 2v-1h1l2 2c-1 1-1 1 0 0l1 1v2l1 9 1 2 1 2c1 0 1 1 0 0v4l1 3 2 3v8l1 11c1 5-1 7-2 2-1-4-2-5-1-1v8c1 2 1 3-1 4l-1 2-1-1v-3h-1v6c0 3 0 4 2 3v-2c-1-1 0-1 2-1l4 1c1 2 1 2-1 2v1l2 3 2 2 1 2h-1c-1-1-1-1-1 1 0 3 0 3 1 2h1l-1 3h-2l-5-11 2 6 2 11c1 5 1 6-1 9s-3 5 0 3c1-1 1-1 0 0 0 2-3 4-4 6-4 4-4 4-8 3s-4-1-5 2l-1 1-1 1c1 1-3 16-4 17l-2 2-4 8v7 1c1-1 1-1 1 1a115 115 0 0 0-1 22c4 5 2 13 2 14 0 6-2 13-5 16 1 1-3 10-4 11-1 3-3 5-2 7l-2 9c-2 3-2 6-2 7 2-1 5-4 5-6-1-2 0-7 1-6 2-1 1-3 0-3-1-2 2-4 2-6l4-9c3-4 3-10 6-14 4-6-1-13-1-18l-1-2-1-16c1-14 1-15 4-19 2-3 6-15 7-22 1-3 1-3 4-2 7 1 14-8 18-25 2-10-1-20-6-22l-2-2h2l3-1-1-18c0-18 0-19-3-26l-2-8-1-4c-2-6-2-7-1-9v-3h-1v3c-1 1-1 1-2-1l-3-5-2-4c1-2-5-6-6-4zm6 4l-1 1-2-2 1-1 2 2zm12 70c-1 1-1 1-1-1s0-2 1-1v2zm6 29c-1 5-2 6-2 3l2-7v4z" class="QJQoqbli_4"></path><path stroke="#333333" d="M150 56c-3 1-11 2-10 4 2-2 6 2 7-2-1-2 11 1 5-3l-2 1zM173 61c0 2-2 11 0 4 3-1 3-8 0-4z" class="QJQoqbli_5"></path><path stroke="#333333" d="M167 60c0 4-2 5-5 4-3 5 1 2 1 2l11 8c3 2 10 2 10 0-6 1-11-2-15-6-1-2-5 1-3-3 1-1 3-4 1-5z" class="QJQoqbli_6"></path><path d="M155 66c1 6 12 12 13 7-4 1-10-2-10-6 3-2-3-4-3-1zM194 67c5 2 15 6 13 9-2-3-10-5-7 0 3 3 2 0 1-1 4 0 9 6 11 5-4-6-9-15-18-13zM124 74c3 3-2 3-4 0 1 6-8-2-5 4 4 5 11-3 14 3 4 2 12-4 5-4-4 5-10-6-11-4v1zm-2 5c-4 1-3-2 0 0zM106 76c-4 0-14 2-10 6 3 3-4 1-2 3-4-1-2 6-4 7 1 4 3-5 6-6 5-1-1-8 5-8 4-1 10 0 11 3 3-2-2-4 1-5h-7zM191 76c0 5 8 13 5 3-1-2-3-3-5-3zm6 6c-2 3-3-6-1-1l1 1zM199 86c3 5 3 10 8 14 1 3 4 4 2 0-5-4-6-11-10-16v2z" class="QJQoqbli_7"></path><path stroke="#333333" d="M96 91c-4 0-5 10-3 9 1-4 7-8 5-11l-1 1zM85 92c-3 4-4 7-4 11-1 4-2 10-4 12 4-4 1 4 4 4 0 3-4 7 1 8 5 5-6 2-6 7-4 10-1 20 1 30 2 6 6 11 12 13 3 0 6-2 5 2 1 9 4 17 8 25 3 8 1 16 3 24 4-3-1-14 4-13 2 3 10 5 8 8 4 0 1 4 5 3-1 4 7-2 5 4-1 2 3-3 4 1 4 0 8 5 11 3 3 1 17-1 13-1-8-1-17 0-24-5-9-6-18-11-25-19 1-3-2-5-4-9-4-6-4-14-5-21-2-6-9-2-13-8-3-2-5-5-6-8l7 5c1 0 6 2 2-1-5-2-9-7-8-13 0-5 3-10 4-15 2 2 5 6 3 9 4 2 3 10 1 12-3-2-7 0-3 2 4-2 6 3 7 3-1-4-2-8-1-11-1-5-2-11-5-15-2-3-9-8-3-8 4-3 11-6 7-12-4-1 2-9-1-9l-4 8c0 3 3-2 3 3 2 3-1 6-2 1 0 3 0 8-1 2-2-4-1-9-1-12-1-4 3-10 2-15 1 0 3-8 0-5zm-4 45l-5 17v-17c1-2 4-1 5 0zm44 89c-3 1-7-5-3-2l3 2z" class="QJQoqbli_8"></path><path stroke="#333333" d="M76 145c0 1 0 2 1 1v-2c-1-1-1 0-1 1zM87 98l-2 14c2-4 4-12 2-14zM99 101c-2 1-7 0-3 3 2 7 2-4 4-4zM94 106c0 2 0 2-1 1s-1-1-1 1v4c0 2 0 2-1 1-1-2-1-2-1 1l1 4 1 6-1 8-1 2-1-3c0-3-1-4-2-1v3l2 8c0 12 4-3 4-19l2-10v-4-3c-1-1-1-1-1 1zM212 106c-1 2 2 5 2 1 3 1-2-3-2-1zM209 110c2 6 4 0 0 0zM108 116c-3 2-10 8-7 9 7-5 16-5 23-3 4-1 14 3 10-2 5-5-6-4-7 1 4-7-9-6-6-2 1-2 7 0 1 0-5 0-9-5-14-3zm9 2l-11 3c1-4 8-4 11-3zm15 1c-2 3-2-3 0 0zM210 116l1 7 2 22c0 3 0 4 1 3l1-18v-6c1 1 1 1 1-1 1-1 0-2-1-1l-2 1c-1 1-1-1-1-3l-1-5-1 1zM176 117c-4-3-12 5-7 5 1-3 4 4 7 1 5-2 13 0 17-2-3-1-8-2-8-4-4 2-5-2-9 0zm-3 2c3-2 9 1 3 1-2 1-7-2-3-1zM191 118c4 3 9 5 13 9 3-2-4-8-8-9h-5zM138 119c2 4 2-4 0 0zM160 120c0 4 6 4 2 1 1-3-2-4-2-1zM164 121c1 3 0-5 0 0zM139 122c-3 2 9 1 4 2 6-2-1-7-4-2zM126 127c6 2 11 5 12 7l1 1 1-1c2 2 1-1-1-3-3-2-11-5-15-5-3 0-3 0 1 1z" class="QJQoqbli_9"></path><path stroke="#333333" d="M112 129c-3 0-5 1-5 2-1 1 1 1 4-1l4-1-10 5-2 1h4c2 0 3 1 1 2-1 1 4 1 8 1l2 2h6l-3-2-8-2-3-1 3-2 4-1c0 2 4 5 6 5l4-3c2-2 2-2 4-1 3 2 2 3-2 4-6 0-5 1 1 1l6 1 1 1c1-1 0-3-2-5-3-4-9-6-15-6-3 0-3 0-2-1 2-1 2-1 0-1l-6 2zm13 2l-1 1-2-1v-1l3 1zm-1 3l-2 1v-1h2zM175 128l-12 5c0 1 6 0 7-2 2-1 7-3 11-3 2-1 2-1-1-1l-5 1zM186 129l-2 1h-6c-3 1-10 7-10 8l6 1c4 0 5 0 4-1l-5-1h-2l2-3c3-3 4-3 4 0l2 3 2 1h2l1 1 10-1 3-1 2-1-1-1-5-3c-4-3-2-3 3 0l2 1c-3-4-14-7-12-4zm-3 3l-1 1-2-1 1-1 2 1zm8 1c3 2 2 3-3 5-3 1-4 0-2-2l1-3c0-3 1-3 4 0zm-8 3h-1l-2-1h2l1 1zM126 142l-2 1 4-1c3-2 1-2-2 0zM176 142h4c2-1 1-1-2-1-2 0-3 0-2 1zM217 146h1v-2l-1 2zM215 151v2c0 1 3-2 2-3 0-2-2-1-2 1zM85 152h1v-1c-1-1-2 0-1 1zM217 156l1 1v-1l-1-2v2zM215 159h1v-2l-1 2zM211 160l-1 4h1l1-4c-1-3-1-3-1 0zM134 163c-2 2-1 5 0 8 0 3 3 5 6 5 2 0 5 0 2-1s-6-2-7-5c0-2-1-5 1-7 1-4-2-2-2 0zM219 162l-3 1c-2 0-4 2-4 3l2 1h1c0-1 1-2 3-2 3-1 5-3 3-4l-2 1zM167 163l2 9c-1 3-5 3-8 4-3 0-4 5-2 7 1-2 0-6 3-6 4 0 8-2 9-5 0-4-1-7-3-10l-1 1zM93 170c0 2 0 3 1 2v-4c-1-1-1 0-1 2zM150 168c1 2 6 1 2 0h-2z" class="QJQoqbli_10"></path><path stroke="#333333" d="M139 171c-2 2 3 1 3 2l8 4c3 0 6 0 8-3 1-2 5 0 6-2-2-2-6-1-7 1s-3 2-5 1c-3 1-6 0-7-2-2-2-4-3-6-1zM142 180c-2 1 2 5 1 1 0-1 3-2 0-2l-1 1zM138 182c0 2 3 1 2-1l-2 1zM161 184c1 2-2 3-4 3 0 3 4 1 5 1-1 2 3 2 3 0-2-1-4-2-2-4 0-1 0-4-1-2l-1 2zM133 186v2c1-1 2-3 1-4l-1 2zM140 186c-3 2 2 2 3 1 0-3-2-2-3-1zM153 186c0 3-4 2-5 0-2 0-2 3 0 3s7 0 7-3c-1 0-2-2-2 0zM125 187c1 0 2 4 2 1 0-1-3-3-2-1zM136 188c-1 2 1 1 1 0 0-2-1-1-1 0zM129 189c-1 3 3-1 0-2v2zM169 188h1c-1-2-1-1-1 0zM123 191c-2 3 3-2 0-1v1zM142 190c0 2 5 2 3 0h-3zM172 191c-1 2 5 3 3 0 0-1-3-3-3 0zM153 191l-1 1 7-1c-2-2-4-1-6 0zM177 191c0 1 3 4 2 1l-2-2zM125 193c-1 3 4 2 5 2 13 1 27 3 41 2 1 0 4-1 2-2h-23c-1-1 0-3-2-1s-6 0-8 0l-12-2-3 1zM180 194c-1 2 2 4 2 3l-2-4v1zM133 198l7 4-4-4h-3zM162 203c-5 3-12 2-17 1-3-1-7 1-4 3s7 2 10 2c1 0-2-2 1-2 2 0 6 2 7 0 1-3 5-3 7-5s0-2-2-1l-2 2zm-19 3c0 3-4-1-1-1l1 1zm4 1c-2 1-4-1-1-1l1 1zM134 204c1 2 6 1 2 0h-2zM100 231c0 17 12 33 14 40 2 4 4 8 4 12 3 4 5 8 5 13 3-2 0-7-1-9-3-4-4-9-5-13-1-6-5-11-7-17-4-6-8-12-8-19-1-3 2-8-1-10l-1 3z" class="QJQoqbli_11"></path><path stroke="#333333" d="M97 231c-3 3-4 9-3 14 0 2 7 22 7 29 0 16 2 4 0-13 0-4-4-11-5-16-2-7 0-10 3-15l1-1c0-1-2 0-3 2zM82 245c-10 11-2 31-2 40 2-13-2-32 2-40zM215 264l2 7c2 2 2 4 2 6v9c0 3-2 6 0 8 2 1 4 0 3-2v-9c0-6-1-11-4-16l-3-3zM71 256c-7 13-54 24-69 33 32-8 69-23 69-33zM206 256l-3 9 1 12 5 5c0-2-3-3-3-4l-1-7c-2-11-1-9 0-10 2-1 1-2 2-4 0-1 0-3-1-2v1z" class="QJQoqbli_12"></path><path stroke="#333333" d="M203 245c2 2 3 5 3 8l2 4v-3l-4-10c-1-1-3-2-2 0l1 1zM211 257l2 7v14c1 13-2 6-2 1 0-8 1-16-1-20l1-2zM223 273l4 8v11c-1 1 1 2 2 0l1-3v-7l-5-8c0-2-2-3-4-4l2 2zM102 280c1 3 3 6 6 7 2 1 3 2 3 4 0 1 2 3 2 1-1-4-4-6-6-8l-5-4z" class="QJQoqbli_13"></path><path stroke="#333333" d="M275 290c15 1 19 3 22 2 2-1-6-2-21-5l-39-8c-13-4-15-1 10 5l28 6zM179 292l-10 13c-4 4-4 7-8 10l-6 12c-4 5-3-5-5-7 0-2-5-9-3-3 2 5 5 10 4 15 5-4 9-7 12-12 6-4 9-8 13-13-6 3-10 10-16 13 1-4 6-7 8-11 10-6 5-6 7-8 7-11 11-21 4-9zM125 292h0zm2 1s1 0 0 0zM124 297l8 6h2l-4-3-6-3zM135 305l7 6 3 2c1-1 0-2-1-3l-2-1-5-3-2-1zM91 238c-10 11 2 33 2 42-6-16-15-37-2-42zM145 336a3614 3614 0 0 1-3 44v-7c1-12 2-24 1-36l2-1zM154 358c-4-1-6-6-3-9 1-3 7-3 9 0 2 2 1 6-1 8l-5 1z" class="QJQoqbli_14"></path><style>.QJQoqbli_0{stroke-dasharray:462 464;stroke-dashoffset:463;}.w12 .QJQoqbli_0{animation:QJQoqbli_draw 8000ms linear 0ms forwards;}.QJQoqbli_1{stroke-dasharray:111 113;stroke-dashoffset:112;}.w12 .QJQoqbli_1{animation:QJQoqbli_draw 8000ms linear 0ms forwards;}.QJQoqbli_2{stroke-dasharray:207 209;stroke-dashoffset:208;}.w12 .QJQoqbli_2{animation:QJQoqbli_draw 8000ms linear 0ms forwards;}.QJQoqbli_3{stroke-dasharray:232 234;stroke-dashoffset:233;}.w12 .QJQoqbli_3{animation:QJQoqbli_draw 8000ms linear 0ms forwards;}.QJQoqbli_4{stroke-dasharray:869 871;stroke-dashoffset:870;}.w12 .QJQoqbli_4{animation:QJQoqbli_draw 8000ms linear 0ms forwards;}.QJQoqbli_5{stroke-dasharray:50 52;stroke-dashoffset:51;}.w12 .QJQoqbli_5{animation:QJQoqbli_draw 8000ms linear 0ms forwards;}.QJQoqbli_6{stroke-dasharray:67 69;stroke-dashoffset:68;}.w12 .QJQoqbli_6{animation:QJQoqbli_draw 8000ms linear 0ms forwards;}.QJQoqbli_7{stroke-dasharray:324 326;stroke-dashoffset:325;}.w12 .QJQoqbli_7{animation:QJQoqbli_draw 8000ms linear 0ms forwards;}.QJQoqbli_8{stroke-dasharray:647 649;stroke-dashoffset:648;}.w12 .QJQoqbli_8{animation:QJQoqbli_draw 8000ms linear 0ms forwards;}.QJQoqbli_9{stroke-dasharray:577 579;stroke-dashoffset:578;}.w12 .QJQoqbli_9{animation:QJQoqbli_draw 8000ms linear 0ms forwards;}.QJQoqbli_10{stroke-dasharray:569 571;stroke-dashoffset:570;}.w12 .QJQoqbli_10{animation:QJQoqbli_draw 8000ms linear 0ms forwards;}.QJQoqbli_11{stroke-dasharray:579 581;stroke-dashoffset:580;}.w12 .QJQoqbli_11{animation:QJQoqbli_draw 8000ms linear 0ms forwards;}.QJQoqbli_12{stroke-dasharray:476 478;stroke-dashoffset:477;}.w12 .QJQoqbli_12{animation:QJQoqbli_draw 8000ms linear 0ms forwards;}.QJQoqbli_13{stroke-dasharray:179 181;stroke-dashoffset:180;}.w12 .QJQoqbli_13{animation:QJQoqbli_draw 8000ms linear 0ms forwards;}.QJQoqbli_14{stroke-dasharray:593 595;stroke-dashoffset:594;}.w12 .QJQoqbli_14{animation:QJQoqbli_draw 8000ms linear 0ms forwards;}@keyframes QJQoqbli_draw{100%{stroke-dashoffset:0;}}@keyframes QJQoqbli_fade{0%{stroke-opacity:1;}96.72131147540983%{stroke-opacity:1;}100%{stroke-opacity:0;}}</style></svg>