<svg xmlns="http://www.w3.org/2000/svg" version="1" viewBox="0 0 256 256">
  <path d="M189 68c5 1 0 4 5 4-6 4-1 9 5 7-2 5 5-2 4 3 8 7 11 16 15 25 1 10 5 20 9 30 1 9 2 18 1 27l-2 22c-4 1 0 6-6 7-8 2-5 15-8 16l-4-29c-1-7-2-15-5-22-3-6-5-13-3-19-4-6-8-12-13-13-3-5 4-9-3-9-5-3-17-8-20-2-6 0-10-6-17-5-5 1-7-3-11-1 0-3-9-9-13-8-8 3-13 8-17 16-6 8-14-3-21 0-8 1-16 0-22 3-9 6 2 14-4 22l-2 8c1 6-12 14-10 23l-4 28c-1 4-3 19-7 9 9-4 4-17-2-22-3-2-4-7-6-12 1-6-2-12-1-19 1-8 5-17 2-25 0-8 5-16 6-24s7-16 13-21c6-6 11-14 18-20s16-11 24-15l21-7h20l26 8c7 1 16 1 22 7 1 3 14 7 8 8"/>
</svg>
