<!--?xml version="1.0" encoding="UTF-8" standalone="no"?-->
<svg xmlns:dc="http://purl.org/dc/elements/1.1/" xmlns:cc="http://creativecommons.org/ns#" xmlns:rdf="http://www.w3.org/1999/02/22-rdf-syntax-ns#" xmlns:svg="http://www.w3.org/2000/svg" xmlns="http://www.w3.org/2000/svg" xmlns:sodipodi="http://sodipodi.sourceforge.net/DTD/sodipodi-0.dtd" xmlns:inkscape="http://www.inkscape.org/namespaces/inkscape" version="1.0" width="467.000000pt" height="500.000000pt" viewBox="0 0 1280.000000 1370.000000" preserveAspectRatio="xMidYMid meet" id="svg7703" sodipodi:docname="vamsi_animated.svg" inkscape:version="0.92.3 (2405546, 2018-03-11)" class="" style="">
  <defs id="defs7707"></defs>
  <sodipodi:namedview pagecolor="#ffffff" bordercolor="#666666" borderopacity="1" objecttolerance="10" gridtolerance="10" guidetolerance="10" inkscape:pageopacity="0" inkscape:pageshadow="2" inkscape:window-width="1920" inkscape:window-height="1013" id="namedview7705" showgrid="false" showborder="true" inkscape:snap-global="false" inkscape:zoom="0.36542453" inkscape:cx="-55.047068" inkscape:cy="764.06031" inkscape:window-x="-9" inkscape:window-y="-9" inkscape:window-maximized="1" inkscape:current-layer="g7701"></sodipodi:namedview>
  <metadata id="metadata7607">
Created by potrace 1.16, written by Peter Selinger 2001-2019
<rdf:rdf>
  <cc:work rdf:about="">
    <dc:format>image/svg+xml</dc:format>
    <dc:type rdf:resource="http://purl.org/dc/dcmitype/StillImage"></dc:type>
    <dc:title></dc:title>
  </cc:work>
</rdf:rdf>
</metadata>
  <g transform="translate(0.000000,1370.000000) scale(0.100000,-0.100000)" id="g7701" fill="#000000" style="stroke:#051905;stroke-opacity:0.97014928;stroke-width:60.00000138;stroke-miterlimit:4;fill:#000800;fill-opacity:1">
    <path d="m 6208.7868,12725.309 c -11.4654,-2.736 -44.9798,-24.627 -73.2024,-49.254 -81.1401,-69.319 -178.1554,-134.078 -279.5805,-186.98 -89.9596,-45.605 -247.8299,-103.98 -282.2263,-103.98 -9.7015,0 -48.5076,19.154 -86.4318,42.869 -150.8146,93.034 -256.6495,130.43 -366.0122,130.43 -80.2581,0 -141.9951,-18.242 -192.2667,-55.638 -34.3963,-26.451 -37.0422,-30.099 -32.6324,-61.111 4.4098,-25.539 16.7572,-43.781 52.0355,-75.704 57.3272,-52.902 56.4453,-53.814 -69.6746,-117.661 -74.0844,-37.396 -104.071,-59.287 -151.6966,-107.628 -98.7793,-103.068 -134.0575,-203.399 -131.4117,-371.226 0.882,-75.704 -1.7639,-100.331 -18.5211,-143.2 -10.5835,-28.275 -26.4587,-61.11 -35.2783,-72.968 -14.1113,-17.33 -18.5211,-18.242 -29.9865,-9.121 -11.4654,10.033 -14.9933,9.121 -22.9309,-6.385 -7.9376,-13.681 -26.4587,-116.749 -27.3407,-148.672 0,-17.33 -31.7504,-34.66 -60.855,-34.66 -31.7505,0 -41.452,-8.209 -165.808,-138.639 -163.162,-172.388 -181.6831,-206.135 -186.0929,-335.654 l -3.5278,-86.65 -45.8618,-59.286 c -104.9529,-134.991 -138.4673,-209.784 -106.7168,-237.147 12.3474,-10.945 17.6391,-8.209 42.3339,22.803 141.9951,176.036 231.9547,313.763 269.8789,413.182 52.9174,134.991 61.737,146.848 213.4336,302.818 153.4606,157.793 193.1487,209.783 221.3713,286.4 9.7015,25.539 27.3407,60.198 39.6881,77.528 33.5143,44.693 52.0354,103.068 68.7926,215.256 25.5768,165.091 53.7994,223.465 130.5297,269.07 33.5144,20.067 57.3272,27.364 89.9596,27.364 76.7303,0 129.6477,50.165 141.9951,134.991 8.8196,58.374 -10.5835,133.166 -42.3339,171.475 l -27.3407,31.923 25.5768,-6.384 c 37.9241,-9.121 144.6409,-61.111 231.0727,-112.189 141.9951,-83.913 254.8857,-103.98 356.3107,-64.759 25.5768,10.033 76.7303,25.539 112.8906,35.572 36.1602,9.121 89.9596,28.275 119.0642,41.044 70.5565,32.836 202.8501,125.87 299.8654,210.696 89.0777,77.529 154.3425,106.716 195.7945,87.562 29.9866,-14.594 22.0489,-29.188 -29.9865,-55.639 -25.5768,-12.769 -45.8618,-25.538 -46.7438,-29.187 -0.8819,-14.593 97.8973,-36.484 180.8013,-41.044 63.5009,-2.737 122.592,0.912 209.9058,14.593 67.9107,10.945 163.162,19.154 212.5516,19.154 108.4808,0 152.5786,-12.769 508.0074,-150.496 133.1755,-51.99 264.5871,-100.332 291.0459,-108.541 31.7504,-9.121 119.0642,-17.329 247.8299,-22.802 273.4067,-12.77 372.186,-35.572 485.9584,-113.101 27.3407,-19.154 72.3205,-40.132 100.5431,-48.341 27.3407,-7.297 70.5566,-24.627 95.2514,-38.308 56.4453,-31.012 156.1064,-131.343 179.9193,-181.509 l 19.403,-38.308 26.4588,13.682 c 37.9241,20.066 112.0085,25.538 170.2177,12.769 27.3407,-5.473 50.2716,-13.681 50.2716,-16.418 0,-3.648 -7.9377,-11.857 -18.5211,-18.242 -31.7505,-20.978 -11.4655,-22.802 26.4587,-2.736 71.4385,38.308 164.044,17.33 219.6073,-49.254 37.9242,-43.781 47.6257,-71.144 46.7437,-128.606 v -47.429 l 49.3896,50.165 c 50.2716,51.078 124.356,104.892 166.69,121.31 37.0422,14.593 56.4452,3.648 56.4452,-31.924 0,-16.418 6.1737,-37.396 14.1113,-44.693 18.5211,-20.066 63.5009,-18.242 97.8973,2.737 61.737,39.22 43.2159,86.649 -58.2092,150.496 -91.7235,57.463 -139.3492,64.76 -171.9817,28.276 -12.3474,-13.682 -22.9308,-31.924 -22.9308,-39.221 0,-8.209 -13.2294,1.824 -31.7505,23.715 -60.855,73.88 -130.5297,101.243 -312.2128,124.958 -135.8214,17.33 -215.1976,41.044 -267.2331,79.353 -22.0489,16.417 -82.9039,62.023 -134.9394,101.243 -165.808,124.046 -291.9278,184.244 -442.7425,211.608 -43.2159,7.296 -177.2734,20.066 -298.1015,27.363 -208.1419,13.681 -359.8386,32.835 -409.2282,51.989 -11.4654,4.561 -47.6257,26.451 -79.3761,47.43 -220.4893,150.496 -452.4441,207.047 -724.0869,178.772 -112.0085,-11.858 -119.0642,-11.858 -257.5315,11.857 -132.2935,22.802 -260.1773,30.099 -322.7963,18.242 z" id="path7609" style="fill: rgb(6, 0, 0); fill-opacity: 0.972549; stroke: rgb(0, 0, 0); stroke-width: 33.6339; stroke-miterlimit: 4; stroke-opacity: 0.97015;" inkscape:connector-curvature="0" class="PwYWqsqA_0"></path>
    <path d="m 7405.6027,12296.621 c -17.6391,-20.978 -33.5144,-71.144 -33.5144,-103.979 0,-31.012 3.5279,-31.924 32.6324,-8.209 31.7505,25.538 41.452,23.714 75.8484,-19.154 41.4519,-49.254 59.973,-45.606 75.8483,16.417 14.9932,58.375 9.7015,75.705 -24.6948,75.705 -19.4031,0 -30.8685,7.297 -44.9798,27.363 -22.049,31.923 -59.9731,37.396 -81.1401,11.857 z" id="path7611" style="fill: rgb(6, 0, 0); fill-opacity: 0.972549; stroke: rgb(0, 0, 0); stroke-width: 33.6339; stroke-miterlimit: 4; stroke-opacity: 0.97015;" inkscape:connector-curvature="0" class="PwYWqsqA_1"></path>
    <path d="m 5218.3489,12147.949 c -7.9376,-5.473 -24.6948,-27.363 -37.0422,-49.254 -15.8752,-28.275 -35.2783,-46.517 -63.5009,-61.111 -51.1535,-24.626 -187.8569,-165.09 -233.7187,-238.97 -50.2715,-80.265 -44.0978,-127.695 14.1113,-112.189 31.7505,8.209 77.6123,53.814 152.5786,150.497 37.0422,48.341 100.5432,124.046 141.1132,169.651 87.3137,95.77 102.307,117.661 95.2513,136.815 -5.2917,15.506 -45.8617,18.242 -68.7926,4.561 z" id="path7613" style="fill: rgb(6, 0, 0); fill-opacity: 0.972549; stroke: rgb(0, 0, 0); stroke-width: 33.6339; stroke-miterlimit: 4; stroke-opacity: 0.97015;" inkscape:connector-curvature="0" class="PwYWqsqA_2"></path>
    <path d="m 7883.6235,11995.628 c 0,-4.561 11.4654,-20.067 26.4587,-32.836 34.3963,-31.924 40.57,-60.199 22.9309,-112.189 -7.9376,-23.714 -12.3474,-45.605 -9.7015,-47.429 6.1737,-7.297 63.5009,41.957 89.0776,75.705 29.1046,39.22 25.5768,56.55 -19.403,89.386 -35.2783,25.538 -109.3627,44.693 -109.3627,27.363 z" id="path7615" style="fill: rgb(6, 0, 0); fill-opacity: 0.972549; stroke: rgb(0, 0, 0); stroke-width: 33.6339; stroke-miterlimit: 4; stroke-opacity: 0.97015;" inkscape:connector-curvature="0" class="PwYWqsqA_3"></path>
    <path d="m 8964.021,11771.251 c -32.6324,-15.506 -104.0709,-94.859 -98.7792,-109.453 1.7639,-7.296 21.167,-10.945 52.0355,-10.033 40.57,0.912 67.0288,10.033 153.4606,53.814 101.425,50.166 104.0709,52.902 78.4941,60.199 -50.2715,15.506 -156.9883,19.154 -185.211,5.473 z" id="path7617" style="fill: rgb(6, 0, 0); fill-opacity: 0.972549; stroke: rgb(0, 0, 0); stroke-width: 33.6339; stroke-miterlimit: 4; stroke-opacity: 0.97015;" inkscape:connector-curvature="0" class="PwYWqsqA_4"></path>
    <path d="m 8546.8553,11708.316 c -4.4098,-6.385 -13.2294,-29.188 -18.5211,-50.166 -20.285,-79.353 25.5767,-113.101 79.3761,-58.375 29.9866,31.924 32.6325,62.023 7.0557,95.771 -19.4031,25.539 -52.9174,31.012 -67.9107,12.77 z" id="path7619" style="fill: rgb(6, 0, 0); fill-opacity: 0.972549; stroke: rgb(0, 0, 0); stroke-width: 33.6339; stroke-miterlimit: 4; stroke-opacity: 0.97015;" inkscape:connector-curvature="0" class="PwYWqsqA_5"></path>
    <path d="m 9086.6131,11684.601 c -29.1046,-20.066 -36.1603,-74.792 -9.7015,-74.792 20.285,0 32.6324,-21.891 42.3339,-78.441 11.4654,-65.672 27.3407,-97.595 70.5566,-146.849 19.403,-21.89 34.3963,-42.868 34.3963,-48.341 0,-6.385 -25.5768,-7.297 -74.9664,-3.648 -88.1957,7.296 -101.425,0 -101.425,-51.99 0,-40.133 18.5211,-57.463 72.3205,-66.584 62.6189,-11.857 166.6899,-107.628 245.1841,-228.025 15.8752,-24.627 61.737,-116.749 101.425,-205.223 40.5701,-88.474 110.2447,-240.795 156.9884,-338.39 45.8618,-97.595 85.5499,-186.068 89.0777,-197.014 5.2917,-17.33 1.7639,-20.066 -35.2783,-25.539 -22.9309,-2.736 -65.2648,-5.472 -95.2514,-5.472 -100.5431,0 -269.8789,-62.935 -269.8789,-100.331 0,-12.77 7.9376,-19.154 33.5144,-22.803 81.1401,-14.594 109.3627,-29.187 250.4758,-132.2547 l 40.5701,-30.0994 -30.8685,-73.8802 c -78.4942,-184.2446 -124.356,-362.1044 -132.2936,-507.1286 -3.5278,-68.4077 -1.7639,-90.2981 8.8196,-104.8917 13.2293,-18.2421 13.2293,-18.2421 38.8061,0.9121 13.2293,10.0331 37.0422,36.484 51.1535,57.4624 22.9309,33.7478 26.4587,46.5172 24.6948,90.2981 -1.7639,59.2866 12.3474,124.0458 52.0355,236.2343 l 27.3406,77.5287 33.5144,-107.628 c 34.3963,-107.628 52.0355,-140.4637 76.7303,-140.4637 19.403,0 81.14,68.4076 81.14,89.386 0,11.8573 -15.8752,32.8356 -38.8061,52.9019 -59.0911,51.0777 -62.6189,65.6713 -35.2783,148.6725 22.049,63.8472 22.9309,77.5287 18.5211,174.2115 -13.2293,282.7518 -157.8703,767.9898 -316.6226,1061.6868 -19.403,35.572 -57.3272,100.331 -82.904,143.2 -26.4587,42.868 -47.6256,81.177 -47.6256,83.001 0,2.736 27.3406,6.385 59.973,9.121 49.3896,2.736 74.9664,10.945 144.641,45.605 155.2245,77.529 289.282,180.596 289.282,223.465 0,22.803 -1.7639,22.803 -46.7438,19.154 -58.2091,-4.56 -148.1688,-49.253 -162.2801,-81.177 -14.9932,-31.011 -37.0422,-51.078 -67.9107,-59.287 -22.9309,-5.472 -24.6948,-4.56 -18.5211,13.682 7.0557,24.627 -5.2917,24.627 -85.5498,3.648 -50.2716,-13.681 -66.1468,-13.681 -101.4251,-4.56 -47.6257,12.769 -99.6612,62.023 -99.6612,93.946 0,32.836 -16.7571,52.902 -53.7994,62.935 l -36.1602,10.034 6.1737,51.077 6.1737,51.078 -31.7505,-6.385 c -29.1045,-5.472 -33.5143,-3.648 -47.6256,20.979 -15.8753,30.099 -18.5211,31.923 -33.5144,20.978 z" id="path7621" style="fill: rgb(6, 0, 0); fill-opacity: 0.972549; stroke: rgb(0, 0, 0); stroke-width: 33.6339; stroke-miterlimit: 4; stroke-opacity: 0.97015;" inkscape:connector-curvature="0" class="PwYWqsqA_6"></path>
    <path d="m 9713.6846,11610.721 c -27.3406,-16.418 -62.6189,-62.935 -54.6813,-70.232 1.7639,-2.737 38.8061,-5.473 82.022,-6.385 68.7927,-1.824 85.5499,-5.473 137.5853,-31.923 63.501,-32.836 79.3762,-32.836 124.3564,0 36.16,27.363 30.868,47.429 -21.1674,74.792 -36.1602,18.242 -52.9174,21.89 -83.7859,17.33 -28.2226,-3.649 -49.3896,0 -82.022,14.593 -53.7994,23.715 -67.9107,23.715 -102.3071,1.825 z" id="path7623" style="fill: rgb(6, 0, 0); fill-opacity: 0.972549; stroke: rgb(0, 0, 0); stroke-width: 33.6339; stroke-miterlimit: 4; stroke-opacity: 0.97015;" inkscape:connector-curvature="0" class="PwYWqsqA_7"></path>
    <path d="m 8086.4736,11581.533 c -63.5009,-25.538 -151.6966,-47.429 -312.2128,-76.616 -205.496,-37.396 -187.8569,-111.277 21.167,-85.738 156.9884,19.154 302.5113,74.793 357.1926,136.816 53.7994,62.022 37.9242,68.407 -66.1468,25.538 z" id="path7625" style="fill: rgb(6, 0, 0); fill-opacity: 0.972549; stroke: rgb(0, 0, 0); stroke-width: 33.6339; stroke-miterlimit: 4; stroke-opacity: 0.97015;" inkscape:connector-curvature="0" class="PwYWqsqA_8"></path>
    <path d="m 8654.4541,11457.488 c -32.6324,-13.682 -44.0979,-13.682 -98.7792,-2.737 -74.9664,14.594 -120.8282,9.121 -180.8013,-21.89 -53.7993,-27.363 -120.8281,-83.001 -120.8281,-101.244 0,-37.396 110.2447,-43.78 196.6765,-11.857 66.1467,24.627 152.5786,25.539 261.0593,3.649 138.4673,-27.363 202.8501,-13.682 238.1284,50.165 17.6392,32.836 7.9376,51.99 -40.57,73.88 -56.4453,26.451 -201.0862,31.924 -254.8856,10.034 z" id="path7627" style="fill: rgb(6, 0, 0); fill-opacity: 0.972549; stroke: rgb(0, 0, 0); stroke-width: 33.6339; stroke-miterlimit: 4; stroke-opacity: 0.97015;" inkscape:connector-curvature="0" class="PwYWqsqA_9"></path>
    <path d="m 8655.336,11238.583 c -112.8905,-6.385 -360.7205,-39.22 -436.5688,-57.462 -114.6544,-28.275 -131.4116,-42.869 -185.211,-164.179 -3.5278,-7.296 -30.8685,-27.363 -62.6189,-43.78 -178.1554,-98.507 -202.8502,-123.134 -156.1065,-148.673 96.1334,-53.814 321.9144,93.034 345.7272,223.465 11.4655,62.023 43.2159,72.968 266.3511,92.122 236.3645,20.978 329.852,42.869 329.852,77.529 0,16.418 -18.5211,29.187 -37.9242,25.539 -6.1737,-0.912 -34.3963,-2.737 -63.5009,-4.561 z" id="path7629" style="fill: rgb(6, 0, 0); fill-opacity: 0.972549; stroke: rgb(0, 0, 0); stroke-width: 33.6339; stroke-miterlimit: 4; stroke-opacity: 0.97015;" inkscape:connector-curvature="0" class="PwYWqsqA_10"></path>
    <path d="m 7857.1648,10620.178 -110.2447,-20.066 -0.8819,-29.187 c 0,-39.221 -20.285,-50.166 -72.3205,-41.957 -62.619,9.121 -114.6545,30.099 -164.0441,64.759 -70.5565,49.254 -79.3761,40.133 -53.7993,-49.253 15.8752,-55.639 50.2715,-100.332 89.9596,-116.749 97.8972,-42.869 343.0813,38.308 441.8605,145.936 25.5768,27.363 45.8618,54.726 45.8618,59.287 0,14.593 -51.1535,10.945 -176.3914,-12.77 z" id="path7631" style="fill: rgb(6, 0, 0); fill-opacity: 0.972549; stroke: rgb(0, 0, 0); stroke-width: 33.6339; stroke-miterlimit: 4; stroke-opacity: 0.97015;" inkscape:connector-curvature="0" class="PwYWqsqA_11"></path>
    <path d="m 6007.7006,10103.929 c -141.9951,-31.924 -185.211,-48.342 -171.0997,-66.584 7.9376,-9.121 42.3339,-13.681 131.4116,-16.418 l 120.8281,-2.736 79.3762,-39.2205 c 44.0978,-21.8904 174.6275,-104.8917 291.0458,-184.2446 312.2129,-213.4318 357.1927,-235.3222 357.1927,-176.9477 0,35.572 -24.6948,72.056 -65.2648,95.7707 -41.452,23.7146 -188.7389,129.5184 -328.9701,235.3222 -153.4605,114.9249 -258.4134,183.3329 -279.5804,182.4209 -9.7015,-0.913 -70.5566,-12.77 -134.9394,-27.363 z" id="path7633" style="fill: rgb(6, 0, 0); fill-opacity: 0.972549; stroke: rgb(0, 0, 0); stroke-width: 33.6339; stroke-miterlimit: 4; stroke-opacity: 0.97015;" inkscape:connector-curvature="0" class="PwYWqsqA_12"></path>
    <path d="m 8924.333,10122.171 c -60.8551,-3.649 -284.8722,-13.682 -498.3058,-21.891 -388.0612,-14.594 -621.7799,-27.363 -650.8844,-37.396 -19.4031,-6.385 -10.5835,-21.89 13.2293,-21.89 44.0979,0 2.6459,-10.946 -72.3205,-19.155 -94.3694,-10.033 -223.1351,-51.0774 -227.5449,-72.9679 -1.7639,-12.7694 29.9865,-15.5057 276.9345,-20.0662 636.7731,-13.6815 1290.3034,-5.4726 1347.6306,17.3299 42.3339,16.4179 -16.7572,188.8052 -63.5009,185.1572 -7.9376,-0.913 -64.3829,-4.561 -125.2379,-9.121 z" id="path7635" style="fill: rgb(6, 0, 0); fill-opacity: 0.972549; stroke: rgb(0, 0, 0); stroke-width: 33.6339; stroke-miterlimit: 4; stroke-opacity: 0.97015;" inkscape:connector-curvature="0" class="PwYWqsqA_13"></path>
    <path d="m 3879.5379,10066.532 c -29.1046,-50.165 -14.9933,-97.5946 116.4183,-388.5551 85.5499,-189.7172 121.7101,-281.8394 121.7101,-311.0267 0,-8.2089 21.167,-59.2866 47.6257,-114.9248 29.1046,-61.1108 57.3272,-137.7274 71.4386,-196.1019 28.2226,-111.2764 39.688,-138.6395 80.2581,-182.4203 37.9241,-41.9567 45.8617,-82.0892 52.0354,-269.9822 11.4655,-356.6317 52.0355,-498.0075 161.3982,-570.0636 56.4453,-37.3961 87.3138,-44.6929 209.9058,-52.9019 123.474,-8.2089 150.8147,-20.0662 192.2667,-81.177 23.8128,-34.6599 27.3406,-47.4293 29.9865,-124.0459 2.6459,-56.5503 -0.8819,-110.3643 -10.5835,-157.7936 -7.9376,-40.1324 -14.1113,-85.7375 -14.1113,-101.2433 0,-49.2534 66.1468,-111.2764 118.1823,-111.2764 32.6324,0 47.6257,37.3962 59.0911,142.2879 12.3474,118.5732 4.4098,202.4866 -23.8128,242.6191 -12.3474,16.4178 -23.8129,44.693 -26.4587,63.8471 -7.9377,50.1656 -95.2514,156.8815 -303.3933,372.1375 -175.5095,180.5962 -227.545,243.5312 -247.83,298.2573 -4.4098,13.6815 -12.3474,78.4407 -16.7572,144.1121 -12.3474,175.1235 -52.9174,307.3783 -116.4183,375.7859 -26.4587,28.2751 -27.3407,31.0115 -22.0489,93.9465 6.1737,78.4407 -0.882,101.2433 -39.6881,124.9579 -24.6948,15.5057 -33.5144,29.1873 -52.9175,91.2102 -13.2293,40.1325 -67.0287,166.9146 -119.9461,281.8394 -105.8349,229.8497 -134.0575,300.9936 -134.0575,341.1261 0,40.1327 -16.7572,42.8687 -44.9798,8.2086 -22.9309,-29.187 -25.5768,-30.0991 -39.6881,-15.5054 -15.8752,16.4174 -19.4031,50.1655 -7.9376,96.6825 5.2917,23.715 4.4098,29.188 -7.9376,29.188 -7.9377,0 -22.049,-13.682 -31.7505,-29.188 z" id="path7637" style="fill: rgb(6, 0, 0); fill-opacity: 0.972549; stroke: rgb(0, 0, 0); stroke-width: 33.6339; stroke-miterlimit: 4; stroke-opacity: 0.97015;" inkscape:connector-curvature="0" class="PwYWqsqA_14"></path>
    <path d="m 5665.5012,9982.6189 c -138.4673,-66.5834 -239.0104,-219.8165 -268.115,-406.7974 -26.4587,-166.9146 11.4654,-316.4993 112.0086,-445.1056 45.8617,-57.4625 61.737,-97.5949 80.2581,-207.0471 12.3474,-71.144 54.6813,-161.4421 127.0018,-269.9822 31.7505,-48.3414 60.855,-98.5069 63.5009,-111.2764 3.5278,-14.5936 -1.7639,-47.4293 -13.2293,-83.9133 -14.9933,-45.6051 -16.7572,-63.8472 -9.7016,-71.144 15.8753,-16.4178 54.6814,10.0331 77.6123,52.9019 41.4519,75.7045 25.5767,132.2548 -130.5297,465.1719 -142.8771,305.5541 -201.9682,456.963 -219.6073,562.7668 -12.3474,72.9682 3.5278,158.7057 46.7437,255.3885 34.3963,77.5287 72.3205,126.7821 146.4049,190.6293 38.8061,32.8356 53.7994,52.9019 53.7994,68.4076 0,27.3631 -10.5835,27.3631 -66.1468,0 z" id="path7639" style="fill: rgb(6, 0, 0); fill-opacity: 0.972549; stroke: rgb(0, 0, 0); stroke-width: 33.6339; stroke-miterlimit: 4; stroke-opacity: 0.97015;" inkscape:connector-curvature="0" class="PwYWqsqA_15"></path>
    <path d="m 6040.333,9885.9361 c -16.7572,-31.9235 -2.6459,-53.814 41.452,-66.5834 68.7926,-19.1542 82.9039,-85.7376 33.5143,-162.3541 -12.3474,-19.1542 -22.0489,-44.693 -22.0489,-56.5503 0,-21.8905 24.6948,-51.0777 59.0911,-69.3198 30.8685,-16.4178 109.3627,-11.8573 141.1132,8.2089 58.2092,36.4841 59.0911,82.0892 1.7639,174.2115 -86.4318,137.7273 -224.8991,230.7617 -254.8856,172.3872 z" id="path7641" style="fill: rgb(6, 0, 0); fill-opacity: 0.972549; stroke: rgb(0, 0, 0); stroke-width: 33.6339; stroke-miterlimit: 4; stroke-opacity: 0.97015;" inkscape:connector-curvature="0" class="PwYWqsqA_16"></path>
    <path d="m 9306.2204,9893.2329 c -11.4654,-5.4726 -29.9865,-31.0114 -41.452,-56.5503 -35.2783,-77.5286 -44.9798,-82.0891 -157.8703,-85.7375 l -98.7792,-2.7364 68.7927,41.9567 c 49.3896,30.0994 67.9107,46.5172 66.1467,57.4624 -7.0556,33.7478 -96.1333,5.4727 -286.636,-91.2101 -98.7792,-51.0777 -144.641,-83.0013 -133.1756,-93.9465 8.8196,-9.121 130.5297,-22.8026 207.26,-22.8026 66.1468,0 92.6055,4.5605 140.2312,22.8026 74.9663,29.1872 141.9951,30.0993 174.6275,3.6484 29.9865,-24.6268 27.3407,-53.814 -6.1737,-70.2318 -25.5768,-12.7695 -25.5768,-12.7695 -19.4031,-74.7924 9.7015,-101.2433 -11.4654,-120.3974 -86.4318,-76.6165 -32.6324,18.242 -50.2715,21.8904 -91.7235,20.0662 -73.2025,-3.6484 -70.5566,-25.5388 10.5835,-83.0013 34.3963,-23.7146 82.9039,-62.0229 108.4807,-85.7375 45.8618,-41.0446 171.0997,-186.0688 165.8079,-191.5414 -1.7639,-1.8242 -66.1467,3.6484 -143.759,11.8573 -137.5853,15.5058 -170.2177,13.6816 -170.2177,-4.5605 0,-27.363 328.0881,-94.8586 465.6734,-95.7707 89.9596,-0.9121 91.7235,0 112.8905,24.6268 11.4654,13.6815 21.167,29.1872 21.167,32.8356 0,3.6485 -27.3407,6.3848 -60.8551,6.3848 -58.2092,-0.9121 -62.6189,0.9121 -122.592,42.8687 -102.3071,72.0561 -146.4049,149.5847 -145.523,253.5643 0.882,63.8472 18.5211,124.0459 80.2581,268.1579 34.3964,82.0892 54.6814,150.4968 54.6814,186.9809 0,26.451 -46.7437,72.9681 -72.3205,72.056 -11.4654,0 -29.1046,-4.5605 -39.6881,-10.0331 z" id="path7643" style="fill: rgb(6, 0, 0); fill-opacity: 0.972549; stroke: rgb(0, 0, 0); stroke-width: 33.6339; stroke-miterlimit: 4; stroke-opacity: 0.97015;" inkscape:connector-curvature="0" class="PwYWqsqA_17"></path>
    <path d="m 5788.9752,9458.1604 c -50.2716,-31.9236 -61.737,-52.9019 -60.8551,-108.5401 2.6459,-111.2764 133.1756,-428.6878 216.9615,-525.3706 64.3829,-74.7924 309.567,-261.7732 344.8453,-262.6853 36.1602,-0.9121 62.6189,31.9235 55.5633,68.4076 -14.9933,75.7044 -71.4386,126.7821 -161.3982,146.8484 -141.1131,30.0993 -236.3645,151.4089 -290.1639,368.4891 -26.4587,107.628 -48.5077,248.0917 -41.452,273.6305 5.2917,21.8905 -10.5835,56.5503 -26.4587,56.5503 -6.1737,0 -22.0489,-7.2968 -37.0422,-17.3299 z" id="path7645" style="fill: rgb(6, 0, 0); fill-opacity: 0.972549; stroke: rgb(0, 0, 0); stroke-width: 33.6339; stroke-miterlimit: 4; stroke-opacity: 0.97015;" inkscape:connector-curvature="0" class="PwYWqsqA_18"></path>
    <path d="m 6236.1275,9410.7311 c -112.8905,-50.1656 -186.093,-136.8153 -200.2043,-238.9707 -7.9376,-51.0777 3.5278,-70.2318 40.57,-70.2318 33.5144,0 53.7994,32.8357 61.737,103.0675 7.9376,65.6713 23.8129,85.7376 82.022,96.6828 63.501,11.8573 68.7927,7.2968 62.619,-49.2535 -7.0557,-53.814 0.882,-64.7592 36.1603,-55.6382 44.9798,11.8573 74.0844,147.7605 47.6256,218.9044 -11.4654,32.8357 -48.5076,31.0115 -130.5296,-4.5605 z" id="path7647" style="fill: rgb(6, 0, 0); fill-opacity: 0.972549; stroke: rgb(0, 0, 0); stroke-width: 33.6339; stroke-miterlimit: 4; stroke-opacity: 0.97015;" inkscape:connector-curvature="0" class="PwYWqsqA_19"></path>
    <path d="m 6492.777,9233.7834 c -24.6948,-17.33 -40.57,-75.7045 -33.5144,-121.3096 2.6459,-18.242 17.6392,-80.2649 32.6325,-136.8152 14.1113,-57.4624 24.6948,-105.8038 22.0489,-107.628 -2.6459,-2.7364 -28.2226,7.2968 -58.2092,22.8025 -47.6257,25.5388 -106.7168,37.3962 -106.7168,22.8025 0,-31.0114 115.5364,-145.0241 182.5651,-180.5961 33.5144,-17.3299 82.904,-19.1541 97.8973,-3.6484 16.7572,17.3299 12.3474,62.0229 -12.3474,121.3095 -37.0422,89.386 -40.5701,113.1006 -42.334,238.0586 -0.8819,104.8917 -3.5278,123.1337 -17.6391,139.5515 -20.285,22.8026 -38.8061,24.6268 -64.3829,5.4727 z" id="path7649" style="fill: rgb(6, 0, 0); fill-opacity: 0.972549; stroke: rgb(0, 0, 0); stroke-width: 33.6339; stroke-miterlimit: 4; stroke-opacity: 0.97015;" inkscape:connector-curvature="0" class="PwYWqsqA_20"></path>
    <path d="m 6282.8712,9058.6598 c -14.1113,-8.2089 -39.6881,-24.6267 -54.6813,-37.3962 -82.904,-64.7592 -86.4318,-175.1235 -5.2918,-175.1235 22.9309,0 31.7505,7.2968 55.5633,45.6051 30.8685,49.2535 65.2649,151.4089 58.2092,170.563 -6.1737,15.5058 -21.167,14.5937 -53.7994,-3.6484 z" id="path7651" style="fill: rgb(6, 0, 0); fill-opacity: 0.972549; stroke: rgb(0, 0, 0); stroke-width: 33.6339; stroke-miterlimit: 4; stroke-opacity: 0.97015;" inkscape:connector-curvature="0" class="PwYWqsqA_21"></path>
    <path d="m 9621.0791,8875.3274 c -34.3963,-17.33 -58.2091,-68.4077 -49.3896,-106.7159 7.0557,-28.2752 28.2227,-29.1873 74.0844,-5.4726 76.7303,41.0445 106.7169,101.2432 58.2092,119.4853 -31.7504,12.7694 -47.6257,10.9452 -82.904,-7.2968 z" id="path7653" style="fill: rgb(6, 0, 0); fill-opacity: 0.972549; stroke: rgb(0, 0, 0); stroke-width: 33.6339; stroke-miterlimit: 4; stroke-opacity: 0.97015;" inkscape:connector-curvature="0" class="PwYWqsqA_22"></path>
    <path d="m 9504.6608,8608.0816 c -15.8752,-6.3848 -25.5768,-18.2421 -29.1046,-35.572 -7.9376,-39.2204 17.6391,-176.0357 53.7994,-282.7516 38.8061,-116.749 48.5076,-136.8152 89.9596,-184.2445 l 31.7505,-36.4841 -19.4031,-16.4178 c -33.5143,-28.2752 -209.0238,-53.814 -261.9413,-38.3083 -25.5767,7.2968 -26.4587,9.121 -26.4587,65.6713 0,75.7045 -12.3474,84.8255 -71.4385,53.814 -74.9664,-40.1324 -178.1554,-202.4866 -186.9749,-292.7846 -5.2918,-53.814 10.5835,-58.3745 40.57,-11.8573 17.6391,25.5388 23.8128,29.1872 37.0422,20.9783 12.3474,-8.2089 22.0489,-6.3847 44.9798,9.121 44.9798,28.2752 84.6679,31.9236 165.808,16.4178 104.0709,-20.9783 161.3981,-19.1541 174.6275,3.6484 7.0556,10.0332 32.6324,24.6268 61.737,32.8357 28.2226,8.2089 58.2092,20.0663 67.0287,26.451 24.6948,18.242 53.7994,66.5834 75.8484,125.87 42.3339,117.6611 60.855,134.079 156.9883,134.079 149.0509,0 273.4069,30.0993 288.3999,68.4076 11.466,31.9236 4.41,82.0892 -16.757,119.4853 -37.924,66.5835 -105.835,100.3312 -116.418,58.3745 -7.056,-26.4509 -29.987,-30.0993 -185.2114,-26.4509 -126.1199,3.6484 -139.3492,1.8242 -141.9951,-11.8573 -1.7639,-9.1211 7.0556,-30.0994 19.403,-46.5172 12.3474,-17.33 22.9309,-35.572 22.9309,-41.0446 0,-13.6815 -74.0844,-14.5936 -97.8972,-1.8242 -14.1113,8.2089 -14.9933,12.7694 -7.0557,29.1872 14.9933,28.2752 5.2918,132.2548 -16.7572,182.4204 -35.2782,83.0013 -81.14,106.7159 -153.4605,79.3529 z" id="path7655" style="fill: rgb(6, 0, 0); fill-opacity: 0.972549; stroke: rgb(0, 0, 0); stroke-width: 33.6339; stroke-miterlimit: 4; stroke-opacity: 0.97015;" inkscape:connector-curvature="0" class="PwYWqsqA_23"></path>
    <path d="m 6745.8987,8411.0676 c -12.3474,-8.2089 -47.6257,-40.1325 -79.3761,-71.144 -74.9664,-74.7923 -119.9462,-97.5949 -199.3223,-103.0675 -81.1401,-5.4726 -134.9395,10.9453 -285.7542,85.7376 -133.1755,65.6713 -185.211,80.265 -185.211,52.9019 0,-24.6267 86.4318,-106.7159 141.9951,-134.079 58.2092,-29.1872 201.0863,-61.1108 276.0526,-61.1108 68.7927,0 141.9951,20.0663 221.3713,59.2866 105.8348,52.9019 174.6275,129.5185 153.4605,170.5631 -10.5835,20.0662 -15.8752,20.0662 -43.2159,0.9121 z" id="path7657" style="fill: rgb(6, 0, 0); fill-opacity: 0.972549; stroke: rgb(0, 0, 0); stroke-width: 33.6339; stroke-miterlimit: 4; stroke-opacity: 0.97015;" inkscape:connector-curvature="0" class="PwYWqsqA_24"></path>
    <path d="m 9131.5929,7742.497 c -13.2294,-43.7809 34.3963,-76.6166 185.211,-127.6943 48.5077,-16.4178 104.071,-39.2203 123.474,-50.1656 49.3896,-30.0993 87.3138,-72.9681 80.2581,-92.1222 -7.0556,-19.1542 -50.2715,-14.5937 -149.9327,16.4178 -36.1602,10.9452 -69.6746,17.3299 -73.2024,13.6815 -2.6459,-3.6484 6.1737,-20.0662 21.1669,-36.484 58.2092,-62.9351 61.737,-94.8586 29.1046,-261.7733 -16.7572,-84.8254 -26.4587,-165.0904 -26.4587,-211.6076 0,-91.2101 -18.5211,-176.9477 -51.1535,-238.0585 -24.6948,-48.3414 -132.2936,-151.4089 -183.4471,-176.9478 -36.1603,-18.242 -71.4385,-9.121 -84.6679,20.9784 -5.2917,12.7694 -20.285,24.6267 -32.6324,27.363 -39.6881,8.209 -94.3694,37.3962 -128.7658,68.4077 -52.9174,48.3414 -145.5229,202.4866 -145.5229,241.7069 0,9.121 12.3474,67.4956 27.3407,129.5185 22.0489,92.1223 27.3406,126.7821 23.8128,178.7719 -7.0556,111.2764 -61.737,195.1898 -156.9884,240.7949 -64.3828,31.9236 -169.3357,33.7478 -229.3088,5.4726 -59.0912,-27.3631 -83.786,-15.5057 -186.975,84.8255 -90.8415,88.4738 -139.3492,121.3095 -180.8012,121.3095 -13.2293,0 -45.8617,6.3847 -72.3205,13.6815 -122.592,33.7478 -175.5094,27.3631 -239.8923,-28.2751 -20.285,-17.33 -67.0288,-45.6051 -103.189,-63.8472 -37.0422,-17.3299 -74.0844,-38.3082 -82.904,-46.5171 -16.7572,-15.5058 -21.167,-70.2319 -7.9376,-92.1223 8.8196,-14.5936 29.1046,-4.5605 145.5229,66.5834 136.7034,83.9134 189.6208,93.0344 291.9279,54.7261 118.1822,-43.7809 152.5786,-83.0012 246.948,-278.191 75.8483,-156.8815 179.0373,-326.5325 234.6006,-383.0828 22.9309,-23.7146 59.9731,-51.0777 82.904,-59.2866 37.9241,-15.5057 40.57,-15.5057 57.3272,0 22.0489,20.0663 22.9309,51.9898 2.6458,70.2319 -8.8195,7.2968 -44.9798,30.0993 -79.3761,51.9898 -65.2648,39.2203 -90.8416,70.2318 -90.8416,113.1006 0,11.8573 -7.0556,35.5719 -14.9933,52.9019 -22.0489,43.7809 -21.1669,130.4305 2.6459,176.9477 33.5144,65.6713 88.1957,90.2981 151.6966,67.4956 22.9309,-8.209 34.3964,-22.8026 59.0912,-74.7924 38.8061,-83.0013 46.7437,-125.87 56.4452,-339.3018 9.7016,-196.1019 17.6392,-231.6739 80.2581,-360.2802 89.0777,-183.3325 202.8502,-320.1478 599.7309,-719.6483 l 268.997,-271.8064 -6.1737,-99.419 c -3.5279,-54.7261 -14.9933,-207.9592 -24.6948,-341.1261 l -17.6392,-240.7949 52.0355,-55.6382 c 133.1755,-141.3757 181.6832,-219.8165 267.233,-428.6878 15.8752,-39.2204 38.8061,-92.1223 51.1535,-116.749 22.049,-45.6051 65.2649,-88.4739 76.7303,-76.6166 12.3474,12.7695 5.2918,147.7605 -10.5835,193.3656 -36.1602,107.628 -77.6122,186.9809 -105.8348,205.2229 -68.7927,43.7809 -134.0575,149.5847 -158.7523,257.2127 -7.0557,31.9236 -17.6392,145.9363 -22.049,253.5643 -16.7571,365.7528 -32.6324,477.9413 -85.5498,590.1298 -22.0489,46.5172 -33.5144,58.3745 -95.2514,100.3312 -127.0018,84.8255 -138.4673,100.3312 -101.4251,134.9911 16.7572,15.5057 23.8129,15.5057 86.4318,6.3847 161.3982,-26.451 392.471,-91.2102 604.1404,-169.6509 128.766,-48.3414 201.087,-72.0561 205.496,-66.5835 10.584,10.9453 -22.931,76.6166 -51.153,100.3312 -65.265,53.814 -410.1103,186.0688 -911.0619,349.335 -175.5095,56.5503 -321.9144,112.1885 -321.9144,121.3095 0,3.6484 50.2715,31.9236 112.8905,62.9351 145.5229,72.056 167.5719,92.1222 213.4336,190.6292 41.452,90.2981 63.501,169.6509 84.6679,299.1694 30.8685,197.9261 61.737,287.312 134.9395,387.6432 76.7303,104.8917 67.9107,178.772 -33.5144,276.3669 -52.9174,51.0777 -159.6342,108.5401 -209.0238,111.2764 -21.167,1.8242 -61.737,16.4178 -96.1334,35.572 -68.7926,37.3961 -80.2581,39.2203 -88.1957,14.5936 z" id="path7659" style="fill: rgb(6, 0, 0); fill-opacity: 0.972549; stroke: rgb(0, 0, 0); stroke-width: 33.6339; stroke-miterlimit: 4; stroke-opacity: 0.97015;" inkscape:connector-curvature="0" class="PwYWqsqA_25"></path>
    <path d="m 4974.9287,7272.7646 c -221.3712,-88.4739 -424.2214,-236.2344 -568.8624,-414.0942 -155.2244,-191.5414 -247.8299,-371.2254 -328.088,-639.3833 -32.6324,-108.5402 -69.6746,-163.2663 -150.8147,-220.7287 -87.3138,-63.8471 -110.2447,-103.0675 -108.4807,-193.3655 l 1.7639,-64.7593 8.8195,70.2319 7.9377,70.2318 120.8281,65.6713 c 197.5584,107.628 215.1975,124.0459 225.781,208.8713 14.9933,114.0127 116.4184,365.7528 189.6208,470.6445 51.1535,72.9682 227.545,252.6522 310.449,316.4993 82.9039,63.8472 162.2801,108.5402 186.9749,104.8917 29.9865,-4.5605 28.2226,-68.4076 -7.0557,-213.4318 -60.855,-251.74 -100.5431,-514.4254 -77.6122,-514.4254 35.2783,0 249.5939,743.363 263.7052,914.8381 6.1737,71.1439 7.0556,71.1439 -74.9664,38.3083 z" id="path7661" style="fill: rgb(6, 0, 0); fill-opacity: 0.972549; stroke: rgb(0, 0, 0); stroke-width: 33.6339; stroke-miterlimit: 4; stroke-opacity: 0.97015;" inkscape:connector-curvature="0" class="PwYWqsqA_26"></path>
    <path d="m 7416.1862,7170.6092 c 0,-23.7147 13.2293,-60.1987 88.1957,-240.7949 32.6324,-77.5286 30.8685,-99.4191 -6.1737,-99.4191 -30.8685,0 -98.7792,-40.1324 -161.3982,-95.7707 -69.6746,-62.935 -160.5162,-169.6509 -155.2244,-184.2445 2.6458,-6.3847 -2.6459,-32.8357 -12.3474,-58.3745 -20.285,-52.9019 -22.9309,-108.5401 -5.2918,-143.2 22.049,-44.693 32.6324,-123.1337 40.5701,-302.8178 8.8195,-198.8382 14.9932,-232.5859 40.57,-232.5859 29.9865,0 49.3896,82.0891 51.1535,214.3439 0.882,100.3312 -1.7639,121.3095 -21.167,177.8598 -19.403,54.7261 -22.0489,79.3529 -22.0489,177.8599 0,104.8917 1.7639,118.5732 23.8129,166.0025 28.2226,63.8471 86.4318,124.9579 149.9327,159.6178 37.9241,20.0662 58.2091,24.6267 109.3627,24.6267 137.5853,0 242.5382,-99.419 321.0324,-304.6419 12.3474,-32.8357 14.1113,-45.6051 6.1737,-45.6051 -5.2918,0.9121 -42.334,27.363 -81.1401,60.1987 -86.4318,72.056 -151.6966,106.7159 -204.6141,107.628 -44.9798,0.9121 -64.3828,-17.3299 -64.3828,-61.1108 0,-47.4293 13.2293,-58.3745 85.5498,-75.7045 37.9242,-8.2089 71.4386,-17.3299 75.8483,-19.1541 6.1737,-3.6484 -21.1669,-47.4293 -65.2648,-104.8917 -10.5835,-12.7694 -15.8752,-28.2752 -13.2294,-33.7478 15.8753,-25.5388 188.7389,-1.8242 320.1505,44.693 103.189,36.4841 110.2447,43.7809 63.5009,67.4955 -62.6189,32.8357 -133.1755,180.5962 -106.7168,224.3771 14.9933,25.5388 13.2294,36.484 -6.1737,36.484 -23.8128,0 -111.1266,101.2433 -191.3847,224.3771 -172.8636,262.6853 -231.0728,341.126 -250.4758,341.126 -5.2918,0 -8.8196,-10.9452 -8.8196,-24.6267 z" id="path7663" style="fill: rgb(6, 0, 0); fill-opacity: 0.972549; stroke: rgb(0, 0, 0); stroke-width: 33.6339; stroke-miterlimit: 4; stroke-opacity: 0.97015;" inkscape:connector-curvature="0" class="PwYWqsqA_27"></path>
    <path d="m 8104.1128,6356.1023 c 0,-6.3847 13.2293,-30.0993 29.9865,-53.814 15.8753,-22.8025 33.5144,-51.0777 38.8061,-62.0229 18.5211,-35.572 36.1603,-176.9477 63.501,-499.8318 14.9932,-175.1235 29.1046,-324.7082 30.8685,-330.1808 7.0556,-21.8904 39.688,-12.7694 49.3896,13.6815 20.285,51.9898 8.8195,421.391 -19.4031,622.0534 -20.285,149.5847 -60.855,246.2675 -121.7101,290.9605 -31.7504,23.7146 -71.4385,33.7477 -71.4385,19.1541 z" id="path7665" style="fill: rgb(6, 0, 0); fill-opacity: 0.972549; stroke: rgb(0, 0, 0); stroke-width: 33.6339; stroke-miterlimit: 4; stroke-opacity: 0.97015;" inkscape:connector-curvature="0" class="PwYWqsqA_28"></path>
    <path d="m 7468.2217,6112.5711 c -14.9933,-17.3299 -22.049,-237.1464 -8.8196,-257.2127 20.285,-31.0114 65.2648,24.6268 65.2648,82.0892 0,20.9783 -6.1737,42.8688 -14.9933,52.9019 -16.7571,19.1541 -17.6391,31.0115 -8.8195,94.8586 4.4098,34.6599 3.5278,42.8688 -7.0557,42.8688 -7.9376,0 -19.403,-6.3847 -25.5767,-15.5058 z" id="path7667" style="fill: rgb(6, 0, 0); fill-opacity: 0.972549; stroke: rgb(0, 0, 0); stroke-width: 33.6339; stroke-miterlimit: 4; stroke-opacity: 0.97015;" inkscape:connector-curvature="0" class="PwYWqsqA_29"></path>
    <path d="m 8653.5721,5986.7011 c -50.2715,-31.9236 -99.6612,-131.3427 -105.8349,-216.1681 -4.4097,-53.814 -2.6458,-61.1108 18.5211,-85.7376 l 22.9309,-26.4509 17.6392,21.8904 c 14.9933,18.242 17.6391,32.8357 15.8752,91.2102 -2.6459,68.4076 -1.7639,71.1439 39.6881,145.0242 56.4452,101.2433 55.5633,109.4522 -8.8196,70.2318 z" id="path7669" style="fill: rgb(6, 0, 0); fill-opacity: 0.972549; stroke: rgb(0, 0, 0); stroke-width: 33.6339; stroke-miterlimit: 4; stroke-opacity: 0.97015;" inkscape:connector-curvature="0" class="PwYWqsqA_30"></path>
    <path d="m 6683.2798,5982.1406 c 0,-2.7363 -3.5279,-41.0446 -7.0557,-84.8255 -5.2917,-57.4624 -11.4654,-87.5617 -24.6948,-104.8917 -10.5835,-15.5057 -63.5009,-48.3414 -138.4673,-86.6496 -96.1333,-49.2535 -133.1755,-74.7924 -180.8012,-120.3975 -119.9462,-117.6611 -145.5229,-204.3108 -177.2734,-601.9871 -5.2917,-64.7593 -15.8752,-154.1452 -23.8128,-197.014 -14.1113,-81.1771 -12.3474,-108.5401 8.8195,-108.5401 26.4588,0 50.2716,103.9796 72.3205,314.6751 37.0422,362.1044 59.0912,449.6662 133.1756,533.5795 104.9529,116.749 280.4624,155.0573 320.1504,69.3197 10.5835,-23.7146 9.7016,-31.0114 -8.8195,-77.5286 -18.5211,-44.693 -21.167,-64.7592 -20.2851,-160.5299 0,-145.9363 19.4031,-215.256 52.0355,-186.9809 37.9242,31.9236 67.0288,361.1923 50.2716,563.6789 -9.7016,121.3095 -29.9866,225.2892 -46.7438,243.5312 -4.4097,4.5605 -7.9376,6.3847 -8.8195,4.5605 z" id="path7671" style="fill: rgb(6, 0, 0); fill-opacity: 0.972549; stroke: rgb(0, 0, 0); stroke-width: 33.6339; stroke-miterlimit: 4; stroke-opacity: 0.97015;" inkscape:connector-curvature="0" class="PwYWqsqA_31"></path>
    <path d="m 7162.1825,5761.412 c -6.1737,-6.3847 -10.5835,-19.1542 -10.5835,-29.1873 0,-28.2751 61.737,-166.0025 117.3003,-262.6853 54.6814,-93.9465 79.3762,-125.87 99.6612,-125.87 37.9242,0 18.5211,86.6496 -31.7505,136.8152 -37.0422,37.3962 -52.9174,81.1771 -52.9174,146.8484 0,22.8026 -4.4098,54.7261 -9.7015,71.1439 -8.8196,25.5389 -13.2294,28.2752 -35.2783,23.7147 -21.167,-4.5605 -26.4587,-1.8242 -38.8061,21.8904 -14.9933,31.0115 -22.049,33.7478 -37.9242,17.33 z" id="path7673" style="fill: rgb(6, 0, 0); fill-opacity: 0.972549; stroke: rgb(0, 0, 0); stroke-width: 33.6339; stroke-miterlimit: 4; stroke-opacity: 0.97015;" inkscape:connector-curvature="0" class="PwYWqsqA_32"></path>
    <path d="m 9118.3635,5714.8948 c 0,-37.3962 82.0221,-228.9376 107.5988,-250.828 22.9309,-19.1541 37.0422,1.8242 30.8685,47.4293 -5.2917,37.3962 -4.4098,41.9567 11.4655,41.9567 26.4587,0 77.6122,-52.9019 89.0776,-92.1223 12.3474,-41.0446 22.049,-45.6051 27.3407,-12.7694 10.5835,53.814 -61.737,145.0241 -182.5651,231.6738 -67.0288,48.3414 -83.786,54.7261 -83.786,34.6599 z" id="path7675" style="fill: rgb(6, 0, 0); fill-opacity: 0.972549; stroke: rgb(0, 0, 0); stroke-width: 33.6339; stroke-miterlimit: 4; stroke-opacity: 0.97015;" inkscape:connector-curvature="0" class="PwYWqsqA_33"></path>
    <path d="m 4408.7122,5661.0808 c 0,-31.0115 137.5853,-267.2458 373.0679,-640.2955 200.2043,-318.3235 311.3309,-483.4139 402.1725,-598.3387 113.7724,-143.2 154.3425,-185.1567 175.5094,-178.772 12.3474,4.5606 21.167,-0.9121 30.8685,-16.4178 37.0422,-58.3745 231.9548,-169.6509 389.8251,-222.5528 166.6899,-56.5503 635.0092,-106.7159 693.2184,-74.7924 8.8195,5.4727 16.7571,18.2421 16.7571,28.2752 0,30.0994 -49.3896,44.693 -156.1064,45.6051 -152.5786,0 -278.6984,12.7694 -304.2752,30.0993 -14.9933,10.0332 -64.3829,19.1542 -156.1064,28.2752 -73.2025,7.2968 -140.2312,16.4178 -147.2869,20.9783 -7.9376,4.5605 -18.5211,17.33 -23.8128,30.0994 -7.9376,15.5057 -19.4031,21.8904 -41.452,23.7146 -39.6881,3.6484 -148.1688,58.3746 -176.3914,89.386 -11.4655,12.7694 -22.049,31.9236 -22.049,42.8688 0,14.5936 -9.7015,22.8025 -38.8061,32.8357 -59.0911,20.0662 -197.5584,166.9146 -241.6562,255.3884 -18.5211,37.3962 -63.501,113.1007 -100.5432,168.7389 -261.0593,394.94 -510.6532,756.1323 -608.5504,884.7387 -45.8618,59.2866 -64.3829,73.8802 -64.3829,50.1656 z" id="path7677" style="fill: rgb(6, 0, 0); fill-opacity: 0.972549; stroke: rgb(0, 0, 0); stroke-width: 33.6339; stroke-miterlimit: 4; stroke-opacity: 0.97015;" inkscape:connector-curvature="0" class="PwYWqsqA_34"></path>
    <path d="m 10716.47,5195.9089 c -19.403,-25.5389 -101.425,-205.2229 -169.336,-373.0496 -39.688,-97.5949 -134.057,-320.1478 -209.906,-496.1834 -248.712,-581.0088 -312.213,-770.726 -257.531,-770.726 22.931,0 61.737,62.935 93.487,149.5847 44.98,124.0458 108.481,276.3668 204.614,488.8866 195.795,433.2483 362.485,890.2113 363.367,996.9272 0,18.242 -11.466,20.0662 -24.695,4.5605 z" id="path7679" style="fill: rgb(6, 0, 0); fill-opacity: 0.972549; stroke: rgb(0, 0, 0); stroke-width: 33.6339; stroke-miterlimit: 4; stroke-opacity: 0.97015;" inkscape:connector-curvature="0" class="PwYWqsqA_35"></path>
    <path d="m 9538.1752,4824.6835 c -11.4655,-18.2421 -47.6257,-217.0803 -58.2092,-320.1478 -14.1113,-129.5184 -7.0557,-303.7298 16.7572,-424.1273 9.7015,-50.1656 40.57,-166.9146 67.0287,-259.949 97.0153,-329.2687 131.4116,-529.019 93.4875,-529.019 -14.1113,0 -45.8618,99.4191 -75.8483,239.8828 -40.5701,184.2445 -55.5633,236.2343 -68.7927,231.6738 -17.6391,-6.3847 -9.7015,-196.1019 14.9933,-345.6865 38.8061,-232.586 84.6679,-418.6548 149.9327,-601.9872 141.1131,-397.6764 99.6612,-707.791 -132.2936,-999.6635 -76.7303,-96.6828 -164.926,-176.9478 -321.0324,-291.8726 -158.7523,-116.749 -289.2819,-248.0917 -245.1841,-248.0917 11.4655,0 140.2312,89.386 262.8233,182.4204 73.2024,55.6382 125.2379,86.6496 201.9681,122.2216 10.5835,5.4726 56.4453,43.7809 100.5432,86.6497 82.022,77.5286 112.0085,100.3312 182.5651,140.4637 70.5566,39.2203 113.7725,134.991 132.2936,289.1362 11.4654,99.4191 11.4654,545.4369 0,652.1528 -13.2294,118.5732 -22.049,147.7604 -47.6257,154.1452 -29.1046,7.2968 -55.5633,54.7261 -73.2025,128.6063 -13.2293,54.7261 -13.2293,73.8803 -3.5278,165.0904 9.7015,92.1223 8.8196,109.4522 -4.4098,159.6178 -12.3474,43.7809 -13.2293,59.2866 -5.2917,72.9682 19.403,31.9235 10.5835,134.991 -29.1046,340.2139 -74.9664,390.3796 -81.1401,456.963 -73.2024,803.5617 1.7639,62.0229 -2.6459,85.7375 -26.4588,155.0573 -29.1045,83.9133 -47.6257,114.9248 -58.2091,96.6828 z" id="path7681" style="fill: rgb(6, 0, 0); fill-opacity: 0.972549; stroke: rgb(0, 0, 0); stroke-width: 33.6339; stroke-miterlimit: 4; stroke-opacity: 0.97015;" inkscape:connector-curvature="0" class="PwYWqsqA_36"></path>
    <path d="m 10268.436,4800.9688 c -56.446,-62.935 -105.835,-198.8382 -115.537,-324.7082 -6.173,-76.6166 0.882,-108.5401 23.813,-108.5401 29.987,0 44.98,39.2204 53.8,138.6395 7.055,83.9133 11.465,103.0674 47.625,178.7719 37.924,83.0013 51.154,147.7605 29.987,147.7605 -6.174,0 -23.813,-14.5936 -39.688,-31.9236 z" id="path7683" style="fill: rgb(6, 0, 0); fill-opacity: 0.972549; stroke: rgb(0, 0, 0); stroke-width: 33.6339; stroke-miterlimit: 4; stroke-opacity: 0.97015;" inkscape:connector-curvature="0" class="PwYWqsqA_37"></path>
    <path d="m 10983.703,4686.9561 c -7.938,-16.4178 -16.757,-72.056 -22.049,-141.3758 -14.993,-197.9261 -79.376,-446.0177 -199.322,-757.9565 -102.307,-268.158 -178.156,-422.3031 -327.206,-660.3617 -77.613,-124.9579 -95.252,-164.1783 -72.321,-164.1783 14.111,0 108.481,103.0675 163.162,177.8598 202.85,279.1032 388.943,728.7693 457.736,1105.4674 18.521,101.2432 48.508,362.1043 48.508,419.5668 0,41.9566 -2.646,48.3414 -17.64,48.3414 -10.583,0 -22.93,-10.9453 -30.868,-27.3631 z" id="path7685" style="fill: rgb(6, 0, 0); fill-opacity: 0.972549; stroke: rgb(0, 0, 0); stroke-width: 33.6339; stroke-miterlimit: 4; stroke-opacity: 0.97015;" inkscape:connector-curvature="0" class="PwYWqsqA_38"></path>
    <path d="m 11272.985,4306.6097 c -8.82,-34.6599 -6.174,-354.8076 3.528,-394.028 10.583,-45.6051 26.458,-44.693 38.806,0.9121 12.347,47.4293 5.292,331.0929 -9.702,383.9948 -11.465,40.1325 -23.813,43.7809 -32.632,9.1211 z" id="path7687" style="fill: rgb(6, 0, 0); fill-opacity: 0.972549; stroke: rgb(0, 0, 0); stroke-width: 33.6339; stroke-miterlimit: 4; stroke-opacity: 0.97015;" inkscape:connector-curvature="0" class="PwYWqsqA_39"></path>
    <path d="m 6518.3538,3808.6021 c -33.5144,-36.4841 -66.1468,-124.0458 -69.6746,-187.893 -6.1737,-102.1554 33.5143,-158.7057 143.759,-201.5744 57.3272,-21.8905 118.1822,-24.6268 118.1822,-5.4727 0,7.2969 -15.8752,25.5389 -34.3963,41.9567 -44.9798,36.4841 -100.5431,122.2217 -115.5364,177.8599 -9.7015,35.5719 -9.7015,56.5503 -1.7639,105.8038 14.9933,88.4738 0,114.0127 -40.57,69.3197 z" id="path7689" style="fill: rgb(6, 0, 0); fill-opacity: 0.972549; stroke: rgb(0, 0, 0); stroke-width: 33.6339; stroke-miterlimit: 4; stroke-opacity: 0.97015;" inkscape:connector-curvature="0" class="PwYWqsqA_40"></path>
    <path d="m 6782.059,3228.5054 c -19.4031,-12.7694 -5.2918,-48.3414 57.3272,-145.0242 167.5719,-256.3006 412.7559,-535.4037 339.5535,-385.819 -22.0489,43.7809 -214.3156,341.126 -284.8722,439.633 -74.0844,103.0675 -82.9039,110.3643 -112.0085,91.2102 z" id="path7691" style="fill: rgb(6, 0, 0); fill-opacity: 0.972549; stroke: rgb(0, 0, 0); stroke-width: 33.6339; stroke-miterlimit: 4; stroke-opacity: 0.97015;" inkscape:connector-curvature="0" class="PwYWqsqA_41"></path>
    <path d="m 11776.582,2377.5144 c -22.048,-36.484 -6.173,-352.9833 31.751,-628.4381 22.931,-162.3541 37.042,-206.135 74.084,-221.6407 34.397,-14.5936 52.918,-55.6382 67.911,-148.6726 22.931,-147.7605 36.16,-209.7834 50.272,-239.8827 13.229,-28.2752 18.521,-31.9236 50.271,-31.9236 h 35.278 l 2.646,47.4293 c 1.764,35.572 -15.875,126.7821 -73.202,364.8407 -42.334,174.2114 -89.96,383.0827 -106.717,463.3477 -59.973,288.2241 -67.911,320.1477 -86.432,360.2802 -19.403,42.8688 -34.396,53.814 -45.862,34.6598 z" id="path7693" style="fill: rgb(6, 0, 0); fill-opacity: 0.972549; stroke: rgb(0, 0, 0); stroke-width: 33.6339; stroke-miterlimit: 4; stroke-opacity: 0.97015;" inkscape:connector-curvature="0" class="PwYWqsqA_42"></path>
    <path d="m 7654.3146,1907.782 c 0,-32.8356 7.0557,-47.4292 47.6257,-106.7159 9.7015,-13.6815 18.5211,-50.1656 23.8129,-92.1222 8.8195,-82.0892 18.5211,-104.8917 48.5076,-104.8917 55.5633,0 41.452,111.2764 -29.1046,229.8496 -40.57,68.4076 -70.5566,107.628 -83.7859,107.628 -3.5278,0 -7.0557,-15.5057 -7.0557,-33.7478 z" id="path7695" style="fill: rgb(6, 0, 0); fill-opacity: 0.972549; stroke: rgb(0, 0, 0); stroke-width: 33.6339; stroke-miterlimit: 4; stroke-opacity: 0.97015;" inkscape:connector-curvature="0" class="PwYWqsqA_43"></path>
    <path d="m 10132.614,1814.7477 c 0,-41.0446 85.55,-266.3337 166.69,-441.4573 84.668,-181.5082 144.641,-263.5974 181.683,-249.0038 21.167,8.209 15.876,43.7809 -16.757,121.3096 -29.986,71.1439 -52.035,143.1999 -61.737,203.3987 -3.528,20.9783 -18.521,44.6929 -43.216,70.2318 -20.285,20.9783 -68.792,90.2981 -107.599,154.1452 -37.924,64.7592 -76.73,124.0458 -85.549,133.1668 -17.64,18.2421 -33.515,21.8905 -33.515,8.209 z" id="path7697" style="fill: rgb(6, 0, 0); fill-opacity: 0.972549; stroke: rgb(0, 0, 0); stroke-width: 33.6339; stroke-miterlimit: 4; stroke-opacity: 0.97015;" inkscape:connector-curvature="0" class="PwYWqsqA_44"></path>
    <path d="m 10022.37,1647.833 c -7.056,-18.242 -17.64,-21.8904 -66.1471,-26.4509 -64.3829,-5.4726 -98.7792,-21.8904 -133.1756,-60.1987 -59.9731,-66.5835 -48.5076,-93.0344 20.285,-49.2535 56.4453,36.4841 64.3829,29.1872 63.501,-51.9898 -0.882,-88.4739 -16.7572,-145.0242 -66.1468,-230.7618 -23.8129,-41.9566 -43.2159,-83.9133 -43.2159,-92.1222 0,-43.7809 84.6679,9.121 142.877,88.4738 69.6744,94.8586 122.5924,248.0917 120.8284,345.6866 -1.764,82.0892 -20.285,119.4853 -38.806,76.6165 z" id="path7699" style="fill: rgb(6, 0, 0); fill-opacity: 0.972549; stroke: rgb(0, 0, 0); stroke-width: 33.6339; stroke-miterlimit: 4; stroke-opacity: 0.97015;" inkscape:connector-curvature="0" class="PwYWqsqA_45"></path>
    <g id="g8339" transform="matrix(2.0692304,0,0,1.7532986,987.44398,601.5072)" style="fill:#000000;stroke:#000000;stroke-opacity:0.97014962">
      <path id="path8323" d="m 1327,1290 c -43,-34 -61,-97 -55,-195 l 6,-85 h -27 c -26,0 -68,-23 -83,-44 -27,-38 14,-106 64,-106 37,0 76,35 84,75 3,19 12,35 18,35 18,0 56,-44 56,-64 0,-23 -53,-123 -85,-159 l -25,-28 -50,27 c -28,15 -68,43 -91,62 l -40,34 -55,-36 c -59,-40 -90,-81 -100,-135 -6,-28 -3,-38 16,-53 21,-17 60,-25 60,-13 0,3 -12,16 -27,29 l -27,23 26,44 c 25,43 80,92 102,92 6,0 43,-22 81,-48 39,-27 71,-49 72,-50 1,0 -5,-21 -15,-47 -19,-54 -8,-91 32,-110 43,-19 136,33 136,76 0,23 -41,68 -73,79 -15,6 -13,12 19,54 94,122 96,200 9,252 -25,15 -37,31 -45,63 -17,61 -8,138 20,177 20,30 27,33 58,27 52,-8 84,-45 92,-106 4,-35 2,-56 -7,-69 -10,-16 -10,-21 2,-31 11,-9 17,-6 31,15 38,58 -1,186 -67,221 -39,20 -82,18 -112,-6 z m -41,-355 c -14,-55 -96,-55 -96,0 0,25 10,31 70,37 29,3 34,-4 26,-37 z m 54,-289 c 50,-23 33,-55 -41,-76 -24,-7 -29,-5 -39,19 -8,19 -8,35 0,55 11,29 22,29 80,2 z" inkscape:connector-curvature="0" style="stroke:#000000;stroke-opacity:0.97014962" class="PwYWqsqA_46"></path>
      <path id="path8325" d="m 2726,1219 c -9,-13 -16,-28 -16,-34 0,-9 -114,-327 -135,-377 -4,-10 -3,-18 3,-18 15,0 148,269 172,349 20,65 21,74 7,88 -13,13 -16,12 -31,-8 z" inkscape:connector-curvature="0" style="stroke:#000000;stroke-opacity:0.97014962" class="PwYWqsqA_47"></path>
      <path id="path8327" d="m 1871,1138 c -88,-119 -93,-173 -19,-218 l 31,-19 -35,-14 c -41,-17 -78,-61 -78,-91 0,-28 49,-75 118,-113 l 53,-30 -71,-51 c -68,-50 -80,-65 -61,-76 18,-11 161,105 161,131 0,7 -19,25 -42,39 -117,72 -134,88 -121,119 7,20 68,51 116,60 20,4 37,11 37,15 0,4 -23,19 -50,34 -94,51 -96,78 -15,192 40,56 46,74 24,74 -5,0 -26,-24 -48,-52 z" inkscape:connector-curvature="0" style="stroke:#000000;stroke-opacity:0.97014962" class="PwYWqsqA_48"></path>
      <path id="path8329" d="m 220,1093 c -12,-32 -27,-83 -32,-113 -9,-49 -8,-62 10,-102 16,-38 30,-52 70,-72 56,-29 92,-68 92,-101 0,-28 -73,-121 -109,-140 -25,-12 -31,-12 -62,7 -19,11 -53,38 -76,61 -36,35 -43,38 -49,23 -5,-12 4,-28 27,-52 79,-81 141,-97 202,-50 62,48 97,103 97,156 0,59 -19,84 -85,115 -95,45 -108,97 -61,234 30,87 31,91 12,91 -8,0 -24,-24 -36,-57 z" inkscape:connector-curvature="0" style="stroke:#000000;stroke-opacity:0.97014962" class="PwYWqsqA_49"></path>
      <path id="path8331" d="m 2253,903 c -8,-3 -9,-12 -3,-31 20,-58 70,-344 70,-395 0,-99 -72,-167 -178,-167 -80,0 -94,45 -33,104 35,34 56,29 66,-14 8,-36 29,-35 33,1 4,32 -31,69 -66,69 -51,0 -121,-94 -108,-145 8,-30 47,-45 120,-45 51,0 70,5 108,29 59,38 90,83 96,140 5,52 -63,421 -82,444 -6,8 -16,13 -23,10 z" inkscape:connector-curvature="0" style="stroke:#000000;stroke-opacity:0.97014962" class="PwYWqsqA_50"></path>
      <path id="path8333" d="m 2903,873 c -8,-3 -13,-24 -13,-57 0,-65 -24,-160 -50,-196 -47,-65 -127,-65 -259,3 -98,50 -135,50 -77,-1 72,-63 123,-85 206,-90 62,-4 85,-1 122,16 l 45,20 7,-67 c 7,-81 23,-131 41,-131 23,0 24,11 10,125 -9,73 -12,155 -8,241 6,127 2,146 -24,137 z m -15,-278 c -2,-9 -8,-12 -16,-6 -12,7 -12,12 0,30 10,17 14,18 16,6 2,-8 2,-22 0,-30 z" inkscape:connector-curvature="0" style="stroke:#000000;stroke-opacity:0.97014962" class="PwYWqsqA_51"></path>
      <path id="path8335" d="m 580,818 c -51,-35 -73,-71 -78,-131 -3,-41 1,-63 17,-95 27,-54 52,-66 129,-65 74,2 143,36 167,83 41,79 24,172 -37,210 -48,29 -153,28 -198,-2 z m 159,-19 c 56,-20 80,-109 44,-169 -37,-64 -168,-95 -212,-51 -50,50 -44,140 14,198 27,27 40,33 78,33 24,0 58,-5 76,-11 z" inkscape:connector-curvature="0" style="stroke:#000000;stroke-opacity:0.97014962" class="PwYWqsqA_52"></path>
      <path id="path8337" d="m 2716,400 c -15,-27 -31,-52 -36,-55 -4,-3 -18,11 -30,30 -30,49 -50,58 -97,42 -50,-16 -59,-56 -16,-77 15,-8 30,-15 32,-17 2,-1 -11,-14 -28,-28 -40,-35 -40,-62 1,-79 31,-13 66,-9 104,12 12,7 13,11 4,17 -6,4 -17,2 -23,-4 -13,-13 -66,-14 -84,-3 -9,6 -3,18 22,42 19,19 35,38 35,42 0,5 -16,18 -35,29 -38,23 -36,41 6,52 21,6 27,0 76,-61 l 26,-33 23,22 c 13,12 26,30 30,41 9,30 19,21 38,-35 18,-53 18,-54 -3,-94 -11,-23 -48,-76 -82,-118 -34,-42 -58,-79 -54,-83 15,-15 159,174 172,226 3,15 -3,49 -16,86 -12,33 -21,69 -21,79 0,30 -16,18 -44,-33 z" inkscape:connector-curvature="0" style="stroke:#000000;stroke-opacity:0.97014962" class="PwYWqsqA_53"></path>
    </g>
  </g>
<style data-made-with="vivus-instant">.PwYWqsqA_0{stroke-dasharray:15997 15999;stroke-dashoffset:15998;}.start .PwYWqsqA_0{animation:PwYWqsqA_draw 5000ms ease-in-out 0ms forwards;}.PwYWqsqA_1{stroke-dasharray:635 637;stroke-dashoffset:636;}.start .PwYWqsqA_1{animation:PwYWqsqA_draw 5000ms ease-in-out 0ms forwards;}.PwYWqsqA_2{stroke-dasharray:1332 1334;stroke-dashoffset:1333;}.start .PwYWqsqA_2{animation:PwYWqsqA_draw 5000ms ease-in-out 0ms forwards;}.PwYWqsqA_3{stroke-dasharray:564 566;stroke-dashoffset:565;}.start .PwYWqsqA_3{animation:PwYWqsqA_draw 5000ms ease-in-out 0ms forwards;}.PwYWqsqA_4{stroke-dasharray:681 683;stroke-dashoffset:682;}.start .PwYWqsqA_4{animation:PwYWqsqA_draw 5000ms ease-in-out 0ms forwards;}.PwYWqsqA_5{stroke-dasharray:401 403;stroke-dashoffset:402;}.start .PwYWqsqA_5{animation:PwYWqsqA_draw 5000ms ease-in-out 0ms forwards;}.PwYWqsqA_6{stroke-dasharray:7870 7872;stroke-dashoffset:7871;}.start .PwYWqsqA_6{animation:PwYWqsqA_draw 5000ms ease-in-out 0ms forwards;}.PwYWqsqA_7{stroke-dasharray:840 842;stroke-dashoffset:841;}.start .PwYWqsqA_7{animation:PwYWqsqA_draw 5000ms ease-in-out 0ms forwards;}.PwYWqsqA_8{stroke-dasharray:1213 1215;stroke-dashoffset:1214;}.start .PwYWqsqA_8{animation:PwYWqsqA_draw 5000ms ease-in-out 0ms forwards;}.PwYWqsqA_9{stroke-dasharray:1546 1548;stroke-dashoffset:1547;}.start .PwYWqsqA_9{animation:PwYWqsqA_draw 5000ms ease-in-out 0ms forwards;}.PwYWqsqA_10{stroke-dasharray:2252 2254;stroke-dashoffset:2253;}.start .PwYWqsqA_10{animation:PwYWqsqA_draw 5000ms ease-in-out 0ms forwards;}.PwYWqsqA_11{stroke-dasharray:1465 1467;stroke-dashoffset:1466;}.start .PwYWqsqA_11{animation:PwYWqsqA_draw 5000ms ease-in-out 0ms forwards;}.PwYWqsqA_12{stroke-dasharray:2317 2319;stroke-dashoffset:2318;}.start .PwYWqsqA_12{animation:PwYWqsqA_draw 5000ms ease-in-out 0ms forwards;}.PwYWqsqA_13{stroke-dasharray:3525 3527;stroke-dashoffset:3526;}.start .PwYWqsqA_13{animation:PwYWqsqA_draw 5000ms ease-in-out 0ms forwards;}.PwYWqsqA_14{stroke-dasharray:6427 6429;stroke-dashoffset:6428;}.start .PwYWqsqA_14{animation:PwYWqsqA_draw 5000ms ease-in-out 0ms forwards;}.PwYWqsqA_15{stroke-dasharray:3682 3684;stroke-dashoffset:3683;}.start .PwYWqsqA_15{animation:PwYWqsqA_draw 5000ms ease-in-out 0ms forwards;}.PwYWqsqA_16{stroke-dasharray:1136 1138;stroke-dashoffset:1137;}.start .PwYWqsqA_16{animation:PwYWqsqA_draw 5000ms ease-in-out 0ms forwards;}.PwYWqsqA_17{stroke-dasharray:4639 4641;stroke-dashoffset:4640;}.start .PwYWqsqA_17{animation:PwYWqsqA_draw 5000ms ease-in-out 0ms forwards;}.PwYWqsqA_18{stroke-dasharray:2359 2361;stroke-dashoffset:2360;}.start .PwYWqsqA_18{animation:PwYWqsqA_draw 5000ms ease-in-out 0ms forwards;}.PwYWqsqA_19{stroke-dasharray:1280 1282;stroke-dashoffset:1281;}.start .PwYWqsqA_19{animation:PwYWqsqA_draw 5000ms ease-in-out 0ms forwards;}.PwYWqsqA_20{stroke-dasharray:1511 1513;stroke-dashoffset:1512;}.start .PwYWqsqA_20{animation:PwYWqsqA_draw 5000ms ease-in-out 0ms forwards;}.PwYWqsqA_21{stroke-dasharray:618 620;stroke-dashoffset:619;}.start .PwYWqsqA_21{animation:PwYWqsqA_draw 5000ms ease-in-out 0ms forwards;}.PwYWqsqA_22{stroke-dasharray:469 471;stroke-dashoffset:470;}.start .PwYWqsqA_22{animation:PwYWqsqA_draw 5000ms ease-in-out 0ms forwards;}.PwYWqsqA_23{stroke-dasharray:4072 4074;stroke-dashoffset:4073;}.start .PwYWqsqA_23{animation:PwYWqsqA_draw 5000ms ease-in-out 0ms forwards;}.PwYWqsqA_24{stroke-dasharray:1860 1862;stroke-dashoffset:1861;}.start .PwYWqsqA_24{animation:PwYWqsqA_draw 5000ms ease-in-out 0ms forwards;}.PwYWqsqA_25{stroke-dasharray:16388 16390;stroke-dashoffset:16389;}.start .PwYWqsqA_25{animation:PwYWqsqA_draw 5000ms ease-in-out 0ms forwards;}.PwYWqsqA_26{stroke-dasharray:5622 5624;stroke-dashoffset:5623;}.start .PwYWqsqA_26{animation:PwYWqsqA_draw 5000ms ease-in-out 0ms forwards;}.PwYWqsqA_27{stroke-dasharray:5535 5537;stroke-dashoffset:5536;}.start .PwYWqsqA_27{animation:PwYWqsqA_draw 5000ms ease-in-out 0ms forwards;}.PwYWqsqA_28{stroke-dasharray:2067 2069;stroke-dashoffset:2068;}.start .PwYWqsqA_28{animation:PwYWqsqA_draw 5000ms ease-in-out 0ms forwards;}.PwYWqsqA_29{stroke-dasharray:623 625;stroke-dashoffset:624;}.start .PwYWqsqA_29{animation:PwYWqsqA_draw 5000ms ease-in-out 0ms forwards;}.PwYWqsqA_30{stroke-dasharray:806 808;stroke-dashoffset:807;}.start .PwYWqsqA_30{animation:PwYWqsqA_draw 5000ms ease-in-out 0ms forwards;}.PwYWqsqA_31{stroke-dasharray:4094 4096;stroke-dashoffset:4095;}.start .PwYWqsqA_31{animation:PwYWqsqA_draw 5000ms ease-in-out 0ms forwards;}.PwYWqsqA_32{stroke-dasharray:1036 1038;stroke-dashoffset:1037;}.start .PwYWqsqA_32{animation:PwYWqsqA_draw 5000ms ease-in-out 0ms forwards;}.PwYWqsqA_33{stroke-dasharray:1015 1017;stroke-dashoffset:1016;}.start .PwYWqsqA_33{animation:PwYWqsqA_draw 5000ms ease-in-out 0ms forwards;}.PwYWqsqA_34{stroke-dasharray:5854 5856;stroke-dashoffset:5855;}.start .PwYWqsqA_34{animation:PwYWqsqA_draw 5000ms ease-in-out 0ms forwards;}.PwYWqsqA_35{stroke-dasharray:3595 3597;stroke-dashoffset:3596;}.start .PwYWqsqA_35{animation:PwYWqsqA_draw 5000ms ease-in-out 0ms forwards;}.PwYWqsqA_36{stroke-dasharray:8965 8967;stroke-dashoffset:8966;}.start .PwYWqsqA_36{animation:PwYWqsqA_draw 5000ms ease-in-out 0ms forwards;}.PwYWqsqA_37{stroke-dasharray:1028 1030;stroke-dashoffset:1029;}.start .PwYWqsqA_37{animation:PwYWqsqA_draw 5000ms ease-in-out 0ms forwards;}.PwYWqsqA_38{stroke-dasharray:3831 3833;stroke-dashoffset:3832;}.start .PwYWqsqA_38{animation:PwYWqsqA_draw 5000ms ease-in-out 0ms forwards;}.PwYWqsqA_39{stroke-dasharray:931 933;stroke-dashoffset:932;}.start .PwYWqsqA_39{animation:PwYWqsqA_draw 5000ms ease-in-out 0ms forwards;}.PwYWqsqA_40{stroke-dasharray:1114 1116;stroke-dashoffset:1115;}.start .PwYWqsqA_40{animation:PwYWqsqA_draw 5000ms ease-in-out 0ms forwards;}.PwYWqsqA_41{stroke-dasharray:1451 1453;stroke-dashoffset:1452;}.start .PwYWqsqA_41{animation:PwYWqsqA_draw 5000ms ease-in-out 0ms forwards;}.PwYWqsqA_42{stroke-dasharray:2729 2731;stroke-dashoffset:2730;}.start .PwYWqsqA_42{animation:PwYWqsqA_draw 5000ms ease-in-out 0ms forwards;}.PwYWqsqA_43{stroke-dasharray:777 779;stroke-dashoffset:778;}.start .PwYWqsqA_43{animation:PwYWqsqA_draw 5000ms ease-in-out 0ms forwards;}.PwYWqsqA_44{stroke-dasharray:1613 1615;stroke-dashoffset:1614;}.start .PwYWqsqA_44{animation:PwYWqsqA_draw 5000ms ease-in-out 0ms forwards;}.PwYWqsqA_45{stroke-dasharray:1538 1540;stroke-dashoffset:1539;}.start .PwYWqsqA_45{animation:PwYWqsqA_draw 5000ms ease-in-out 0ms forwards;}.PwYWqsqA_46{stroke-dasharray:4521 4523;stroke-dashoffset:4522;}.start .PwYWqsqA_46{animation:PwYWqsqA_draw 5000ms ease-in-out 0ms forwards;}.PwYWqsqA_47{stroke-dasharray:985 987;stroke-dashoffset:986;}.start .PwYWqsqA_47{animation:PwYWqsqA_draw 5000ms ease-in-out 0ms forwards;}.PwYWqsqA_48{stroke-dasharray:1979 1981;stroke-dashoffset:1980;}.start .PwYWqsqA_48{animation:PwYWqsqA_draw 5000ms ease-in-out 0ms forwards;}.PwYWqsqA_49{stroke-dasharray:1968 1970;stroke-dashoffset:1969;}.start .PwYWqsqA_49{animation:PwYWqsqA_draw 5000ms ease-in-out 0ms forwards;}.PwYWqsqA_50{stroke-dasharray:2248 2250;stroke-dashoffset:2249;}.start .PwYWqsqA_50{animation:PwYWqsqA_draw 5000ms ease-in-out 0ms forwards;}.PwYWqsqA_51{stroke-dasharray:1974 1976;stroke-dashoffset:1975;}.start .PwYWqsqA_51{animation:PwYWqsqA_draw 5000ms ease-in-out 0ms forwards;}.PwYWqsqA_52{stroke-dasharray:1868 1870;stroke-dashoffset:1869;}.start .PwYWqsqA_52{animation:PwYWqsqA_draw 5000ms ease-in-out 0ms forwards;}.PwYWqsqA_53{stroke-dasharray:2198 2200;stroke-dashoffset:2199;}.start .PwYWqsqA_53{animation:PwYWqsqA_draw 5000ms ease-in-out 0ms forwards;}@keyframes PwYWqsqA_draw{100%{stroke-dashoffset:0;}}@keyframes PwYWqsqA_fade{0%{stroke-opacity:1;}86.11111111111111%{stroke-opacity:1;}100%{stroke-opacity:0;}}</style></svg>
