<!--?xml version="1.0" encoding="UTF-8" standalone="no"?-->
<svg xmlns:dc="http://purl.org/dc/elements/1.1/" xmlns:cc="http://creativecommons.org/ns#" xmlns:rdf="http://www.w3.org/1999/02/22-rdf-syntax-ns#" xmlns:svg="http://www.w3.org/2000/svg" xmlns="http://www.w3.org/2000/svg" xmlns:sodipodi="http://sodipodi.sourceforge.net/DTD/sodipodi-0.dtd" xmlns:inkscape="http://www.inkscape.org/namespaces/inkscape" version="1.0" width="552.51715pt" height="606.31475pt" viewBox="0 0 1105.0343 1212.6295" preserveAspectRatio="xMidYMid meet" id="svg7703" sodipodi:docname="vamsi_animated1.svg" inkscape:version="0.92.3 (2405546, 2018-03-11)" style="">
  <defs id="defs7707"></defs>
  <sodipodi:namedview pagecolor="#ffffff" bordercolor="#666666" borderopacity="1" objecttolerance="10" gridtolerance="10" guidetolerance="10" inkscape:pageopacity="0" inkscape:pageshadow="2" inkscape:window-width="1920" inkscape:window-height="1013" id="namedview7705" showgrid="false" showborder="false" inkscape:snap-global="false" inkscape:zoom="0.44890511" inkscape:cx="712.61227" inkscape:cy="490.95481" inkscape:window-x="-9" inkscape:window-y="-9" inkscape:window-maximized="1" inkscape:current-layer="g7701" fit-margin-top="0" fit-margin-left="0" fit-margin-right="0" fit-margin-bottom="0"></sodipodi:namedview>
  <metadata id="metadata7607">
Created by potrace 1.16, written by Peter Selinger 2001-2019
<rdf:rdf>
  <cc:work rdf:about="">
    <dc:format>image/svg+xml</dc:format>
    <dc:type rdf:resource="http://purl.org/dc/dcmitype/StillImage"></dc:type>
    <dc:title></dc:title>
  </cc:work>
</rdf:rdf>
</metadata>
  <g transform="matrix(0.1,0,0,-0.1,-105.5408,1274.7956)" id="g7701" style="fill:#000800;fill-opacity:1;stroke:#051905;stroke-width:60;stroke-miterlimit:4;stroke-opacity:0.97014926">
    <path d="m 7679.8807,9606.725 c -8.6054,-2.0311 -33.76,-18.2814 -54.9427,-36.5628 -60.9005,-51.4576 -133.7163,-99.5303 -209.8418,-138.8011 -67.5201,-33.854 -186.0111,-77.1875 -211.8276,-77.1875 -7.2816,0 -36.4079,14.2186 -64.8723,31.823 -113.1953,69.062 -192.6307,96.8222 -274.7139,96.8222 -60.2385,0 -106.5757,-13.5416 -144.3076,-41.3018 -25.8164,-19.6354 -27.8023,-22.3434 -24.4925,-45.3646 3.3098,-18.9584 12.5772,-32.5 39.0557,-56.1974 43.0275,-39.2708 42.3656,-39.9478 -52.2949,-87.3434 -55.6048,-27.7603 -78.1115,-44.0106 -113.8573,-79.8956 -74.1398,-76.5106 -100.6182,-150.9894 -98.6323,-275.5726 0.662,-56.1974 -1.3239,-74.4788 -13.9012,-106.3018 -7.9436,-20.9894 -19.8589,-45.3639 -26.4785,-54.1664 -10.5914,-12.8646 -13.9012,-13.5416 -22.5066,-6.7708 -8.6055,7.4478 -11.2534,6.7708 -17.211,-4.7398 -5.9577,-10.1558 -19.8589,-86.6664 -20.5209,-110.3638 0,-12.8646 -23.8305,-25.7292 -45.6753,-25.7292 -23.8306,0 -31.1121,-6.0938 -124.4487,-102.9161 -122.4628,-127.9689 -136.364,-153.0204 -139.6738,-249.1663 l -2.6478,-64.323 -34.422,-44.0098 c -78.7734,-100.208 -103.928,-155.7292 -80.0973,-176.0416 9.2674,-8.1248 13.2391,-6.0938 31.7741,16.9274 106.5757,130.6769 174.0958,232.916 202.5601,306.7178 39.7177,100.208 46.3373,109.0098 160.1946,224.7912 115.1813,117.1346 144.9696,155.7284 166.1524,212.6036 7.2815,18.9583 20.5208,44.6868 29.7882,57.5514 25.1545,33.177 39.0557,76.5106 51.633,159.7912 19.1969,122.5522 40.3796,165.885 97.9703,199.739 25.1545,14.8963 43.0275,20.3131 67.52,20.3131 57.5907,0 97.3083,37.2391 106.5758,100.208 6.6196,43.3329 -7.9436,98.8533 -31.7741,127.2912 l -20.5209,23.6975 19.197,-4.7391 c 28.4642,-6.7708 108.5616,-45.3646 173.4338,-83.2813 106.5757,-62.2913 191.3068,-77.1876 267.4323,-48.0726 19.1969,7.4478 57.5907,18.9583 84.7311,26.4062 27.1404,6.7708 67.5201,20.9894 89.3648,30.4682 52.9568,24.3752 152.2511,93.4372 225.0668,156.4062 66.8581,57.5521 115.8432,79.2186 146.9554,64.9999 22.5068,-10.8335 16.549,-21.6671 -22.5066,-41.3025 -19.1969,-9.4788 -34.422,-18.9577 -35.084,-21.6664 -0.6619,-10.8329 73.4777,-27.0832 135.7021,-30.4683 47.6612,-2.0317 92.0126,0.677 157.5468,10.8329 50.971,8.1248 122.4628,14.2186 159.5326,14.2186 81.4213,0 114.5193,-9.4788 381.2898,-111.7179 99.9561,-38.5937 198.5883,-74.4795 218.4472,-80.5733 23.8306,-6.7708 89.3648,-12.8639 186.0111,-16.9266 205.208,-9.4796 279.3477,-26.4062 364.7407,-83.9584 20.5208,-14.2186 54.2808,-29.7912 75.4636,-35.885 20.5208,-5.4168 52.9569,-18.2814 71.4918,-28.4373 42.3656,-23.0211 117.1671,-97.4999 135.0401,-134.7397 l 14.5631,-28.4372 19.8589,10.1565 c 28.4643,14.8957 84.0691,18.9577 127.7586,9.4789 20.5208,-4.0628 37.7318,-10.1559 37.7318,-12.1876 0,-2.708 -5.9577,-8.8018 -13.9012,-13.5416 -23.8306,-15.5726 -8.6055,-16.9267 19.8588,-2.031 53.6189,28.4372 123.1248,12.8646 164.8287,-36.5628 28.464,-32.5 35.746,-52.8124 35.084,-95.4682 v -35.2081 l 37.069,37.2391 c 37.732,37.9168 93.337,77.8646 125.111,90.0522 27.803,10.8328 42.366,2.708 42.366,-23.6982 0,-12.1876 4.633,-27.7602 10.591,-33.177 13.901,-14.8956 47.661,-13.5416 73.478,2.0317 46.337,29.1143 32.436,64.3223 -43.69,111.7179 -68.844,42.6566 -104.59,48.0733 -129.082,20.9901 -9.268,-10.1565 -17.211,-23.6981 -17.211,-29.1149 0,-6.0938 -9.93,1.354 -23.831,17.6044 -45.675,54.8434 -97.97,75.1558 -234.334,92.7602 -101.9421,12.8645 -161.5186,30.4682 -200.5744,58.9061 -16.549,12.1869 -62.2243,46.0416 -101.28,75.1559 -124.4488,92.0832 -219.1092,136.77 -332.3046,157.0831 -32.4361,5.4161 -133.0542,14.8957 -223.7429,20.3124 -156.2229,10.1559 -270.0803,24.3745 -307.1501,38.5931 -8.6055,3.3858 -35.7459,19.6354 -59.5765,35.2087 -165.4903,111.7179 -339.5862,153.6975 -543.4703,132.708 -84.069,-8.8025 -89.3647,-8.8025 -193.2927,8.8019 -99.2941,16.9266 -195.2785,22.3434 -242.2778,13.5416 z" id="path7609" style="fill:#060000;fill-opacity:0.97254938;stroke:#000000;stroke-width:25.10545158;stroke-miterlimit:4;stroke-opacity:0.97014962" inkscape:connector-curvature="0" class="rNLqsgeo_0"></path>
    <path d="m 8578.1622,9288.4966 c -13.2392,-15.5726 -25.1545,-52.8124 -25.1545,-77.1869 0,-23.0211 2.6479,-23.6981 24.4925,-6.0938 23.8307,18.9577 31.1122,17.6037 56.9288,-14.2186 31.1121,-36.5627 45.0133,-33.8547 56.9286,12.1869 11.2533,43.3336 7.2816,56.1982 -18.5349,56.1982 -14.5632,0 -23.1686,5.4167 -33.76,20.3124 -16.5491,23.6974 -45.0134,27.7602 -60.9005,8.8018 z" id="path7611" style="fill:#060000;fill-opacity:0.97254938;stroke:#000000;stroke-width:25.10545158;stroke-miterlimit:4;stroke-opacity:0.97014962" inkscape:connector-curvature="0" class="rNLqsgeo_1"></path>
    <path d="m 6936.4982,9178.1327 c -5.9577,-4.0627 -18.5349,-20.3124 -27.8024,-36.5627 -11.9153,-20.9894 -26.4785,-34.531 -47.6612,-45.3646 -38.3937,-18.2807 -140.9978,-122.5514 -175.4198,-177.3949 -37.7317,-59.5832 -33.098,-94.7919 10.5914,-83.2813 23.8306,6.0938 58.2526,39.9478 114.5193,111.7186 27.8024,35.885 75.4636,92.0831 105.9138,125.9372 65.5342,71.093 76.7875,87.3434 71.4918,101.562 -3.9717,11.5106 -34.4219,13.5416 -51.6329,3.3857 z" id="path7613" style="fill:#060000;fill-opacity:0.97254938;stroke:#000000;stroke-width:25.10545158;stroke-miterlimit:4;stroke-opacity:0.97014962" inkscape:connector-curvature="0" class="rNLqsgeo_2"></path>
    <path d="m 8936.9453,9065.0601 c 0,-3.3857 8.6054,-14.8963 19.8588,-24.3751 25.8165,-23.6982 30.4502,-44.6876 17.211,-83.2814 -5.9576,-17.6036 -9.2675,-33.854 -7.2816,-35.208 4.6338,-5.4168 47.6612,31.146 66.8581,56.1981 21.8447,29.1143 19.1969,41.9789 -14.5631,66.354 -26.4785,18.9577 -82.0832,33.177 -82.0832,20.3124 z" id="path7615" style="fill:#060000;fill-opacity:0.97254938;stroke:#000000;stroke-width:25.10545158;stroke-miterlimit:4;stroke-opacity:0.97014962" inkscape:connector-curvature="0" class="rNLqsgeo_3"></path>
    <path d="m 9747.8478,8898.4981 c -24.4925,-11.5105 -78.1114,-70.4167 -74.1396,-81.2503 1.3239,-5.4161 15.8871,-8.1248 39.0557,-7.4478 30.4502,0.677 50.3091,7.4478 115.1813,39.9478 76.1255,37.2398 78.1114,39.2708 58.9145,44.6876 -37.7317,11.5105 -117.829,14.2186 -139.0119,4.0627 z" id="path7617" style="fill:#060000;fill-opacity:0.97254938;stroke:#000000;stroke-width:25.10545158;stroke-miterlimit:4;stroke-opacity:0.97014962" inkscape:connector-curvature="0" class="rNLqsgeo_4"></path>
    <path d="m 9434.7402,8851.7795 c -3.3098,-4.7397 -9.9295,-21.6671 -13.9012,-37.2397 -15.2251,-58.9062 19.1968,-83.9584 59.5765,-43.3336 22.5067,23.6982 24.4926,46.0416 5.2957,71.0938 -14.5632,18.9584 -39.7177,23.0211 -50.971,9.4795 z" id="path7619" style="fill:#060000;fill-opacity:0.97254938;stroke:#000000;stroke-width:25.10545158;stroke-miterlimit:4;stroke-opacity:0.97014962" inkscape:connector-curvature="0" class="rNLqsgeo_5"></path>
    <path d="m 9839.8605,8834.1752 c -21.8447,-14.8957 -27.1405,-55.5205 -7.2816,-55.5205 15.2251,0 24.4926,-16.2503 31.7742,-58.2291 8.6054,-48.7504 20.5208,-72.4478 52.9569,-109.0106 14.5631,-16.2496 25.8165,-31.8223 25.8165,-35.885 0,-4.7398 -19.197,-5.4168 -56.2668,-2.7081 -66.1961,5.4161 -76.1255,0 -76.1255,-38.5937 0,-29.792 13.9012,-42.6566 54.2809,-49.4274 46.9992,-8.8018 125.1106,-79.8956 184.0249,-169.27 11.916,-18.2814 46.338,-86.6664 76.126,-152.3434 30.45,-65.677 82.745,-178.7496 117.829,-251.1974 34.422,-72.4478 64.21,-138.1241 66.858,-146.2496 3.972,-12.8646 1.324,-14.8956 -26.478,-18.9584 -17.211,-2.031 -48.986,-4.062 -71.492,-4.062 -75.464,0 -202.56,-46.7186 -202.56,-74.4789 0,-9.4795 5.957,-14.2186 25.154,-16.9273 60.901,-10.8336 82.083,-21.6664 187.997,-98.1768 l 30.45,-22.3437 -23.168,-54.8436 c -58.915,-136.7705 -93.337,-268.8013 -99.294,-376.4573 -2.648,-50.7811 -1.324,-67.031 6.619,-77.8643 9.93,-13.5417 9.93,-13.5417 29.126,0.6771 9.93,7.4478 27.803,27.0832 38.394,42.6561 17.211,25.052 19.859,34.5311 18.535,67.0311 -1.324,44.0102 9.268,92.083 39.056,175.364 l 20.521,57.552 25.154,-79.8956 c 25.817,-79.8956 39.056,-104.2706 57.591,-104.2706 14.563,0 60.9,50.7811 60.9,66.354 0,8.802 -11.915,24.3749 -29.126,39.2707 -44.351,37.9166 -46.999,48.7499 -26.479,110.3642 16.55,47.3958 17.211,57.552 13.902,129.3226 -9.93,209.8955 -118.491,570.1027 -237.644,788.123 -14.564,26.4062 -43.028,74.4789 -62.225,106.3018 -19.859,31.8223 -35.746,60.2603 -35.746,61.6143 0,2.031 20.521,4.7397 45.014,6.7708 37.069,2.031 56.266,8.1248 108.561,33.854 116.505,57.5521 217.124,134.062 217.124,165.885 0,16.9273 -1.324,16.9273 -35.084,14.2186 -43.69,-3.3851 -111.21,-36.5621 -121.801,-60.2602 -11.254,-23.0205 -27.803,-37.9168 -50.971,-44.0106 -17.211,-4.062 -18.535,-3.385 -13.901,10.1566 5.295,18.2813 -3.972,18.2813 -64.211,2.708 -37.731,-10.1558 -49.647,-10.1558 -76.125,-3.385 -35.746,9.4788 -74.8019,46.0416 -74.8019,69.739 0,24.3752 -12.5772,39.2708 -40.3796,46.7186 l -27.1404,7.4485 4.6337,37.9161 4.6337,37.9168 -23.8306,-4.7398 c -21.8447,-4.0621 -25.1545,-2.708 -35.7458,15.5733 -11.9154,22.3435 -13.9012,23.6975 -25.1546,15.5727 z" id="path7621" style="fill:#060000;fill-opacity:0.97254938;stroke:#000000;stroke-width:25.10545158;stroke-miterlimit:4;stroke-opacity:0.97014962" inkscape:connector-curvature="0" class="rNLqsgeo_6"></path>
    <path d="m 10310.515,8779.3317 c -20.521,-12.1875 -46.999,-46.7186 -41.042,-52.1353 1.324,-2.0318 29.127,-4.0628 61.563,-4.7398 51.633,-1.354 64.21,-4.0628 103.266,-23.6975 47.661,-24.3751 59.576,-24.3751 93.337,0 27.14,20.3124 23.168,35.2081 -15.888,55.5205 -27.14,13.5416 -39.717,16.2496 -62.886,12.8646 -21.183,-2.7088 -37.07,0 -61.562,10.8328 -40.38,17.6044 -50.972,17.6044 -76.788,1.3547 z" id="path7623" style="fill:#060000;fill-opacity:0.97254938;stroke:#000000;stroke-width:25.10545158;stroke-miterlimit:4;stroke-opacity:0.97014962" inkscape:connector-curvature="0" class="rNLqsgeo_7"></path>
    <path d="m 9089.1963,8757.6646 c -47.6612,-18.9577 -113.8573,-35.208 -234.3342,-56.8744 -154.237,-27.7603 -140.9978,-82.6044 15.887,-63.646 117.8292,14.2186 227.0528,55.5211 268.0943,101.5627 40.3797,46.0409 28.4644,50.7807 -49.6471,18.9577 z" id="path7625" style="fill:#060000;fill-opacity:0.97254938;stroke:#000000;stroke-width:25.10545158;stroke-miterlimit:4;stroke-opacity:0.97014962" inkscape:connector-curvature="0" class="rNLqsgeo_8"></path>
    <path d="m 9515.4995,8665.5821 c -24.4926,-10.1565 -33.0981,-10.1565 -74.1397,-2.0317 -56.2667,10.8336 -90.6887,6.7708 -135.7021,-16.2496 -40.3796,-20.3125 -90.6887,-61.6143 -90.6887,-75.1566 0,-27.7602 82.7452,-32.4993 147.6174,-8.8018 49.647,18.2814 114.5193,18.9584 195.9405,2.7087 103.928,-20.3124 152.2511,-10.1565 178.7296,37.2391 13.2392,24.3752 5.9576,38.5938 -30.4502,54.8434 -42.3656,19.6354 -150.9272,23.6982 -191.3068,7.4485 z" id="path7627" style="fill:#060000;fill-opacity:0.97254938;stroke:#000000;stroke-width:25.10545158;stroke-miterlimit:4;stroke-opacity:0.97014962" inkscape:connector-curvature="0" class="rNLqsgeo_9"></path>
    <path d="m 9516.1614,8503.0822 c -84.731,-4.7398 -270.7422,-29.1143 -327.6709,-42.6559 -86.0549,-20.9894 -98.6322,-31.8229 -139.0118,-121.8751 -2.6479,-5.4161 -23.1687,-20.3124 -46.9992,-32.4993 -133.7163,-73.1248 -152.2512,-91.4061 -117.1672,-110.3645 72.1538,-39.9478 241.6159,69.062 259.4888,165.885 8.6055,46.0416 32.4361,54.1664 199.9123,68.385 177.4056,15.5726 247.5736,31.823 247.5736,57.5522 0,12.1875 -13.9012,21.6664 -28.4644,18.9583 -4.6337,-0.677 -25.8165,-2.0317 -47.6612,-3.3857 z" id="path7629" style="fill:#060000;fill-opacity:0.97254938;stroke:#000000;stroke-width:25.10545158;stroke-miterlimit:4;stroke-opacity:0.97014962" inkscape:connector-curvature="0" class="rNLqsgeo_10"></path>
    <path d="m 8917.0864,8044.021 -82.7452,-14.8956 -0.6619,-21.6665 c 0,-29.1149 -15.2251,-37.2397 -54.2808,-31.1459 -46.9993,6.7708 -86.055,22.3434 -123.1249,48.0726 -52.9568,36.5627 -59.5765,29.7919 -40.3795,-36.5621 11.9152,-41.3025 37.7317,-74.4795 67.52,-86.6664 73.4777,-31.8229 257.5029,28.4373 331.6426,108.3329 19.1969,20.3124 34.422,40.6248 34.422,44.0105 0,10.8329 -38.3938,8.1249 -132.3923,-9.4795 z" id="path7631" style="fill:#060000;fill-opacity:0.97254938;stroke:#000000;stroke-width:25.10545158;stroke-miterlimit:4;stroke-opacity:0.97014962" inkscape:connector-curvature="0" class="rNLqsgeo_11"></path>
    <path d="m 7528.9536,7660.7933 c -106.5758,-23.6981 -139.0119,-35.8857 -128.4205,-49.4273 5.9576,-6.7708 31.7741,-10.1559 98.6322,-12.1876 l 90.6887,-2.031 59.5765,-29.1146 c 33.098,-16.25 131.0683,-77.8644 218.4472,-136.7705 234.3344,-158.437 268.0944,-174.687 268.0944,-131.3538 0,26.4062 -18.5349,53.4894 -48.9851,71.0936 -31.1122,17.6041 -141.6598,96.1455 -246.9117,174.687 -115.1812,85.3123 -193.9546,136.0936 -209.8417,135.4166 -7.2815,-0.6777 -52.9569,-9.4795 -101.28,-20.3124 z" id="path7633" style="fill:#060000;fill-opacity:0.97254938;stroke:#000000;stroke-width:25.10545158;stroke-miterlimit:4;stroke-opacity:0.97014962" inkscape:connector-curvature="0" class="rNLqsgeo_12"></path>
    <path d="m 9718.0596,7674.3349 c -45.6753,-2.7087 -213.8135,-10.1565 -374.0081,-16.2503 -291.263,-10.8336 -466.6828,-20.3124 -488.5275,-27.7602 -14.5631,-4.7398 -7.9435,-16.2497 9.9294,-16.2497 33.0981,0 1.9859,-8.1255 -54.2808,-14.2193 -70.8299,-7.4478 -167.4762,-37.9164 -170.786,-54.1663 -1.3239,-9.4792 22.5067,-11.5104 207.8558,-14.8958 477.9361,-10.1562 968.4495,-4.0625 1011.4769,12.8645 31.7741,12.1875 -12.5772,140.156 -47.6612,137.4479 -5.9576,-0.6777 -48.3232,-3.3857 -93.9985,-6.7708 z" id="path7635" style="fill:#060000;fill-opacity:0.97254938;stroke:#000000;stroke-width:25.10545158;stroke-miterlimit:4;stroke-opacity:0.97014962" inkscape:connector-curvature="0" class="rNLqsgeo_13"></path>
    <path d="m 5931.6409,7633.0324 c -21.8447,-37.239 -11.2534,-72.4475 87.3789,-288.4365 64.2102,-140.833 91.3506,-209.2181 91.3506,-230.8848 0,-6.0937 15.8871,-44.0103 35.7459,-85.3122 21.8448,-45.3645 43.0275,-102.2393 53.619,-145.5725 21.1827,-82.604 29.7882,-102.9164 60.2384,-135.4163 28.4643,-31.1457 34.422,-60.9373 39.0557,-200.4161 8.6055,-264.7388 39.0557,-369.6864 121.139,-423.1759 42.3655,-27.7603 65.5341,-33.1769 157.5467,-39.2707 92.6746,-6.0937 113.1954,-14.8958 144.3076,-60.2602 17.873,-25.7291 20.5208,-35.2083 22.5067,-92.0831 1.9859,-41.9791 -0.6619,-81.9269 -7.9436,-117.1351 -5.9576,-29.7916 -10.5913,-63.6456 -10.5913,-75.1561 0,-36.5623 49.6471,-82.6039 88.7028,-82.6039 24.4926,0 35.7459,27.7604 44.3514,105.6247 9.2675,88.0206 3.3098,150.3121 -17.8729,180.1037 -9.2675,12.1874 -17.873,33.177 -19.8589,47.3957 -5.9577,37.2395 -71.4918,116.458 -227.7147,276.2492 -131.7303,134.0621 -170.786,180.7807 -186.0111,221.4056 -3.3098,10.1562 -9.2675,58.229 -12.5773,106.9789 -9.2675,129.9996 -39.7177,228.1764 -87.3789,278.9575 -19.8588,20.9895 -20.5208,23.0208 -16.549,69.7394 4.6338,58.229 -0.662,75.1561 -29.7882,92.7602 -18.535,11.5103 -25.1546,21.6666 -39.7178,67.7081 -9.9294,29.7916 -50.309,123.9059 -90.0267,209.2181 -79.4353,170.6246 -100.6181,223.4369 -100.6181,253.2285 0,29.7918 -12.5773,31.8228 -33.76,6.0935 -17.211,-21.6664 -19.1969,-22.3435 -29.7883,-11.5101 -11.9153,12.1871 -14.5632,37.2394 -5.9576,71.7704 3.9717,17.6044 3.3098,21.6671 -5.9577,21.6671 -5.9577,0 -16.549,-10.1565 -23.8306,-21.6671 z" id="path7637" style="fill:#060000;fill-opacity:0.97254938;stroke:#000000;stroke-width:25.10545158;stroke-miterlimit:4;stroke-opacity:0.97014962" inkscape:connector-curvature="0" class="rNLqsgeo_14"></path>
    <path d="m 7272.1126,7570.7411 c -103.928,-49.4269 -179.3916,-163.1766 -201.2363,-301.9783 -19.8588,-123.9059 8.6055,-234.9473 84.0691,-330.4157 34.422,-42.6562 46.3373,-72.4477 60.2385,-153.6975 9.2675,-52.8124 41.0416,-119.8435 95.3224,-200.4161 23.8306,-35.8854 45.6753,-73.1248 47.6612,-82.604 2.6478,-10.8333 -1.3239,-35.2082 -9.9294,-62.2914 -11.2533,-33.8541 -12.5772,-47.3958 -7.2816,-52.8124 11.9154,-12.1875 41.0417,7.4479 58.2527,39.2707 31.1121,56.1978 19.1968,98.1768 -97.9703,345.3115 -107.2378,226.8223 -151.5892,339.2178 -164.8284,417.7593 -9.2674,54.1665 2.6478,117.8121 35.0839,189.5828 25.8165,57.5519 54.2809,94.1143 109.8856,141.51 29.1263,24.3749 40.3797,39.2707 40.3797,50.7811 0,20.3125 -7.9436,20.3125 -49.6471,0 z" id="path7639" style="fill:#060000;fill-opacity:0.97254938;stroke:#000000;stroke-width:25.10545158;stroke-miterlimit:4;stroke-opacity:0.97014962" inkscape:connector-curvature="0" class="rNLqsgeo_15"></path>
    <path d="m 7553.4461,7498.9705 c -12.5773,-23.6979 -1.9859,-39.9478 31.1122,-49.427 51.633,-14.2187 62.2243,-63.6456 25.1545,-120.5205 -9.2675,-14.2187 -16.549,-33.177 -16.549,-41.979 0,-16.25 18.5349,-37.9166 44.3514,-51.4582 23.1686,-12.1875 82.0832,-8.8021 105.9138,6.0937 43.6895,27.0833 44.3514,60.9373 1.3239,129.3226 -64.8722,102.2392 -168.8001,171.3016 -191.3068,127.9684 z" id="path7641" style="fill:#060000;fill-opacity:0.97254938;stroke:#000000;stroke-width:25.10545158;stroke-miterlimit:4;stroke-opacity:0.97014962" inkscape:connector-curvature="0" class="rNLqsgeo_16"></path>
    <path d="m 10004.689,7504.3871 c -8.6056,-4.0625 -22.5068,-23.0207 -31.1124,-41.979 -26.4784,-57.5519 -33.76,-60.9373 -118.491,-63.6457 l -74.1397,-2.0313 51.633,31.1458 c 37.0699,22.3437 50.9711,34.5312 49.6471,42.6561 -5.2957,25.0521 -72.1538,4.0626 -215.1374,-67.7081 -74.1396,-37.9165 -108.5617,-61.6144 -99.9562,-69.7394 6.6196,-6.7708 97.9703,-16.927 155.561,-16.927 49.6471,0 69.5059,3.3854 105.2518,16.927 56.2667,21.6666 106.5758,22.3437 131.0683,2.7083 22.5067,-18.2812 20.5209,-39.9478 -4.6337,-52.1352 -19.1969,-9.4792 -19.1969,-9.4792 -14.5632,-55.5207 7.2816,-75.156 -8.6054,-89.3747 -64.8722,-56.8748 -24.4925,13.5416 -37.7317,16.2499 -68.8439,14.8957 -54.9428,-2.7083 -52.9569,-18.9582 7.9435,-61.6144 25.8165,-17.6041 62.2243,-46.0415 81.4212,-63.6456 34.4221,-30.4687 128.4208,-138.1246 124.4488,-142.1871 -1.324,-1.3542 -49.6471,2.7083 -107.8997,8.802 -103.266,11.5105 -127.7585,10.1563 -127.7585,-3.3854 0,-20.3124 246.2492,-70.4164 349.5152,-71.0935 67.52,-0.6771 68.844,0 84.731,18.2812 8.606,10.1562 15.887,21.6666 15.887,24.3749 0,2.7084 -20.52,4.7396 -45.675,4.7396 -43.689,-0.6771 -46.999,0.6771 -92.012,31.8228 -76.788,53.4895 -109.8861,111.0414 -109.2242,188.2286 0.662,47.3958 13.9012,92.0831 60.2382,199.062 25.817,60.9373 41.042,111.7184 41.042,138.8017 0,19.6354 -35.084,54.1665 -54.281,53.4894 -8.605,0 -21.845,-3.3854 -29.788,-7.4479 z" id="path7643" style="fill:#060000;fill-opacity:0.97254938;stroke:#000000;stroke-width:25.10545158;stroke-miterlimit:4;stroke-opacity:0.97014962" inkscape:connector-curvature="0" class="rNLqsgeo_17"></path>
    <path d="m 7364.7871,7181.4193 c -37.7318,-23.6979 -46.3372,-39.2707 -45.6753,-80.5727 1.9859,-82.6039 99.9562,-318.2282 162.8425,-389.9989 48.3232,-55.5207 232.3484,-194.3223 258.8269,-194.9994 27.1404,-0.6771 46.9992,23.6978 41.7036,50.7811 -11.2534,56.1977 -53.619,94.1143 -121.139,109.0101 -105.9138,22.3436 -177.4056,112.3955 -217.7853,273.5409 -19.8588,79.8956 -36.4079,184.1661 -31.1122,203.1244 3.9718,16.25 -7.9435,41.979 -19.8588,41.979 -4.6337,0 -16.549,-5.4166 -27.8024,-12.8645 z" id="path7645" style="fill:#060000;fill-opacity:0.97254938;stroke:#000000;stroke-width:25.10545158;stroke-miterlimit:4;stroke-opacity:0.97014962" inkscape:connector-curvature="0" class="rNLqsgeo_18"></path>
    <path d="m 7700.4015,7146.211 c -84.731,-37.2394 -139.6738,-101.5622 -150.2652,-177.3953 -5.9576,-37.9166 2.6478,-52.1353 30.4502,-52.1353 25.1546,0 40.3797,24.375 46.3373,76.5102 5.9576,48.7499 17.873,63.6457 61.5624,71.7707 47.6613,8.802 51.633,5.4166 46.9993,-36.5624 -5.2958,-39.9478 0.662,-48.0728 27.1404,-41.302 33.76,8.8021 55.6048,109.6872 35.7459,162.4996 -8.6055,24.3749 -36.4079,23.0207 -97.9703,-3.3855 z" id="path7647" style="fill:#060000;fill-opacity:0.97254938;stroke:#000000;stroke-width:25.10545158;stroke-miterlimit:4;stroke-opacity:0.97014962" inkscape:connector-curvature="0" class="rNLqsgeo_19"></path>
    <path d="m 7893.0323,7014.8573 c -18.535,-12.8646 -30.4502,-56.1978 -25.1546,-90.0519 1.9859,-13.5416 13.2393,-59.5831 24.4926,-101.5622 10.5914,-42.6561 18.535,-78.5414 16.549,-79.8956 -1.9859,-2.0313 -21.1827,5.4167 -43.6894,16.927 -35.7459,18.9583 -80.0973,27.7604 -80.0973,16.9271 0,-23.0208 86.7169,-107.6559 137.0259,-134.0621 25.1546,-12.8646 62.2244,-14.2187 73.4778,-2.7084 12.5773,12.8646 9.2674,46.0416 -9.2675,90.0519 -27.8023,66.3539 -30.4502,83.958 -31.7742,176.7182 -0.6619,77.8644 -2.6478,91.406 -13.2392,103.5934 -15.2251,16.9271 -29.1262,18.2813 -48.3231,4.0626 z" id="path7649" style="fill:#060000;fill-opacity:0.97254938;stroke:#000000;stroke-width:25.10545158;stroke-miterlimit:4;stroke-opacity:0.97014962" inkscape:connector-curvature="0" class="rNLqsgeo_20"></path>
    <path d="m 7735.4855,6884.8576 c -10.5914,-6.0937 -29.7883,-18.2812 -41.0416,-27.7603 -62.2244,-48.0728 -64.8722,-129.9996 -3.9718,-129.9996 17.211,0 23.8306,5.4166 41.7035,33.854 23.1687,36.5624 48.9852,112.3955 43.6895,126.6142 -4.6337,11.5105 -15.8871,10.8334 -40.3796,-2.7083 z" id="path7651" style="fill:#060000;fill-opacity:0.97254938;stroke:#000000;stroke-width:25.10545158;stroke-miterlimit:4;stroke-opacity:0.97014962" inkscape:connector-curvature="0" class="rNLqsgeo_21"></path>
    <path d="m 10241.009,6748.7643 c -25.816,-12.8646 -43.689,-50.7812 -37.07,-79.2185 5.296,-20.9896 21.183,-21.6667 55.605,-4.0625 57.591,30.4686 80.097,75.156 43.689,88.6976 -23.83,9.4791 -35.746,8.125 -62.224,-5.4166 z" id="path7653" style="fill:#060000;fill-opacity:0.97254938;stroke:#000000;stroke-width:25.10545158;stroke-miterlimit:4;stroke-opacity:0.97014962" inkscape:connector-curvature="0" class="rNLqsgeo_22"></path>
    <path d="m 10153.63,6550.3794 c -11.915,-4.7396 -19.197,-13.5416 -21.845,-26.4062 -5.957,-29.1145 13.24,-130.6767 40.38,-209.8952 29.126,-86.6664 36.408,-101.5622 67.52,-136.7704 l 23.831,-27.0833 -14.563,-12.1875 c -25.155,-20.9895 -156.885,-39.9478 -196.603,-28.4374 -19.197,5.4167 -19.859,6.7708 -19.859,48.7499 0,56.1977 -9.267,62.9685 -53.6186,39.9478 -56.2668,-29.7916 -133.7163,-150.3121 -140.3358,-217.3431 -3.9718,-39.9478 7.9435,-43.3332 30.4502,-8.8021 13.2392,18.9583 17.8729,21.6666 27.8024,15.5729 9.2674,-6.0938 16.549,-4.7396 33.76,6.7708 33.76,20.9895 63.5483,23.6978 124.4488,12.1874 78.111,-15.5728 121.139,-14.2187 131.068,2.7083 5.296,7.448 24.493,18.2813 46.338,24.375 21.182,6.0937 43.689,14.8958 50.309,19.6354 18.534,13.5416 40.379,49.4269 56.928,93.4372 31.774,87.3435 45.676,99.531 117.829,99.531 111.872,0 205.209,22.3436 216.462,50.7811 8.606,23.6978 3.31,60.9373 -12.577,88.6976 -28.465,49.427 -79.436,74.479 -87.379,43.3332 -5.296,-19.6353 -22.507,-22.3436 -139.012,-19.6353 -94.661,2.7083 -104.59,1.3541 -106.576,-8.8021 -1.324,-6.7708 5.296,-22.3437 14.563,-34.5311 9.268,-12.8646 17.211,-26.4062 17.211,-30.4687 0,-10.1562 -55.605,-10.8333 -73.478,-1.3542 -10.591,6.0938 -11.253,9.4792 -5.295,21.6666 11.253,20.9896 3.971,98.1768 -12.578,135.4163 -26.478,61.6145 -60.9,79.2185 -115.181,58.9061 z" id="path7655" style="fill:#060000;fill-opacity:0.97254938;stroke:#000000;stroke-width:25.10545158;stroke-miterlimit:4;stroke-opacity:0.97014962" inkscape:connector-curvature="0" class="rNLqsgeo_23"></path>
    <path d="m 8083.0151,6404.1298 c -9.2674,-6.0937 -35.7459,-29.7916 -59.5764,-52.8123 -56.2668,-55.5207 -90.0268,-72.4478 -149.6033,-76.5102 -60.9005,-4.0625 -101.2801,8.125 -214.4755,63.6456 -99.9561,48.7499 -139.0119,59.5832 -139.0119,39.2707 0,-18.2811 64.8722,-79.2185 106.5758,-99.5309 43.6895,-21.6666 150.9272,-45.3645 207.1939,-45.3645 51.633,0 106.5758,14.8958 166.1523,44.0103 79.4353,39.2707 131.0683,96.1456 115.1812,126.6143 -7.9435,14.8957 -11.9152,14.8957 -32.4361,0.677 z" id="path7657" style="fill:#060000;fill-opacity:0.97254938;stroke:#000000;stroke-width:25.10545158;stroke-miterlimit:4;stroke-opacity:0.97014962" inkscape:connector-curvature="0" class="rNLqsgeo_24"></path>
    <path d="m 9873.6205,5907.8292 c -9.9294,-32.5 25.8165,-56.8749 139.0115,-94.7915 36.408,-12.1874 78.112,-29.1144 92.675,-37.2394 37.07,-22.3437 65.534,-54.1665 60.238,-68.3852 -5.295,-14.2188 -37.731,-10.8334 -112.533,12.1874 -27.14,8.125 -52.295,12.8646 -54.9427,10.1562 -1.9859,-2.7083 4.6337,-14.8957 15.8867,-27.0832 43.69,-46.7186 46.338,-70.4165 21.845,-194.3224 -12.577,-62.9685 -19.859,-122.5517 -19.859,-157.0829 0,-67.7081 -13.901,-131.3538 -38.3935,-176.7182 -18.535,-35.8853 -99.2943,-112.3955 -137.688,-131.3538 -27.1405,-13.5416 -53.6188,-6.7708 -63.5483,15.5729 -3.9717,9.4791 -15.2251,18.2812 -24.4926,20.3124 -29.7882,6.0938 -70.8298,27.7603 -96.6463,50.7811 -39.7177,35.8854 -109.2236,150.3121 -109.2236,179.4266 0,6.7708 9.2674,50.104 20.5208,96.1456 16.549,68.3852 20.5207,94.1143 17.8729,132.7079 -5.2956,82.6039 -46.3373,144.8954 -117.8291,178.7495 -48.3231,23.6979 -127.0965,25.052 -172.1099,4.0625 -44.3515,-20.3125 -62.8864,-11.5104 -140.3359,62.9686 -68.1819,65.6768 -104.5898,90.0518 -135.702,90.0518 -9.9294,0 -34.422,4.7395 -54.2809,10.1562 -92.0125,25.052 -131.7302,20.3125 -180.0534,-20.9895 -15.2251,-12.8646 -50.3091,-33.8541 -77.4495,-47.3957 -27.8023,-12.8646 -55.6047,-28.4374 -62.2244,-34.5311 -12.5772,-11.5105 -15.887,-52.1353 -5.9576,-68.3853 6.6196,-10.8333 21.8447,-3.3854 109.2236,49.4269 102.604,62.2916 142.3217,69.0624 219.1092,40.6249 88.7028,-32.4999 114.5194,-61.6143 185.3492,-206.5098 56.9287,-116.458 134.3781,-242.3952 176.0817,-284.3742 17.211,-17.6041 45.0134,-37.9166 62.2244,-44.0103 28.4643,-11.5104 30.4502,-11.5104 43.0275,0 16.549,14.8958 17.211,38.5937 1.9858,52.1353 -6.6196,5.4167 -33.76,22.3437 -59.5765,38.5937 -48.9851,29.1144 -68.182,52.1352 -68.182,83.958 0,8.8021 -5.2957,26.4062 -11.2534,39.2708 -16.549,32.4999 -15.887,96.8226 1.9859,131.3537 25.1546,48.7499 66.1961,67.0311 113.8573,50.1041 17.2111,-6.0938 25.8166,-16.9271 44.3515,-55.5207 29.1263,-61.6144 35.0839,-93.4372 42.3655,-251.8743 7.2816,-145.5725 13.2393,-171.9787 60.2385,-267.4471 66.8581,-136.0934 152.2511,-237.6556 450.1341,-534.2173 l 201.898,-201.7703 -4.634,-73.8018 c -2.648,-40.6249 -11.253,-154.3745 -18.535,-253.2285 l -13.239,-178.7495 39.056,-41.3019 c 99.956,-104.9476 136.364,-163.1766 200.574,-318.2283 11.915,-29.1145 29.126,-68.3852 38.394,-86.6664 16.549,-33.8541 48.985,-65.6769 57.59,-56.8748 9.268,9.4791 3.972,109.6871 -7.943,143.5412 -27.141,79.8956 -58.253,138.8017 -79.436,152.3433 -51.633,32.5 -100.618,111.0414 -119.153,190.937 -5.295,23.6979 -13.239,108.333 -16.549,188.2286 -12.577,271.5097 -24.492,354.7907 -64.21,438.0717 -16.549,34.5311 -25.154,43.3332 -71.492,74.4789 -95.322,62.9686 -103.928,74.479 -76.125,100.2081 12.577,11.5104 17.873,11.5104 64.872,4.7396 121.139,-19.6354 294.573,-67.7082 453.443,-125.9371 96.647,-35.8854 150.928,-53.4895 154.237,-49.427 7.944,8.125 -17.211,56.8748 -38.393,74.4789 -48.985,39.9478 -307.812,138.1247 -683.806,259.3222 -131.7307,41.9791 -241.6162,83.281 -241.6162,90.0518 0,2.7084 37.7317,23.6979 84.731,46.7187 109.2236,53.4894 125.7727,68.3852 160.1942,141.51 31.113,67.031 47.662,125.9371 63.549,222.0827 23.168,146.9267 46.337,213.2806 101.28,287.7596 57.59,77.8643 50.971,132.7079 -25.155,205.1557 -39.717,37.9165 -119.815,80.5726 -156.885,82.6039 -15.8866,1.3541 -46.3368,12.1874 -72.1534,26.4062 -51.6329,27.7603 -60.2384,29.1144 -66.1961,10.8333 z" id="path7659" style="fill:#060000;fill-opacity:0.97254938;stroke:#000000;stroke-width:25.10545158;stroke-miterlimit:4;stroke-opacity:0.97014962" inkscape:connector-curvature="0" class="rNLqsgeo_25"></path>
    <path d="m 6753.7968,5559.1322 c -166.1522,-65.6769 -318.4034,-175.3641 -426.965,-307.3949 -116.5052,-142.1871 -186.0111,-275.5721 -246.2496,-474.6341 -24.4925,-80.5727 -52.2949,-121.1976 -113.1954,-163.8537 -65.5342,-47.3957 -82.7452,-76.5102 -81.4212,-143.5412 l 1.3239,-48.0728 6.6196,52.1353 5.9577,52.1352 90.6887,48.7499 c 148.2793,79.8956 161.5185,92.0831 169.462,155.0516 11.2534,84.6352 87.379,271.5096 142.3217,349.374 38.3938,54.1665 170.7861,187.5516 233.0105,234.9472 62.2243,47.3958 121.8008,80.5728 140.3357,77.8644 22.5067,-3.3854 21.1828,-50.7811 -5.2957,-158.437 -45.6753,-186.8745 -75.4636,-381.874 -58.2526,-381.874 26.4785,0 187.3351,551.8214 197.9265,679.1127 4.6337,52.8123 5.2956,52.8123 -56.2668,28.4374 z" id="path7661" style="fill:#060000;fill-opacity:0.97254938;stroke:#000000;stroke-width:25.10545158;stroke-miterlimit:4;stroke-opacity:0.97014962" inkscape:connector-curvature="0" class="rNLqsgeo_26"></path>
    <path d="m 8586.1058,5483.2991 c 0,-17.6041 9.9293,-44.6873 66.1961,-178.7495 24.4925,-57.5519 23.1686,-73.8019 -4.6337,-73.8019 -23.1687,0 -74.1397,-29.7915 -121.139,-71.0935 -52.2949,-46.7186 -120.4769,-125.9371 -116.5051,-136.7704 1.9858,-4.7396 -1.9859,-24.375 -9.2675,-43.3332 -15.2251,-39.2708 -17.211,-80.5727 -3.9718,-106.3018 16.5491,-33.177 24.4926,-91.406 30.4503,-224.7911 6.6195,-147.6037 11.2533,-172.6557 30.4502,-172.6557 22.5066,0 37.0698,60.9373 38.3937,159.1141 0.662,74.479 -1.3239,90.0518 -15.8871,132.0309 -14.5631,40.6249 -16.549,58.9061 -16.549,132.0309 0,77.8643 1.3239,88.0205 17.873,123.2288 21.1828,47.3957 64.8722,92.7601 112.5334,118.4892 28.4643,14.8958 43.6894,18.2812 82.0832,18.2812 103.266,0 182.0394,-73.8018 240.9539,-226.1451 9.2675,-24.375 10.5914,-33.8541 4.6338,-33.8541 -3.9718,0.6771 -31.7742,20.3124 -60.9005,44.6873 -64.8722,53.4895 -113.8573,79.2186 -153.5751,79.8956 -33.76,0.6771 -48.3231,-12.8645 -48.3231,-45.3644 0,-35.2082 9.9294,-43.3332 64.2102,-56.1978 28.4644,-6.0937 53.619,-12.8645 56.9287,-14.2187 4.6337,-2.7083 -15.887,-35.2082 -48.9851,-77.8643 -7.9436,-9.4792 -11.9153,-20.9896 -9.9295,-25.0521 11.9154,-18.9582 141.6598,-1.3541 240.292,33.177 77.4495,27.0833 82.7452,32.4999 47.6612,50.104 -46.9992,24.375 -99.9561,134.0622 -80.0973,166.5621 11.2534,18.9583 9.9295,27.0832 -4.6337,27.0832 -17.8729,0 -83.4071,75.1561 -143.6456,166.5621 -129.7444,194.9994 -173.4339,253.2284 -187.997,253.2284 -3.9718,0 -6.6196,-8.125 -6.6196,-18.2812 z" id="path7663" style="fill:#060000;fill-opacity:0.97254938;stroke:#000000;stroke-width:25.10545158;stroke-miterlimit:4;stroke-opacity:0.97014962" inkscape:connector-curvature="0" class="rNLqsgeo_27"></path>
    <path d="m 9102.4356,4878.6654 c 0,-4.7396 9.9294,-22.3436 22.5066,-39.9478 11.9154,-16.927 25.1546,-37.9166 29.1263,-46.0415 13.9012,-26.4062 27.1405,-131.3538 47.6613,-371.0406 11.2533,-129.9997 21.8447,-241.041 23.1687,-245.1035 5.2956,-16.2499 29.7882,-9.4791 37.0698,10.1562 15.2251,38.5937 6.6195,312.8116 -14.5632,461.7695 -15.2251,111.0414 -45.6753,182.812 -91.3507,215.989 -23.8305,17.6041 -53.6188,25.052 -53.6188,14.2187 z" id="path7665" style="fill:#060000;fill-opacity:0.97254938;stroke:#000000;stroke-width:25.10545158;stroke-miterlimit:4;stroke-opacity:0.97014962" inkscape:connector-curvature="0" class="rNLqsgeo_28"></path>
    <path d="m 8625.1615,4697.8847 c -11.2534,-12.8646 -16.5491,-176.0412 -6.6196,-190.937 15.2251,-23.0207 48.9851,18.2812 48.9851,60.9373 0,15.5729 -4.6337,31.8229 -11.2534,39.2708 -12.5772,14.2187 -13.2392,23.0208 -6.6195,70.4164 3.3098,25.7292 2.6478,31.8229 -5.2958,31.8229 -5.9576,0 -14.5631,-4.7396 -19.1968,-11.5104 z" id="path7667" style="fill:#060000;fill-opacity:0.97254938;stroke:#000000;stroke-width:25.10545158;stroke-miterlimit:4;stroke-opacity:0.97014962" inkscape:connector-curvature="0" class="rNLqsgeo_29"></path>
    <path d="m 9514.8375,4604.4474 c -37.7318,-23.6978 -74.8017,-97.4997 -79.4354,-160.4682 -3.3098,-39.9478 -1.9858,-45.3645 13.9012,-63.6457 l 17.211,-19.6353 13.2393,16.2499 c 11.2533,13.5416 13.2391,24.3749 11.9152,67.7081 -1.9859,50.7811 -1.3239,52.8124 29.7883,107.656 42.3655,75.156 41.7036,81.2498 -6.6196,52.1352 z" id="path7669" style="fill:#060000;fill-opacity:0.97254938;stroke:#000000;stroke-width:25.10545158;stroke-miterlimit:4;stroke-opacity:0.97014962" inkscape:connector-curvature="0" class="rNLqsgeo_30"></path>
    <path d="m 8036.0159,4601.062 c 0,-2.0312 -2.6479,-30.4686 -5.2957,-62.9685 -3.9717,-42.6562 -8.6055,-64.9998 -18.5349,-77.8644 -7.9436,-11.5104 -47.6612,-35.8853 -103.9279,-64.3227 -72.1538,-36.5624 -99.9562,-55.5207 -135.7021,-89.3748 -90.0268,-87.3435 -109.2236,-151.6662 -133.0542,-446.8737 -3.9718,-48.0728 -11.9153,-114.4267 -17.873,-146.2496 -10.5913,-60.2602 -9.2674,-80.5727 6.6196,-80.5727 19.8589,0 37.7318,77.1873 54.2808,233.5931 27.8024,268.8013 44.3515,333.8012 99.9563,396.0926 78.7733,86.6664 210.5037,115.1039 240.2919,51.4582 7.9435,-17.6041 7.2816,-23.0207 -6.6196,-57.5519 -13.9012,-33.177 -15.8871,-48.0728 -15.2252,-119.1663 0,-108.3331 14.5632,-159.7912 39.0558,-138.8017 28.4643,23.6978 50.3091,268.1242 37.7318,418.4363 -7.2816,90.0518 -22.5067,167.2391 -35.084,180.7807 -3.3097,3.3854 -5.9576,4.7396 -6.6196,3.3854 z" id="path7671" style="fill:#060000;fill-opacity:0.97254938;stroke:#000000;stroke-width:25.10545158;stroke-miterlimit:4;stroke-opacity:0.97014962" inkscape:connector-curvature="0" class="rNLqsgeo_31"></path>
    <path d="m 8395.4609,4437.2084 c -4.6337,-4.7396 -7.9436,-14.2188 -7.9436,-21.6667 0,-20.9895 46.3373,-123.2288 88.0409,-194.9994 41.0416,-69.7394 59.5766,-93.4372 74.8017,-93.4372 28.4643,0 13.9011,64.3227 -23.8307,101.5622 -27.8024,27.7603 -39.7176,60.2602 -39.7176,109.0101 0,16.927 -3.3099,40.6248 -7.2816,52.8123 -6.6196,18.9583 -9.9294,20.9895 -26.4785,17.6041 -15.887,-3.3854 -19.8588,-1.3541 -29.1262,16.25 -11.2534,23.0208 -16.5491,25.052 -28.4644,12.8646 z" id="path7673" style="fill:#060000;fill-opacity:0.97254938;stroke:#000000;stroke-width:25.10545158;stroke-miterlimit:4;stroke-opacity:0.97014962" inkscape:connector-curvature="0" class="rNLqsgeo_32"></path>
    <path d="m 9863.6911,4402.6772 c 0,-27.7604 61.5624,-169.9475 80.7593,-186.1974 17.211,-14.2187 27.8023,1.3542 23.1686,35.2082 -3.9717,27.7604 -3.3098,31.1458 8.6055,31.1458 19.8589,0 58.2525,-39.2707 66.8585,-68.3852 9.267,-30.4687 16.549,-33.8541 20.52,-9.4792 7.944,39.9478 -46.337,107.6559 -137.0256,171.9787 -50.3091,35.8853 -62.8863,40.6249 -62.8863,25.7291 z" id="path7675" style="fill:#060000;fill-opacity:0.97254938;stroke:#000000;stroke-width:25.10545158;stroke-miterlimit:4;stroke-opacity:0.97014962" inkscape:connector-curvature="0" class="rNLqsgeo_33"></path>
    <path d="m 6328.8177,4362.7294 c 0,-23.0208 103.2659,-198.3848 280.0096,-475.3112 150.2653,-236.3014 233.6724,-358.8531 301.8544,-444.1654 85.393,-106.3018 115.8432,-137.4475 131.7302,-132.7079 9.2675,3.3854 15.8871,-0.6771 23.1687,-12.1875 27.8024,-43.3332 174.0959,-125.9371 292.5869,-165.2078 125.1107,-41.9791 476.6122,-79.2186 520.3016,-55.5207 6.6196,4.0625 12.5772,13.5416 12.5772,20.9895 0,22.3437 -37.0698,33.177 -117.1671,33.8541 -114.5193,0 -209.1797,9.4791 -228.3766,22.3436 -11.2534,7.448 -48.3232,14.2188 -117.1672,20.9896 -54.9428,5.4166 -105.2518,12.1874 -110.5475,15.5728 -5.9577,3.3854 -13.9012,12.8646 -17.873,22.3437 -5.9576,11.5104 -14.5631,16.25 -31.1121,17.6041 -29.7883,2.7084 -111.2095,43.3333 -132.3923,66.354 -8.6055,9.4792 -16.5491,23.6979 -16.5491,31.8229 0,10.8333 -7.2815,16.927 -29.1263,24.3749 -44.3513,14.8958 -148.2793,123.9059 -181.3773,189.5828 -13.9012,27.7603 -47.6613,83.9581 -75.4637,125.2601 -195.9405,293.1762 -383.2756,561.3004 -456.7532,656.7689 -34.422,44.0103 -48.3232,54.8436 -48.3232,37.2395 z" id="path7677" style="fill:#060000;fill-opacity:0.97254938;stroke:#000000;stroke-width:25.10545158;stroke-miterlimit:4;stroke-opacity:0.97014962" inkscape:connector-curvature="0" class="rNLqsgeo_34"></path>
    <path d="m 11063.165,4017.4179 c -14.563,-18.9583 -76.125,-152.3433 -127.097,-276.9263 -29.788,-72.4477 -100.617,-237.6556 -157.547,-368.3323 -186.673,-431.3009 -234.334,-572.1338 -193.292,-572.1338 17.211,0 46.337,46.7186 70.168,111.0413 33.76,92.0831 81.421,205.1557 153.575,362.9157 146.955,321.6137 272.066,660.8315 272.728,740.05 0,13.5416 -8.606,14.8957 -18.535,3.3854 z" id="path7679" style="fill:#060000;fill-opacity:0.97254938;stroke:#000000;stroke-width:25.10545158;stroke-miterlimit:4;stroke-opacity:0.97014962" inkscape:connector-curvature="0" class="rNLqsgeo_35"></path>
    <path d="m 10178.785,3741.8458 c -8.606,-13.5417 -35.746,-161.1455 -43.69,-237.6557 -10.591,-96.1455 -5.295,-225.468 12.578,-314.8428 7.281,-37.2395 30.45,-123.9059 50.309,-192.9682 72.815,-244.4264 98.632,-392.7072 70.167,-392.7072 -10.591,0 -34.422,73.8019 -56.928,178.0724 -30.45,136.7704 -41.704,175.3641 -51.633,171.9787 -13.239,-4.7396 -7.282,-145.5725 11.253,-256.6138 29.126,-172.6558 63.548,-310.7805 112.534,-446.8738 105.913,-295.2075 74.801,-525.4152 -99.295,-742.0812 -57.59,-71.7706 -123.786,-131.3538 -240.9535,-216.6661 -119.1531,-86.6664 -217.1233,-184.1661 -184.0253,-184.1661 8.6055,0 105.2519,66.354 197.2645,135.4163 54.9423,41.3019 93.9983,64.3227 151.5893,90.7289 7.943,4.0624 42.365,32.4999 75.463,64.3227 61.563,57.5519 84.069,74.479 137.026,104.2706 52.957,29.1144 85.393,100.208 99.295,214.6347 8.605,73.8019 8.605,404.8948 0,484.1133 -9.93,88.0205 -16.549,109.6871 -35.746,114.4267 -21.845,5.4167 -41.704,40.6249 -54.943,95.4685 -9.93,40.6249 -9.93,54.8436 -2.648,122.5517 7.282,68.3852 6.62,81.2498 -3.31,118.4893 -9.267,32.4999 -9.929,44.0102 -3.972,54.1665 14.564,23.6978 7.944,100.208 -21.844,252.5513 -56.267,289.7909 -60.901,339.2178 -54.943,596.5088 1.324,46.0415 -1.986,63.6456 -19.859,115.1038 -21.845,62.2915 -35.746,85.3123 -43.689,71.7707 z" id="path7681" style="fill:#060000;fill-opacity:0.97254938;stroke:#000000;stroke-width:25.10545158;stroke-miterlimit:4;stroke-opacity:0.97014962" inkscape:connector-curvature="0" class="rNLqsgeo_36"></path>
    <path d="m 10726.889,3724.2416 c -42.366,-46.7186 -79.436,-147.6037 -86.718,-241.041 -4.633,-56.8748 0.662,-80.5726 17.874,-80.5726 22.507,0 33.76,29.1145 40.38,102.9164 5.295,62.2914 8.605,76.5101 35.745,132.7079 28.464,61.6144 38.394,109.6872 22.507,109.6872 -4.634,0 -17.873,-10.8333 -29.788,-23.6979 z" id="path7683" style="fill:#060000;fill-opacity:0.97254938;stroke:#000000;stroke-width:25.10545158;stroke-miterlimit:4;stroke-opacity:0.97014962" inkscape:connector-curvature="0" class="rNLqsgeo_37"></path>
    <path d="m 11263.739,3639.6064 c -5.958,-12.1874 -12.577,-53.4894 -16.549,-104.9476 -11.253,-146.9267 -59.576,-331.0928 -149.603,-562.6546 -76.787,-199.062 -133.716,-313.4887 -245.587,-490.207 -58.254,-92.7601 -71.493,-121.8746 -54.282,-121.8746 10.592,0 81.422,76.5102 122.463,132.0308 152.251,207.187 291.925,540.9881 343.558,820.6228 13.901,75.1559 36.408,268.8012 36.408,311.4574 0,31.1457 -1.986,35.8853 -13.239,35.8853 -7.944,0 -17.211,-8.125 -23.169,-20.3125 z" id="path7685" style="fill:#060000;fill-opacity:0.97254938;stroke:#000000;stroke-width:25.10545158;stroke-miterlimit:4;stroke-opacity:0.97014962" inkscape:connector-curvature="0" class="rNLqsgeo_38"></path>
    <path d="m 11480.863,3357.2635 c -6.62,-25.7291 -4.634,-263.3847 2.648,-292.4992 7.943,-33.8541 19.858,-33.177 29.126,0.6771 9.267,35.2082 3.972,245.7805 -7.282,285.0513 -8.605,29.7916 -17.873,32.4999 -24.492,6.7708 z" id="path7687" style="fill:#060000;fill-opacity:0.97254938;stroke:#000000;stroke-width:25.10545158;stroke-miterlimit:4;stroke-opacity:0.97014962" inkscape:connector-curvature="0" class="rNLqsgeo_39"></path>
    <path d="m 7912.2292,2987.577 c -25.1546,-27.0832 -49.6471,-92.083 -52.295,-139.4787 -4.6337,-75.8332 25.1545,-117.8122 107.8997,-149.635 43.0275,-16.25 88.7028,-18.2812 88.7028,-4.0625 0,5.4167 -11.9153,18.9583 -25.8165,31.1457 -33.76,27.0833 -75.4636,90.729 -86.7169,132.0309 -7.2816,26.4062 -7.2816,41.9791 -1.3239,78.5415 11.2533,65.6768 0,84.6351 -30.4502,51.4581 z" id="path7689" style="fill:#060000;fill-opacity:0.97254938;stroke:#000000;stroke-width:25.10545158;stroke-miterlimit:4;stroke-opacity:0.97014962" inkscape:connector-curvature="0" class="rNLqsgeo_40"></path>
    <path d="m 8110.1556,2556.9533 c -14.5632,-9.4791 -3.9718,-35.8853 43.0275,-107.656 125.7726,-190.2599 309.7978,-397.4467 254.8551,-286.4054 -16.549,32.4999 -160.8566,253.2284 -213.8136,326.3532 -55.6047,76.5102 -62.2243,81.9269 -84.069,67.7082 z" id="path7691" style="fill:#060000;fill-opacity:0.97254938;stroke:#000000;stroke-width:25.10545158;stroke-miterlimit:4;stroke-opacity:0.97014962" inkscape:connector-curvature="0" class="rNLqsgeo_41"></path>
    <path d="m 11858.842,1925.2363 c -16.548,-27.0832 -4.633,-262.0305 23.831,-466.5091 17.211,-120.5205 27.802,-153.0204 55.605,-164.5308 25.817,-10.8332 39.718,-41.3019 50.971,-110.3642 17.211,-109.6872 27.14,-155.7288 37.732,-178.0724 9.929,-20.98955 13.901,-23.69787 37.731,-23.69787 h 26.479 l 1.986,35.20827 c 1.324,26.4062 -11.916,94.1143 -54.943,270.8325 -31.774,129.3226 -67.52,284.3742 -80.097,343.9574 -45.014,213.9577 -50.972,237.6555 -64.873,267.4471 -14.563,31.8229 -25.816,39.9478 -34.422,25.7291 z" id="path7693" style="fill:#060000;fill-opacity:0.97254938;stroke:#000000;stroke-width:25.10545158;stroke-miterlimit:4;stroke-opacity:0.97014962" inkscape:connector-curvature="0" class="rNLqsgeo_42"></path>
    <path d="m 8764.8353,1576.5394 c 0,-24.3749 5.2957,-35.2082 35.7459,-79.2185 7.2816,-10.1563 13.9012,-37.2395 17.873,-68.3852 6.6196,-60.9374 13.9012,-77.8644 36.4079,-77.8644 41.7035,0 31.1121,82.6039 -21.8448,170.6245 -30.4502,50.7811 -52.9569,79.8956 -62.8863,79.8956 -2.6478,0 -5.2957,-11.5104 -5.2957,-25.052 z" id="path7695" style="fill:#060000;fill-opacity:0.97254938;stroke:#000000;stroke-width:25.10545158;stroke-miterlimit:4;stroke-opacity:0.97014962" inkscape:connector-curvature="0" class="rNLqsgeo_43"></path>
    <path d="m 10624.946,1507.4771 c 0,-30.4687 64.211,-197.7077 125.111,-327.7074 63.549,-134.7392 108.562,-195.67653 136.364,-184.84325 15.887,6.09375 11.916,32.49995 -12.577,90.05185 -22.506,52.8123 -39.055,106.3018 -46.337,150.9892 -2.648,15.5728 -13.901,33.1769 -32.437,52.1352 -15.225,15.5729 -51.632,67.0311 -80.759,114.4268 -28.464,48.0727 -57.59,92.083 -64.21,98.8538 -13.239,13.5417 -25.155,16.25 -25.155,6.0938 z" id="path7697" style="fill:#060000;fill-opacity:0.97254938;stroke:#000000;stroke-width:25.10545158;stroke-miterlimit:4;stroke-opacity:0.97014962" inkscape:connector-curvature="0" class="rNLqsgeo_44"></path>
    <path d="m 10542.202,1383.5712 c -5.296,-13.5416 -13.24,-16.25 -49.648,-19.6354 -48.323,-4.0624 -74.139,-16.2499 -99.956,-44.6873 -45.013,-49.427 -36.408,-69.0623 15.225,-36.5624 42.366,27.0833 48.323,21.6666 47.662,-38.5937 -0.662,-65.6769 -12.578,-107.6559 -49.648,-171.3016 -17.873,-31.1457 -32.436,-62.2914 -32.436,-68.3852 0,-32.49987 63.549,6.7708 107.238,65.6769 52.295,70.4165 92.013,184.1661 90.689,256.6139 -1.324,60.9373 -15.225,88.6976 -29.126,56.8748 z" id="path7699" style="fill:#060000;fill-opacity:0.97254938;stroke:#000000;stroke-width:25.10545158;stroke-miterlimit:4;stroke-opacity:0.97014962" inkscape:connector-curvature="0" class="rNLqsgeo_45"></path>
    <g id="g8339" transform="matrix(1.5530805,0,0,1.3015279,3760.9524,606.8511)" style="fill:#000000;stroke:#000000;stroke-opacity:0.97014962">
      <path id="path8323" d="m 1327,1290 c -43,-34 -61,-97 -55,-195 l 6,-85 h -27 c -26,0 -68,-23 -83,-44 -27,-38 14,-106 64,-106 37,0 76,35 84,75 3,19 12,35 18,35 18,0 56,-44 56,-64 0,-23 -53,-123 -85,-159 l -25,-28 -50,27 c -28,15 -68,43 -91,62 l -40,34 -55,-36 c -59,-40 -90,-81 -100,-135 -6,-28 -3,-38 16,-53 21,-17 60,-25 60,-13 0,3 -12,16 -27,29 l -27,23 26,44 c 25,43 80,92 102,92 6,0 43,-22 81,-48 39,-27 71,-49 72,-50 1,0 -5,-21 -15,-47 -19,-54 -8,-91 32,-110 43,-19 136,33 136,76 0,23 -41,68 -73,79 -15,6 -13,12 19,54 94,122 96,200 9,252 -25,15 -37,31 -45,63 -17,61 -8,138 20,177 20,30 27,33 58,27 52,-8 84,-45 92,-106 4,-35 2,-56 -7,-69 -10,-16 -10,-21 2,-31 11,-9 17,-6 31,15 38,58 -1,186 -67,221 -39,20 -82,18 -112,-6 z m -41,-355 c -14,-55 -96,-55 -96,0 0,25 10,31 70,37 29,3 34,-4 26,-37 z m 54,-289 c 50,-23 33,-55 -41,-76 -24,-7 -29,-5 -39,19 -8,19 -8,35 0,55 11,29 22,29 80,2 z" inkscape:connector-curvature="0" style="stroke:#000000;stroke-opacity:0.97014962" class="rNLqsgeo_46"></path>
      <path id="path8325" d="m 2726,1219 c -9,-13 -16,-28 -16,-34 0,-9 -114,-327 -135,-377 -4,-10 -3,-18 3,-18 15,0 148,269 172,349 20,65 21,74 7,88 -13,13 -16,12 -31,-8 z" inkscape:connector-curvature="0" style="stroke:#000000;stroke-opacity:0.97014962" class="rNLqsgeo_47"></path>
      <path id="path8327" d="m 1871,1138 c -88,-119 -93,-173 -19,-218 l 31,-19 -35,-14 c -41,-17 -78,-61 -78,-91 0,-28 49,-75 118,-113 l 53,-30 -71,-51 c -68,-50 -80,-65 -61,-76 18,-11 161,105 161,131 0,7 -19,25 -42,39 -117,72 -134,88 -121,119 7,20 68,51 116,60 20,4 37,11 37,15 0,4 -23,19 -50,34 -94,51 -96,78 -15,192 40,56 46,74 24,74 -5,0 -26,-24 -48,-52 z" inkscape:connector-curvature="0" style="stroke:#000000;stroke-opacity:0.97014962" class="rNLqsgeo_48"></path>
      <path id="path8329" d="m 220,1093 c -12,-32 -27,-83 -32,-113 -9,-49 -8,-62 10,-102 16,-38 30,-52 70,-72 56,-29 92,-68 92,-101 0,-28 -73,-121 -109,-140 -25,-12 -31,-12 -62,7 -19,11 -53,38 -76,61 -36,35 -43,38 -49,23 -5,-12 4,-28 27,-52 79,-81 141,-97 202,-50 62,48 97,103 97,156 0,59 -19,84 -85,115 -95,45 -108,97 -61,234 30,87 31,91 12,91 -8,0 -24,-24 -36,-57 z" inkscape:connector-curvature="0" style="stroke:#000000;stroke-opacity:0.97014962" class="rNLqsgeo_49"></path>
      <path id="path8331" d="m 2253,903 c -8,-3 -9,-12 -3,-31 20,-58 70,-344 70,-395 0,-99 -72,-167 -178,-167 -80,0 -94,45 -33,104 35,34 56,29 66,-14 8,-36 29,-35 33,1 4,32 -31,69 -66,69 -51,0 -121,-94 -108,-145 8,-30 47,-45 120,-45 51,0 70,5 108,29 59,38 90,83 96,140 5,52 -63,421 -82,444 -6,8 -16,13 -23,10 z" inkscape:connector-curvature="0" style="stroke:#000000;stroke-opacity:0.97014962" class="rNLqsgeo_50"></path>
      <path id="path8333" d="m 2903,873 c -8,-3 -13,-24 -13,-57 0,-65 -24,-160 -50,-196 -47,-65 -127,-65 -259,3 -98,50 -135,50 -77,-1 72,-63 123,-85 206,-90 62,-4 85,-1 122,16 l 45,20 7,-67 c 7,-81 23,-131 41,-131 23,0 24,11 10,125 -9,73 -12,155 -8,241 6,127 2,146 -24,137 z m -15,-278 c -2,-9 -8,-12 -16,-6 -12,7 -12,12 0,30 10,17 14,18 16,6 2,-8 2,-22 0,-30 z" inkscape:connector-curvature="0" style="stroke:#000000;stroke-opacity:0.97014962" class="rNLqsgeo_51"></path>
      <path id="path8335" d="m 580,818 c -51,-35 -73,-71 -78,-131 -3,-41 1,-63 17,-95 27,-54 52,-66 129,-65 74,2 143,36 167,83 41,79 24,172 -37,210 -48,29 -153,28 -198,-2 z m 159,-19 c 56,-20 80,-109 44,-169 -37,-64 -168,-95 -212,-51 -50,50 -44,140 14,198 27,27 40,33 78,33 24,0 58,-5 76,-11 z" inkscape:connector-curvature="0" style="stroke:#000000;stroke-opacity:0.97014962" class="rNLqsgeo_52"></path>
      <path id="path8337" d="m 2716,400 c -15,-27 -31,-52 -36,-55 -4,-3 -18,11 -30,30 -30,49 -50,58 -97,42 -50,-16 -59,-56 -16,-77 15,-8 30,-15 32,-17 2,-1 -11,-14 -28,-28 -40,-35 -40,-62 1,-79 31,-13 66,-9 104,12 12,7 13,11 4,17 -6,4 -17,2 -23,-4 -13,-13 -66,-14 -84,-3 -9,6 -3,18 22,42 19,19 35,38 35,42 0,5 -16,18 -35,29 -38,23 -36,41 6,52 21,6 27,0 76,-61 l 26,-33 23,22 c 13,12 26,30 30,41 9,30 19,21 38,-35 18,-53 18,-54 -3,-94 -11,-23 -48,-76 -82,-118 -34,-42 -58,-79 -54,-83 15,-15 159,174 172,226 3,15 -3,49 -16,86 -12,33 -21,69 -21,79 0,30 -16,18 -44,-33 z" inkscape:connector-curvature="0" style="stroke:#000000;stroke-opacity:0.97014962" class="rNLqsgeo_53"></path>
    </g>
  </g>
<style data-made-with="vivus-instant">.rNLqsgeo_0{stroke-dasharray:11963 11965;stroke-dashoffset:11964;animation:rNLqsgeo_draw 3333ms linear 0ms forwards;}.rNLqsgeo_1{stroke-dasharray:474 476;stroke-dashoffset:475;animation:rNLqsgeo_draw 3333ms linear 31ms forwards;}.rNLqsgeo_2{stroke-dasharray:994 996;stroke-dashoffset:995;animation:rNLqsgeo_draw 3333ms linear 62ms forwards;}.rNLqsgeo_3{stroke-dasharray:421 423;stroke-dashoffset:422;animation:rNLqsgeo_draw 3333ms linear 94ms forwards;}.rNLqsgeo_4{stroke-dasharray:510 512;stroke-dashoffset:511;animation:rNLqsgeo_draw 3333ms linear 125ms forwards;}.rNLqsgeo_5{stroke-dasharray:299 301;stroke-dashoffset:300;animation:rNLqsgeo_draw 3333ms linear 157ms forwards;}.rNLqsgeo_6{stroke-dasharray:5867 5869;stroke-dashoffset:5868;animation:rNLqsgeo_draw 3333ms linear 188ms forwards;}.rNLqsgeo_7{stroke-dasharray:629 631;stroke-dashoffset:630;animation:rNLqsgeo_draw 3333ms linear 220ms forwards;}.rNLqsgeo_8{stroke-dasharray:909 911;stroke-dashoffset:910;animation:rNLqsgeo_draw 3333ms linear 251ms forwards;}.rNLqsgeo_9{stroke-dasharray:1159 1161;stroke-dashoffset:1160;animation:rNLqsgeo_draw 3333ms linear 283ms forwards;}.rNLqsgeo_10{stroke-dasharray:1687 1689;stroke-dashoffset:1688;animation:rNLqsgeo_draw 3333ms linear 314ms forwards;}.rNLqsgeo_11{stroke-dasharray:1096 1098;stroke-dashoffset:1097;animation:rNLqsgeo_draw 3333ms linear 345ms forwards;}.rNLqsgeo_12{stroke-dasharray:1734 1736;stroke-dashoffset:1735;animation:rNLqsgeo_draw 3333ms linear 377ms forwards;}.rNLqsgeo_13{stroke-dasharray:2644 2646;stroke-dashoffset:2645;animation:rNLqsgeo_draw 3333ms linear 408ms forwards;}.rNLqsgeo_14{stroke-dasharray:4783 4785;stroke-dashoffset:4784;animation:rNLqsgeo_draw 3333ms linear 440ms forwards;}.rNLqsgeo_15{stroke-dasharray:2739 2741;stroke-dashoffset:2740;animation:rNLqsgeo_draw 3333ms linear 471ms forwards;}.rNLqsgeo_16{stroke-dasharray:848 850;stroke-dashoffset:849;animation:rNLqsgeo_draw 3333ms linear 503ms forwards;}.rNLqsgeo_17{stroke-dasharray:3469 3471;stroke-dashoffset:3470;animation:rNLqsgeo_draw 3333ms linear 534ms forwards;}.rNLqsgeo_18{stroke-dasharray:1758 1760;stroke-dashoffset:1759;animation:rNLqsgeo_draw 3333ms linear 566ms forwards;}.rNLqsgeo_19{stroke-dasharray:954 956;stroke-dashoffset:955;animation:rNLqsgeo_draw 3333ms linear 597ms forwards;}.rNLqsgeo_20{stroke-dasharray:1126 1128;stroke-dashoffset:1127;animation:rNLqsgeo_draw 3333ms linear 628ms forwards;}.rNLqsgeo_21{stroke-dasharray:461 463;stroke-dashoffset:462;animation:rNLqsgeo_draw 3333ms linear 660ms forwards;}.rNLqsgeo_22{stroke-dasharray:350 352;stroke-dashoffset:351;animation:rNLqsgeo_draw 3333ms linear 691ms forwards;}.rNLqsgeo_23{stroke-dasharray:3041 3043;stroke-dashoffset:3042;animation:rNLqsgeo_draw 3333ms linear 723ms forwards;}.rNLqsgeo_24{stroke-dasharray:1393 1395;stroke-dashoffset:1394;animation:rNLqsgeo_draw 3333ms linear 754ms forwards;}.rNLqsgeo_25{stroke-dasharray:12225 12227;stroke-dashoffset:12226;animation:rNLqsgeo_draw 3333ms linear 786ms forwards;}.rNLqsgeo_26{stroke-dasharray:4188 4190;stroke-dashoffset:4189;animation:rNLqsgeo_draw 3333ms linear 817ms forwards;}.rNLqsgeo_27{stroke-dasharray:4127 4129;stroke-dashoffset:4128;animation:rNLqsgeo_draw 3333ms linear 849ms forwards;}.rNLqsgeo_28{stroke-dasharray:1536 1538;stroke-dashoffset:1537;animation:rNLqsgeo_draw 3333ms linear 880ms forwards;}.rNLqsgeo_29{stroke-dasharray:464 466;stroke-dashoffset:465;animation:rNLqsgeo_draw 3333ms linear 911ms forwards;}.rNLqsgeo_30{stroke-dasharray:600 602;stroke-dashoffset:601;animation:rNLqsgeo_draw 3333ms linear 943ms forwards;}.rNLqsgeo_31{stroke-dasharray:3045 3047;stroke-dashoffset:3046;animation:rNLqsgeo_draw 3333ms linear 974ms forwards;}.rNLqsgeo_32{stroke-dasharray:771 773;stroke-dashoffset:772;animation:rNLqsgeo_draw 3333ms linear 1006ms forwards;}.rNLqsgeo_33{stroke-dasharray:756 758;stroke-dashoffset:757;animation:rNLqsgeo_draw 3333ms linear 1037ms forwards;}.rNLqsgeo_34{stroke-dasharray:4372 4374;stroke-dashoffset:4373;animation:rNLqsgeo_draw 3333ms linear 1069ms forwards;}.rNLqsgeo_35{stroke-dasharray:2673 2675;stroke-dashoffset:2674;animation:rNLqsgeo_draw 3333ms linear 1100ms forwards;}.rNLqsgeo_36{stroke-dasharray:6668 6670;stroke-dashoffset:6669;animation:rNLqsgeo_draw 3333ms linear 1132ms forwards;}.rNLqsgeo_37{stroke-dasharray:764 766;stroke-dashoffset:765;animation:rNLqsgeo_draw 3333ms linear 1163ms forwards;}.rNLqsgeo_38{stroke-dasharray:2849 2851;stroke-dashoffset:2850;animation:rNLqsgeo_draw 3333ms linear 1194ms forwards;}.rNLqsgeo_39{stroke-dasharray:691 693;stroke-dashoffset:692;animation:rNLqsgeo_draw 3333ms linear 1226ms forwards;}.rNLqsgeo_40{stroke-dasharray:830 832;stroke-dashoffset:831;animation:rNLqsgeo_draw 3333ms linear 1257ms forwards;}.rNLqsgeo_41{stroke-dasharray:1081 1083;stroke-dashoffset:1082;animation:rNLqsgeo_draw 3333ms linear 1289ms forwards;}.rNLqsgeo_42{stroke-dasharray:2028 2030;stroke-dashoffset:2029;animation:rNLqsgeo_draw 3333ms linear 1320ms forwards;}.rNLqsgeo_43{stroke-dasharray:578 580;stroke-dashoffset:579;animation:rNLqsgeo_draw 3333ms linear 1352ms forwards;}.rNLqsgeo_44{stroke-dasharray:1200 1202;stroke-dashoffset:1201;animation:rNLqsgeo_draw 3333ms linear 1383ms forwards;}.rNLqsgeo_45{stroke-dasharray:1146 1148;stroke-dashoffset:1147;animation:rNLqsgeo_draw 3333ms linear 1415ms forwards;}.rNLqsgeo_46{stroke-dasharray:4521 4523;stroke-dashoffset:4522;animation:rNLqsgeo_draw 3333ms linear 1446ms forwards;}.rNLqsgeo_47{stroke-dasharray:985 987;stroke-dashoffset:986;animation:rNLqsgeo_draw 3333ms linear 1477ms forwards;}.rNLqsgeo_48{stroke-dasharray:1979 1981;stroke-dashoffset:1980;animation:rNLqsgeo_draw 3333ms linear 1509ms forwards;}.rNLqsgeo_49{stroke-dasharray:1968 1970;stroke-dashoffset:1969;animation:rNLqsgeo_draw 3333ms linear 1540ms forwards;}.rNLqsgeo_50{stroke-dasharray:2248 2250;stroke-dashoffset:2249;animation:rNLqsgeo_draw 3333ms linear 1572ms forwards;}.rNLqsgeo_51{stroke-dasharray:1974 1976;stroke-dashoffset:1975;animation:rNLqsgeo_draw 3333ms linear 1603ms forwards;}.rNLqsgeo_52{stroke-dasharray:1868 1870;stroke-dashoffset:1869;animation:rNLqsgeo_draw 3333ms linear 1635ms forwards;}.rNLqsgeo_53{stroke-dasharray:2198 2200;stroke-dashoffset:2199;animation:rNLqsgeo_draw 3333ms linear 1666ms forwards;}@keyframes rNLqsgeo_draw{100%{stroke-dashoffset:0;}}@keyframes rNLqsgeo_fade{0%{stroke-opacity:1;}95.65217391304348%{stroke-opacity:1;}100%{stroke-opacity:0;}}</style></svg>
