<?xml version="1.0" encoding="UTF-8" standalone="no"?>
<svg
   xmlns:dc="http://purl.org/dc/elements/1.1/"
   xmlns:cc="http://creativecommons.org/ns#"
   xmlns:rdf="http://www.w3.org/1999/02/22-rdf-syntax-ns#"
   xmlns:svg="http://www.w3.org/2000/svg"
   xmlns="http://www.w3.org/2000/svg"
   xmlns:sodipodi="http://sodipodi.sourceforge.net/DTD/sodipodi-0.dtd"
   xmlns:inkscape="http://www.inkscape.org/namespaces/inkscape"
   version="1.0"
   width="300.000000pt"
   height="400.000000pt"
   viewBox="0 0 300.000000 400.000000"
   preserveAspectRatio="xMidYMid meet"
   id="svg4089"
   sodipodi:docname="1Doui3WDfa.svg"
   inkscape:version="0.92.3 (2405546, 2018-03-11)">
  <defs
     id="defs4093" />
  <sodipodi:namedview
     pagecolor="#ffffff"
     bordercolor="#666666"
     borderopacity="1"
     objecttolerance="10"
     gridtolerance="10"
     guidetolerance="10"
     inkscape:pageopacity="0"
     inkscape:pageshadow="2"
     inkscape:window-width="1920"
     inkscape:window-height="1013"
     id="namedview4091"
     showgrid="false"
     showborder="false"
     inkscape:zoom="1.5375"
     inkscape:cx="-24.359814"
     inkscape:cy="185.75898"
     inkscape:window-x="-9"
     inkscape:window-y="-9"
     inkscape:window-maximized="1"
     inkscape:current-layer="g4087" />
  <metadata
     id="metadata3809">
Created by potrace 1.10, written by Peter Selinger 2001-2011
<rdf:RDF>
  <cc:Work
     rdf:about="">
    <dc:format>image/svg+xml</dc:format>
    <dc:type
       rdf:resource="http://purl.org/dc/dcmitype/StillImage" />
    <dc:title />
  </cc:Work>
</rdf:RDF>
</metadata>
  <g
     transform="translate(0.000000,400.000000) scale(0.100000,-0.100000)"
     fill="#000000"
     stroke="none"
     id="g4087">
    <g
       id="g4534">
      <path
         id="path3911"
         d="m 1396,2712 c -4,-7 -2,-12 3,-12 6,0 11,-9 11,-19 0,-11 7,-26 15,-35 21,-20 19,-24 -10,-18 -18,3 -25,0 -25,-12 0,-9 6,-16 14,-16 25,0 66,-42 87,-88 11,-26 34,-73 50,-105 16,-32 29,-61 29,-63 0,-2 -17,-4 -38,-4 -39,0 -97,-29 -59,-30 10,0 31,-9 46,-21 l 29,-21 -18,-42 c -22,-51 -35,-136 -21,-136 12,0 33,35 26,42 -3,3 1,22 8,44 l 14,39 12,-38 c 11,-33 14,-35 28,-21 14,13 14,16 -3,28 -15,12 -16,18 -6,40 21,47 -31,238 -92,334 l -26,42 h 23 c 28,0 119,58 112,71 -6,9 -55,-10 -55,-22 0,-4 -7,-10 -16,-13 -8,-3 -12,-2 -9,4 4,6 -2,7 -17,1 -28,-10 -58,3 -58,24 0,8 -7,15 -15,15 -9,0 -12,6 -8,17 4,10 2,14 -4,10 -6,-4 -13,-2 -15,5 -3,9 -6,9 -12,0 z" />
    </g>
    <g
       id="g4514">
      <g
         id="g4499">
        <path
           d="m 630,2983 c -46.32314,-41.2291 -107.17612,-75.5281 -167.06673,-86.7169 -51.6764,31.5937 -116.34146,71.2649 -173.45405,27.1152 -14.57209,-30.5459 54.8431,-36.429 6.04831,-54.916 -57.08562,-21.7017 -96.00979,-71.1393 -86.4513,-133.6751 2.68779,-16.9507 -19.66839,-78.1409 -27.31653,-49.5432 -16.44155,-29.0891 4.71529,-59.0873 -34.49537,-51.7431 -37.49744,-47.2059 -99.246915,-74.8715 -83.784154,-142.2639 -12.061694,-17.1363 -63.24744374,-71.0573 -40.052885,-78.5956 36.42553,42.7464 73.427899,87.8104 87.533689,138.6439 33.7638,54.9211 93.80805,76.4791 111.3878,140.1205 41.81267,41.312 3.55802,114.6992 72.35842,137.6461 65.00421,-8.4937 57.32602,82.6394 19.05715,88.4174 68.84009,-3.1366 111.69335,-82.3542 186.91716,-42.7765 59.42683,9.0206 104.43611,47.7042 147.81849,85.8028 43.21175,17.3452 56.42479,-4.0011 12.89471,-17.6125 65.86185,-28.3599 120.20405,9.9771 189.35616,-2.3869 64.91731,-18.3016 126.27812,-47.5465 190.91023,-67.5383 67.5043,-8.243 144.4775,7.0245 200.3158,-41.7168 42.2238,-4.8561 80.7929,-38.736 92.1526,-69.6509 11.0465,17.6225 101.4082,5.678 56.3236,-6.9079 46.2003,30.1578 95.7195,-14.7625 81.5755,-54.2551 10.8987,18.6358 77.2614,70.1047 74.626,34.2482 -5.5135,-30.5569 67.5376,-3.0809 18.7839,22.8242 -22.1834,14.3401 -50.4608,34.0699 -59.1104,-3.6758 -32.953,60.9489 -113.731,30.1701 -162.3595,63.6271 -47.3843,36.8242 -97.1863,74.6672 -158.7866,82.0638 -62.4894,10.5708 -127.4367,2.3262 -188.67614,20.9458 -63.93573,48.877 -146.78612,70.2486 -225.76269,53.4696 C 723.68842,2974.4792 676.95057,2996.8917 630,2983 Z"
           id="path3885"
           inkscape:connector-curvature="0" />
      </g>
      <path
         id="path3893"
         d="m 947,2859 c -4,-16 -3,-19 5,-11 8,8 14,7 23,-5 11,-14 13,-14 18,6 3,11 1,19 -3,16 -5,-3 -11,-1 -15,5 -10,16 -22,12 -28,-11 z" />
      <path
         id="path3897"
         d="m 364,2825 c -4,-8 -10,-15 -14,-15 -12,0 -66,-56 -73,-75 -10,-26 21,-17 40,12 10,14 30,38 46,54 15,15 27,30 27,33 0,12 -21,5 -26,-9 z" />
      <path
         id="path3903"
         d="m 1089,2791 c 9,-6 11,-16 7,-27 -7,-18 -6,-18 11,-1 16,15 16,19 3,27 -8,5 -19,10 -25,10 -5,0 -4,-4 4,-9 z" />
      <path
         id="path3907"
         d="m 1354,2729 c -15,-17 -15,-19 -2,-19 9,0 28,6 42,14 l 27,14 -25,4 c -17,3 -31,-1 -42,-13 z" />
      <path
         id="path3909"
         d="m 1254,2716 c -8,-22 3,-33 18,-18 9,9 9,15 0,24 -9,9 -13,7 -18,-6 z" />
      <path
         id="path3913"
         d="m 1561,2693 c -12,-13 -10,-14 11,-11 14,1 32,-3 39,-9 10,-8 20,-9 29,-2 13,8 13,10 0,18 -8,5 -18,8 -22,5 -4,-3 -16,-1 -25,4 -13,7 -22,6 -32,-5 z" />
      <path
         id="path3915"
         d="m 1130,2689 c -14,-6 -43,-13 -65,-15 -49,-6 -71,-24 -29,-24 42,0 100,18 114,35 14,17 14,17 -20,4 z" />
      <path
         id="path3919"
         d="m 1494,2674 c 9,-8 21,-12 27,-8 13,7 -7,24 -29,24 -10,0 -10,-4 2,-16 z" />
      <path
         id="path3921"
         d="m 1208,2651 c -16,-9 -28,-19 -28,-23 0,-11 42,-10 58,1 8,4 34,4 58,-1 33,-7 49,-7 60,3 8,7 11,15 7,19 -14,13 -58,19 -72,10 -8,-4 -24,-5 -35,-1 -13,5 -31,2 -48,-8 z" />
      <path
         id="path3923"
         d="m 1225,2597 c -54,-6 -83,-14 -91,-25 -7,-9 -11,-19 -9,-22 2,-3 -15,-14 -36,-24 -32,-16 -37,-21 -24,-28 22,-13 83,26 87,55 3,20 10,23 75,27 62,4 95,14 82,23 -2,2 -40,-1 -84,-6 z" />
      <path
         id="path3933"
         d="m 967,2430 c 10,-36 29,-44 78,-30 24,7 52,21 62,33 18,20 18,20 -16,14 -18,-4 -38,-7 -43,-7 -5,0 -6,-4 -3,-10 10,-16 -38,-12 -62,5 -19,14 -21,13 -16,-5 z" />
    </g>
    <g
       id="g4531">
      <path
         d="m 577,2310 c -13.65747,-3.0622 -28.1869,-4.7341 -40.5166,-11.7134 -0.39007,-7.7884 16.34546,-4.4295 22.59338,-5.5673 20.18336,0.8877 41.15237,0.9834 59.94882,-7.5416 35.07407,-15.5811 65.66369,-39.2183 97.66768,-60.0552 22.61797,-14.5647 44.50351,-30.6815 68.99282,-42.0221 14.0355,-7.8235 11.26255,11.2922 5.15765,17.6184 -4.47986,9.8876 -16.1894,10.6831 -23.77167,17.3311 -49.15172,31.8292 -94.36027,69.4718 -144.45489,99.8603 -9.18294,1.46 -19.1388,-3.7554 -28.68451,-4.6019 C 588.29387,2312.178 582.64935,2311.0763 577,2310 Z"
         id="path3939"
         inkscape:connector-curvature="0" />
      <path
         id="path4229"
         d="m 1205,2310 c -99,-3 -169,-8 -155,-11 22,-5 20,-6 -10,-8 -28,-1 -79,-19 -60,-21 3,-1 101,-2 218,-3 156,-1 212,1 212,10 0,18 -11,43 -19,41 -3,-1 -87,-5 -186,-8 z" />
      <path
         id="path4233"
         d="m 14,2296 c -3,-7 11,-45 30,-83 20,-39 36,-77 36,-84 0,-8 6,-23 14,-34 7,-11 16,-36 20,-57 4,-20 13,-38 20,-41 10,-4 14,-28 14,-81 2,-113 28,-150 104,-148 51,1 67,-38 46,-116 -3,-15 27,-40 37,-30 11,11 14,87 4,94 -5,3 -9,12 -9,20 0,9 -34,48 -75,88 -70,67 -75,75 -75,114 0,41 -16,91 -34,103 -5,4 -6,16 -4,27 4,13 0,23 -8,26 -8,3 -14,11 -14,18 0,7 -16,44 -35,81 -19,38 -35,76 -35,85 0,13 -2,14 -9,3 -6,-9 -11,-10 -15,-2 -4,6 -4,16 -1,21 3,6 4,10 0,10 -3,0 -8,-6 -11,-14 z" />
      <path
         id="path3943"
         d="m 219,1829 c 37,-45 35,-61 -4,-35 -21,14 -45,52 -45,72 0,13 19,-1 49,-37 z" />
      <path
         d="m 485,2277 c -44.73062,-24.7916 -66.889,-78.0064 -66.15637,-127.5212 0.16822,-32.7715 11.99088,-65.7355 35.17395,-89.2796 11.39466,-13.9521 16.72694,-31.5244 16.94601,-49.3078 6.51089,-33.5465 29.01259,-60.4746 47.19535,-88.344 12.42041,-15.5478 0.15025,-32.0914 -3.94019,-47.6099 7.47994,-13.0239 23.68281,13.204 26.13971,21.7773 2.39189,20.4593 -8.98941,39.3196 -16.3114,57.6914 -28.43985,61.1307 -62.31559,120.3142 -81.01447,185.4608 -7.80161,28.2539 1.48004,58.228 14.41641,83.501 9.8325,19.3003 25.32964,34.8982 42.8635,47.3019 8.7015,4.3879 12.39788,20.0292 -2.04102,12.7 C 493.65074,2281.6913 489.26814,2279.423 485,2277 Z"
         id="path3945"
         inkscape:connector-curvature="0" />
      <path
         id="path3947"
         d="m 590,2250 c 0,-5 7,-10 15,-10 17,0 20,-31 5,-46 -16,-16 14,-37 40,-29 27,9 25,27 -6,64 -25,30 -54,41 -54,21 z" />
      <path
         id="path3949"
         d="m 1447,2240 c -4,-15 -13,-20 -39,-20 l -33,1 25,14 c 15,8 19,14 10,15 -18,0 -119,-49 -105,-51 54,-8 73,-7 92,2 23,12 53,6 53,-11 0,-5 -4,-10 -10,-10 -5,0 -7,-7 -4,-15 9,-22 -5,-38 -21,-25 -8,7 -22,10 -32,8 -15,-3 -12,-7 12,-22 17,-10 40,-31 52,-46 l 22,-27 -44,5 c -71,8 -52,-5 26,-18 56,-10 73,-10 82,0 9,10 8,12 -5,7 -11,-4 -29,4 -48,19 -36,31 -39,67 -9,125 11,23 18,47 15,55 -8,21 -33,17 -39,-6 z" />
      <path
         d="m 513,2136 c -8.6392,-11.0554 -3.65457,-25.9713 -0.5191,-38.1695 10.38227,-32.3774 22.31618,-64.61 39.61718,-94.0024 12.08041,-20.7602 30.485,-36.7352 50.13301,-50.097 16.10162,-11.5884 31.85992,-23.7096 47.7987,-35.4667 10.04685,-5.8937 24.7069,4.8071 20.36083,16.2981 -4.67489,15.5023 -16.98519,29.144 -32.36325,34.5377 -10.83533,1.2378 -22.20272,1.8945 -31.77737,7.8998 -27.56661,15.9823 -43.31784,45.9534 -52.44586,75.4805 -6.99225,26.3845 -13.54389,53.1807 -15.2442,80.5026 2.93745,7.8779 -0.36945,21.3962 -11.09558,14.8357 C 521.81668,2145.0554 517.15559,2140.6404 513,2136 Z"
         id="path3959"
         inkscape:connector-curvature="0" />
      <path
         id="path3961"
         d="m 643,2133 c -33,-13 -53,-39 -53,-67 0,-9 6,-13 13,-10 8,3 13,15 13,27 -1,16 6,23 23,25 18,3 22,0 18,-12 -4,-9 -2,-16 4,-16 13,0 21,24 17,48 -3,17 -6,18 -35,5 z" />
      <path
         id="path3963"
         d="m 705,2080 c -3,-6 -3,-20 0,-33 18,-63 19,-60 -5,-47 -34,18 -34,5 1,-24 38,-32 61,-22 40,18 -8,13 -12,40 -9,60 4,35 -12,50 -27,26 z" />
      <path
         id="path3971"
         d="m 640,2032 c -22,-18 -21,-42 1,-42 10,0 33,50 26,57 -2,2 -15,-5 -27,-15 z" />
      <path
         id="path3973"
         d="m 1537,1993 c -4,-3 -7,-12 -7,-20 0,-11 5,-11 20,-3 11,6 20,15 20,20 0,11 -23,13 -33,3 z" />
      <path
         id="path3975"
         d="m 1507,1924 c -12,-12 18,-113 37,-126 17,-11 -2,-22 -43,-24 -33,-2 -38,1 -34,17 5,20 -4,24 -23,11 -17,-12 -44,-55 -44,-72 0,-13 1,-13 10,0 5,8 10,11 10,6 0,-5 6,-4 13,2 8,7 26,8 50,2 20,-4 37,-4 37,0 0,5 10,10 23,12 15,2 25,14 33,38 11,33 14,35 58,35 56,1 73,14 57,44 -11,20 -31,29 -31,13 0,-4 -21,-5 -47,-3 -43,3 -46,2 -34,-13 12,-14 11,-16 -8,-16 -12,0 -20,4 -17,9 12,18 -6,71 -24,71 -9,0 -20,-3 -23,-6 z" />
      <path
         d="m 759,1859 c -14.17833,-16.0357 -34.18507,-27.9231 -56,-28.375 -29.76339,-0.8463 -57.41558,12.7826 -82.97721,26.5262 -11.76227,5.7928 -23.59084,12.0475 -36.49154,14.8488 -8.46871,-0.5587 1.44546,-12.4279 4.54548,-15.752 15.35415,-15.5872 35.48389,-27.0063 57.24163,-30.3691 13.01661,-2.3485 25.88787,-5.8469 39.0746,-7.0584 25.39791,-0.6066 50.20379,8.1222 72.32051,20.0311 12.27586,7.2296 25.40642,15.4898 31.69473,28.8222 3.99726,6.2971 -0.39845,16.077 -7.91894,9.8426 C 772.19338,1872.8647 765.28329,1866.055 759,1859 Z"
         id="path3979"
         inkscape:connector-curvature="0" />
    </g>
    <g
       id="g4541">
      <path
         id="path3997"
         d="M 272,1568 C 177,1522 101,1426 71,1315 64,1288 51,1269 31,1257 7,1243 2,1234 2,1198 3,1171 -370.60976,981.51219 -366.60976,994.51219 -354.60976,1031.5122 53,1257 74,1266 c 12,5 21,18 22,29 0,20 15,61 37,104 27,53 137,145 153,128 4,-4 2,-24 -4,-44 -14,-45 -36.26829,-174.0732 -20.26829,-134.0732 33,80 74.26829,241.0732 64.26829,241.0732 -6,-1 -30,-10 -54,-22 z" />
      <path
         id="path4017"
         d="m 761,1232 c -1,-29 -6,-35 -45,-51 -63,-28 -86,-66 -91,-152 -2,-39 -7,-80 -10,-90 -4,-10 -2,-19 3,-19 5,0 12,30 16,68 10,104 16,129 37,151 39,42 108,36 84,-7 -12,-20 -4,-103 8,-85 13,20 18,126 9,173 -9,41 -10,42 -11,12 z" />
      <path
         id="path4041"
         d="m 341,883 c 35,-46 69,-83 69,-76 0,4 4,4 8,-2 19,-26 94,-61 147,-69 103,-14 145,-15 145,-3 0,9 -18,13 -60,12 -33,0 -60,2 -60,5 0,3 -12,7 -27,8 -51,3 -63,5 -63,14 0,4 -3,7 -7,6 -15,-3 -62,25 -57,33 3,5 -1,9 -8,9 -14,0 -68,56 -68,71 0,5 -192.36586,282.1707 -201.36586,282.1707 C 144.63414,1173.1707 329,898 341,883 Z" />
      <path
         id="path4059"
         d="m 710,681 c -18,-35 -12,-67 15,-79 34,-16 55,-15 34,1 -24,19 -39,52 -32,75 7,27 -3,29 -17,3 z" />
      <path
         id="path4071"
         d="m 786,542 c -5,-8 98,-142 110,-142 5,0 -76,120 -96,143 -4,5 -10,5 -14,-1 z" />
    </g>
    <g
       id="g4560">
      <path
         d="m 1026,1688 c -15.7424,-17.1514 -69.75205,-20.362 -48.5,-50.75 36.4772,14.9369 70.5678,54.8344 113.5,33.75 52.17,-11.4942 61.796,-71.6782 86.9163,-110.3779 19.7271,-28.3502 36.9503,-70.4234 73.0837,-78.6221 36.1059,27.0872 -49.7785,27.5745 -40,67 -24.7491,33.9152 0.3835,96.0698 45.1719,70.3301 39.056,-48.7364 12.3765,-116.5562 34.259,-171.5735 31.3492,-81.0868 100.7746,-138.1896 159.9973,-198.7652 27.5239,-26.6638 55.0479,-53.3276 82.5718,-79.9914 -3.7816,-58.3743 -8.1035,-116.7085 -13,-175 30.3364,-32.2549 64.2256,-64.0998 76.75,-108 12.0499,-19.92103 21.4815,-62.6134 39.0312,-66.78125 10.9554,33.94682 -12.0519,72.56161 -23.7812,96.78125 -36.5651,19.08676 -52.2997,64.76745 -53.5487,104.2526 -5.7075,62.1375 3.4391,128.9626 -25.3126,186.5169 -6.9584,24.7006 -84.4703,39.4646 -45.1387,63.2305 63.1323,-8.5893 125.2821,-26.2898 184.8999,-48.6145 16.2901,-8.7168 29.0714,-7.8936 47.5532,-15.7293 0.8633,34.6784 -63.9467,43.3959 -91.5914,59.7954 -82.6272,33.3418 -171.1019,50.3394 -252.8617,85.5484 23.3689,20.3837 75.2547,23.8302 88.6504,64.2493 33.213,56.4406 15.739,131.1066 61.8496,181.6882 37.4813,43.8139 -25.5548,84.6985 -63.624,95.7393 -16.2738,-8.3509 -55.9994,37.3443 -49.001,3.417 31.1386,-25.5842 87.4926,-20.6157 105.8027,-58.7872 -11.1953,-20.1626 -92.9597,28.7904 -50.9394,-6.4082 21.8784,-31.9021 -8.0559,-73.0562 -3.8555,-109.3339 0.087,-36.8179 -7.2198,-77.1454 -40.553,-98.7325 -14.4064,-14.6715 -42.6878,-34.7042 -50.2048,-5.582 -42.0711,2.8719 -65.175,46.2677 -80.625,80.5 6.9422,36.1361 28.9972,77.2971 4.6758,114.1729 -19.4601,34.3252 -67.9765,43.6388 -100.6446,23.1709 -39.5284,4.49 -53.3713,60.7824 -96.9472,58.8613 -24.3924,5.5979 -55.3573,17.5472 -74.584,-5.9551 z"
         id="path3985"
         inkscape:connector-curvature="0" />
      <path
         id="path3999"
         d="m 958,1564 c -3,-3 3,-23 13,-44 23,-47 23,-50 4,-50 -9,0 -31,-16 -51,-35 -19,-19 -32,-35 -29,-35 3,0 1,-8 -4,-18 -6,-11 -6,-24 0,-35 6,-9 10,-44 10,-77 0,-33 4,-60 9,-60 12,0 20,70 9,96 -17,46 -11,93 16,119 41,42 101,27 129,-31 22,-48 21,-50 -15,-20 -34,29 -66,34 -66,11 0,-8 4,-16 9,-16 4,-1 13,-3 18,-4 6,-1 13,-3 17,-4 3,0 -2,-9 -11,-20 -16,-18 -16,-18 9,-18 28,0 110,26 83,27 -16,0 -42,53 -31,64 4,3 1,6 -6,6 -6,0 -33,34 -60,75 -26,41 -50,72 -53,69 z" />
      <path
         id="path4013"
         d="m 1149,1336 c 15,-18 17,-28 26,-141 4,-38 7,-75 7,-82 1,-7 5,-10 10,-7 13,8 2,177 -13,209 -8,16 -21,31 -29,33 -13,5 -13,3 -1,-12 z" />
      <path
         id="path4015"
         d="m 969,1283 c -5,-28 -4,-63 2,-63 11,0 19,29 9,35 -5,3 -7,12 -3,20 3,8 2,15 -1,15 -3,0 -7,-3 -7,-7 z" />
      <path
         id="path4019"
         d="m 1283,1252 c -17,-11 -32,-57 -23,-71 5,-9 10,-10 14,-2 4,6 4,16 1,21 -4,6 1,22 9,35 18,27 18,29 -1,17 z" />
      <path
         id="path4023"
         d="m 887,1193 c -5,-8 46,-103 56,-103 10,0 2,30 -10,34 -7,3 -13,19 -13,36 0,17 -4,29 -9,26 -5,-4 -11,-1 -13,6 -3,8 -6,9 -11,1 z" />
      <path
         id="path4025"
         d="m 1410,1187 c 0,-15 24,-67 31,-67 4,0 6,7 3,15 -5,11 -2,13 9,9 9,-3 18,-13 20,-22 4,-15 5,-15 6,-1 0,9 -15,29 -34,43 -19,15 -35,25 -35,23 z" />
      <path
         id="path4027"
         d="m 1795,969 c -21,-52 -54,-126 -72,-166 -34,-74 -63,-149 -63,-165 0,-20 19,4 31,40 6,20 30,73 51,117 45,91 101,241 96,257 -2,6 -21,-31 -43,-83 z" />
      <path
         id="path4033"
         d="m 1517,940 c -20,-87 -18,-151 7,-227 30,-93 40,-153 28,-153 -6,0 -15,30 -23,68 -7,37 -14,61 -17,54 -8,-26 18,-169 43,-232 57,-140 18,-252 -116,-342 -33,-22 -69,-54 -69,-62 0,-3 24,12 53,34 28,22 57,40 63,40 6,0 21,12 35,26 13,14 34,30 46,35 14,5 26,22 33,48 13,49 9,231 -5,231 -17,0 -31,44 -24,77 3,17 3,37 -2,44 -4,8 -4,16 1,19 5,3 2,35 -7,75 -21,95 -30,182 -21,199 4,8 2,31 -6,52 -13,37 -14,38 -19,14 z" />
      <path
         id="path4035"
         d="m 1706,937 c -19,-29 -30,-97 -16,-97 6,0 11,10 12,23 2,36 3,41 17,65 17,32 6,40 -13,9 z" />
      <path
         id="path4037"
         d="m 1907,923 c -4,-3 -7,-20 -7,-37 0,-73 -70,-263 -130,-351 -42,-62 -44,-73 -8,-34 69,76 133,226 147,344 10,81 10,90 -2,78 z" />
      <path
         id="path4045"
         d="m 1980,771 c 0,-34 4,-60 8,-57 9,5 7,105 -3,114 -3,3 -5,-23 -5,-57 z" />
      <path
         id="path4061"
         d="m 1980,695 c -8,-45 -8,-47 2,-37 5,5 8,18 5,28 -3,11 -6,15 -7,9 z" />
      <path
         id="path4079"
         d="m 2115,258 c 10,-116 16,-148 30,-148 9,0 16,-20 20,-55 5,-37 12,-55 21,-55 18,0 18,2 -10,111 -13,52 -30,122 -36,157 -17,86 -33,79 -25,-10 z" />
      <path
         id="path4081"
         d="m 1020,208 c 0,-9 5,-20 10,-23 6,-3 10,-17 10,-31 0,-13 5,-24 10,-24 16,0 12,27 -10,62 -13,21 -20,27 -20,16 z" />
      <path
         id="path4083"
         d="m 1680,182 c 0,-16 38,-106 63,-149 23,-39 42,-35 21,5 -7,15 -14,35 -14,44 0,9 -4,18 -9,20 -5,2 -21,23 -35,48 -14,25 -26,39 -26,32 z" />
      <path
         id="path4085"
         d="m 1651,141 c 0,-7 -9,-11 -18,-9 -10,2 -26,-4 -35,-14 -10,-10 -14,-18 -10,-18 4,0 13,5 20,12 18,18 15,-52 -3,-76 -24,-31 -17,-42 10,-16 28,27 48,80 42,112 -2,13 -5,17 -6,9 z" />
    </g>
  </g>
</svg>
